<svg width="356" height="4" viewBox="0 0 356 4" fill="none" xmlns="http://www.w3.org/2000/svg">
<path d="M352.051 2.0498C352.051 1.2198 352.721 0.549805 353.551 0.549805C354.381 0.549805 355.051 1.2198 355.051 2.0498C355.051 2.8798 354.381 3.5498 353.551 3.5498C352.721 3.5498 352.051 2.8798 352.051 2.0498ZM344.051 2.0498C344.051 1.2198 344.721 0.549805 345.551 0.549805C346.381 0.549805 347.051 1.2198 347.051 2.0498C347.051 2.8798 346.381 3.5498 345.551 3.5498C344.721 3.5498 344.051 2.8798 344.051 2.0498ZM336.051 2.0498C336.051 1.2198 336.721 0.549805 337.551 0.549805C338.381 0.549805 339.051 1.2198 339.051 2.0498C339.051 2.8798 338.381 3.5498 337.551 3.5498C336.721 3.5498 336.051 2.8798 336.051 2.0498ZM328.051 2.0498C328.051 1.2198 328.721 0.549805 329.551 0.549805C330.381 0.549805 331.051 1.2198 331.051 2.0498C331.051 2.8798 330.381 3.5498 329.551 3.5498C328.721 3.5498 328.051 2.8798 328.051 2.0498ZM320.051 2.0498C320.051 1.2198 320.721 0.549805 321.551 0.549805C322.381 0.549805 323.051 1.2198 323.051 2.0498C323.051 2.8798 322.381 3.5498 321.551 3.5498C320.721 3.5498 320.051 2.8798 320.051 2.0498ZM312.051 2.0498C312.051 1.2198 312.721 0.549805 313.551 0.549805C314.381 0.549805 315.051 1.2198 315.051 2.0498C315.051 2.8798 314.381 3.5498 313.551 3.5498C312.721 3.5498 312.051 2.8798 312.051 2.0498ZM304.051 2.0498C304.051 1.2198 304.721 0.549805 305.551 0.549805C306.381 0.549805 307.051 1.2198 307.051 2.0498C307.051 2.8798 306.381 3.5498 305.551 3.5498C304.721 3.5498 304.051 2.8798 304.051 2.0498ZM296.051 2.0498C296.051 1.2198 296.721 0.549805 297.551 0.549805C298.381 0.549805 299.051 1.2198 299.051 2.0498C299.051 2.8798 298.381 3.5498 297.551 3.5498C296.721 3.5498 296.051 2.8798 296.051 2.0498ZM288.051 2.0498C288.051 1.2198 288.721 0.549805 289.551 0.549805C290.381 0.549805 291.051 1.2198 291.051 2.0498C291.051 2.8798 290.381 3.5498 289.551 3.5498C288.721 3.5498 288.051 2.8798 288.051 2.0498ZM280.051 2.0498C280.051 1.2198 280.721 0.549805 281.551 0.549805C282.381 0.549805 283.051 1.2198 283.051 2.0498C283.051 2.8798 282.381 3.5498 281.551 3.5498C280.721 3.5498 280.051 2.8798 280.051 2.0498ZM272.051 2.0498C272.051 1.2198 272.721 0.549805 273.551 0.549805C274.381 0.549805 275.051 1.2198 275.051 2.0498C275.051 2.8798 274.381 3.5498 273.551 3.5498C272.721 3.5498 272.051 2.8798 272.051 2.0498ZM264.051 2.0498C264.051 1.2198 264.721 0.549805 265.551 0.549805C266.381 0.549805 267.051 1.2198 267.051 2.0498C267.051 2.8798 266.381 3.5498 265.551 3.5498C264.721 3.5498 264.051 2.8798 264.051 2.0498ZM256.051 2.0498C256.051 1.2198 256.721 0.549805 257.551 0.549805C258.381 0.549805 259.051 1.2198 259.051 2.0498C259.051 2.8798 258.381 3.5498 257.551 3.5498C256.721 3.5498 256.051 2.8798 256.051 2.0498ZM248.051 2.0498C248.051 1.2198 248.721 0.549805 249.551 0.549805C250.381 0.549805 251.051 1.2198 251.051 2.0498C251.051 2.8798 250.381 3.5498 249.551 3.5498C248.721 3.5498 248.051 2.8798 248.051 2.0498ZM240.051 2.0498C240.051 1.2198 240.721 0.549805 241.551 0.549805C242.381 0.549805 243.051 1.2198 243.051 2.0498C243.051 2.8798 242.381 3.5498 241.551 3.5498C240.721 3.5498 240.051 2.8798 240.051 2.0498ZM232.051 2.0498C232.051 1.2198 232.721 0.549805 233.551 0.549805C234.381 0.549805 235.051 1.2198 235.051 2.0498C235.051 2.8798 234.381 3.5498 233.551 3.5498C232.721 3.5498 232.051 2.8798 232.051 2.0498ZM224.051 2.0498C224.051 1.2198 224.721 0.549805 225.551 0.549805C226.381 0.549805 227.051 1.2198 227.051 2.0498C227.051 2.8798 226.381 3.5498 225.551 3.5498C224.721 3.5498 224.051 2.8798 224.051 2.0498ZM216.051 2.0498C216.051 1.2198 216.721 0.549805 217.551 0.549805C218.381 0.549805 219.051 1.2198 219.051 2.0498C219.051 2.8798 218.381 3.5498 217.551 3.5498C216.721 3.5498 216.051 2.8798 216.051 2.0498ZM208.051 2.0498C208.051 1.2198 208.721 0.549805 209.551 0.549805C210.381 0.549805 211.051 1.2198 211.051 2.0498C211.051 2.8798 210.381 3.5498 209.551 3.5498C208.721 3.5498 208.051 2.8798 208.051 2.0498ZM200.051 2.0498C200.051 1.2198 200.721 0.549805 201.551 0.549805C202.381 0.549805 203.051 1.2198 203.051 2.0498C203.051 2.8798 202.381 3.5498 201.551 3.5498C200.721 3.5498 200.051 2.8798 200.051 2.0498ZM192.051 2.0498C192.051 1.2198 192.721 0.549805 193.551 0.549805C194.381 0.549805 195.051 1.2198 195.051 2.0498C195.051 2.8798 194.381 3.5498 193.551 3.5498C192.721 3.5498 192.051 2.8798 192.051 2.0498ZM184.051 2.0498C184.051 1.2198 184.721 0.549805 185.551 0.549805C186.381 0.549805 187.051 1.2198 187.051 2.0498C187.051 2.8798 186.381 3.5498 185.551 3.5498C184.721 3.5498 184.051 2.8798 184.051 2.0498ZM176.051 2.0498C176.051 1.2198 176.721 0.549805 177.551 0.549805C178.381 0.549805 179.051 1.2198 179.051 2.0498C179.051 2.8798 178.381 3.5498 177.551 3.5498C176.721 3.5498 176.051 2.8798 176.051 2.0498ZM168.051 2.0498C168.051 1.2198 168.721 0.549805 169.551 0.549805C170.381 0.549805 171.051 1.2198 171.051 2.0498C171.051 2.8798 170.381 3.5498 169.551 3.5498C168.721 3.5498 168.051 2.8798 168.051 2.0498ZM160.051 2.0498C160.051 1.2198 160.721 0.549805 161.551 0.549805C162.381 0.549805 163.051 1.2198 163.051 2.0498C163.051 2.8798 162.381 3.5498 161.551 3.5498C160.721 3.5498 160.051 2.8798 160.051 2.0498ZM152.051 2.0498C152.051 1.2198 152.721 0.549805 153.551 0.549805C154.381 0.549805 155.051 1.2198 155.051 2.0498C155.051 2.8798 154.381 3.5498 153.551 3.5498C152.721 3.5498 152.051 2.8798 152.051 2.0498ZM144.051 2.0498C144.051 1.2198 144.721 0.549805 145.551 0.549805C146.381 0.549805 147.051 1.2198 147.051 2.0498C147.051 2.8798 146.381 3.5498 145.551 3.5498C144.721 3.5498 144.051 2.8798 144.051 2.0498ZM136.051 2.0498C136.051 1.2198 136.721 0.549805 137.551 0.549805C138.381 0.549805 139.051 1.2198 139.051 2.0498C139.051 2.8798 138.381 3.5498 137.551 3.5498C136.721 3.5498 136.051 2.8798 136.051 2.0498ZM128.051 2.0498C128.051 1.2198 128.721 0.549805 129.551 0.549805C130.381 0.549805 131.051 1.2198 131.051 2.0498C131.051 2.8798 130.381 3.5498 129.551 3.5498C128.721 3.5498 128.051 2.8798 128.051 2.0498ZM120.051 2.0498C120.051 1.2198 120.721 0.549805 121.551 0.549805C122.381 0.549805 123.051 1.2198 123.051 2.0498C123.051 2.8798 122.381 3.5498 121.551 3.5498C120.721 3.5498 120.051 2.8798 120.051 2.0498ZM112.051 2.0498C112.051 1.2198 112.721 0.549805 113.551 0.549805C114.381 0.549805 115.051 1.2198 115.051 2.0498C115.051 2.8798 114.381 3.5498 113.551 3.5498C112.721 3.5498 112.051 2.8798 112.051 2.0498ZM104.051 2.0498C104.051 1.2198 104.721 0.549805 105.551 0.549805C106.381 0.549805 107.051 1.2198 107.051 2.0498C107.051 2.8798 106.381 3.5498 105.551 3.5498C104.721 3.5498 104.051 2.8798 104.051 2.0498ZM96.0508 2.0498C96.0508 1.2198 96.7208 0.549805 97.5508 0.549805C98.3808 0.549805 99.0508 1.2198 99.0508 2.0498C99.0508 2.8798 98.3808 3.5498 97.5508 3.5498C96.7208 3.5498 96.0508 2.8798 96.0508 2.0498ZM88.0508 2.0498C88.0508 1.2198 88.7208 0.549805 89.5508 0.549805C90.3808 0.549805 91.0508 1.2198 91.0508 2.0498C91.0508 2.8798 90.3808 3.5498 89.5508 3.5498C88.7208 3.5498 88.0508 2.8798 88.0508 2.0498ZM80.0508 2.0498C80.0508 1.2198 80.7208 0.549805 81.5508 0.549805C82.3808 0.549805 83.0508 1.2198 83.0508 2.0498C83.0508 2.8798 82.3808 3.5498 81.5508 3.5498C80.7208 3.5498 80.0508 2.8798 80.0508 2.0498ZM72.0508 2.0498C72.0508 1.2198 72.7208 0.549805 73.5508 0.549805C74.3808 0.549805 75.0508 1.2198 75.0508 2.0498C75.0508 2.8798 74.3808 3.5498 73.5508 3.5498C72.7208 3.5498 72.0508 2.8798 72.0508 2.0498ZM64.0508 2.0498C64.0508 1.2198 64.7208 0.549805 65.5508 0.549805C66.3808 0.549805 67.0508 1.2198 67.0508 2.0498C67.0508 2.8798 66.3808 3.5498 65.5508 3.5498C64.7208 3.5498 64.0508 2.8798 64.0508 2.0498ZM56.0508 2.0498C56.0508 1.2198 56.7208 0.549805 57.5508 0.549805C58.3808 0.549805 59.0508 1.2198 59.0508 2.0498C59.0508 2.8798 58.3808 3.5498 57.5508 3.5498C56.7208 3.5498 56.0508 2.8798 56.0508 2.0498ZM48.0508 2.0498C48.0508 1.2198 48.7208 0.549805 49.5508 0.549805C50.3808 0.549805 51.0508 1.2198 51.0508 2.0498C51.0508 2.8798 50.3808 3.5498 49.5508 3.5498C48.7208 3.5498 48.0508 2.8798 48.0508 2.0498ZM40.0508 2.0498C40.0508 1.2198 40.7208 0.549805 41.5508 0.549805C42.3808 0.549805 43.0508 1.2198 43.0508 2.0498C43.0508 2.8798 42.3808 3.5498 41.5508 3.5498C40.7208 3.5498 40.0508 2.8798 40.0508 2.0498ZM32.0508 2.0498C32.0508 1.2198 32.7208 0.549805 33.5508 0.549805C34.3808 0.549805 35.0508 1.2198 35.0508 2.0498C35.0508 2.8798 34.3808 3.5498 33.5508 3.5498C32.7208 3.5498 32.0508 2.8798 32.0508 2.0498ZM24.0508 2.0498C24.0508 1.2198 24.7208 0.549805 25.5508 0.549805C26.3808 0.549805 27.0508 1.2198 27.0508 2.0498C27.0508 2.8798 26.3808 3.5498 25.5508 3.5498C24.7208 3.5498 24.0508 2.8798 24.0508 2.0498ZM16.0508 2.0498C16.0508 1.2198 16.7208 0.549805 17.5508 0.549805C18.3808 0.549805 19.0508 1.2198 19.0508 2.0498C19.0508 2.8798 18.3808 3.5498 17.5508 3.5498C16.7208 3.5498 16.0508 2.8798 16.0508 2.0498ZM8.05078 2.0498C8.05078 1.2198 8.72078 0.549805 9.55078 0.549805C10.3808 0.549805 11.0508 1.2198 11.0508 2.0498C11.0508 2.8798 10.3808 3.5498 9.55078 3.5498C8.72078 3.5498 8.05078 2.8798 8.05078 2.0498ZM0.0507812 2.0498C0.0507812 1.2198 0.720781 0.549805 1.55078 0.549805C2.38078 0.549805 3.05078 1.2198 3.05078 2.0498C3.05078 2.8798 2.38078 3.5498 1.55078 3.5498C0.720781 3.5498 0.0507812 2.8798 0.0507812 2.0498Z" fill="white"/>
</svg>
