<svg width="220" height="4" viewBox="0 0 220 4" fill="none" xmlns="http://www.w3.org/2000/svg">
<path d="M216.051 1.63965C216.051 0.809648 216.721 0.139648 217.551 0.139648C218.381 0.139648 219.051 0.809648 219.051 1.63965C219.051 2.46965 218.381 3.13965 217.551 3.13965C216.721 3.13965 216.051 2.46965 216.051 1.63965ZM208.051 1.63965C208.051 0.809648 208.721 0.139648 209.551 0.139648C210.381 0.139648 211.051 0.809648 211.051 1.63965C211.051 2.46965 210.381 3.13965 209.551 3.13965C208.721 3.13965 208.051 2.46965 208.051 1.63965ZM200.051 1.63965C200.051 0.809648 200.721 0.139648 201.551 0.139648C202.381 0.139648 203.051 0.809648 203.051 1.63965C203.051 2.46965 202.381 3.13965 201.551 3.13965C200.721 3.13965 200.051 2.46965 200.051 1.63965ZM192.051 1.63965C192.051 0.809648 192.721 0.139648 193.551 0.139648C194.381 0.139648 195.051 0.809648 195.051 1.63965C195.051 2.46965 194.381 3.13965 193.551 3.13965C192.721 3.13965 192.051 2.46965 192.051 1.63965ZM184.051 1.63965C184.051 0.809648 184.721 0.139648 185.551 0.139648C186.381 0.139648 187.051 0.809648 187.051 1.63965C187.051 2.46965 186.381 3.13965 185.551 3.13965C184.721 3.13965 184.051 2.46965 184.051 1.63965ZM176.051 1.63965C176.051 0.809648 176.721 0.139648 177.551 0.139648C178.381 0.139648 179.051 0.809648 179.051 1.63965C179.051 2.46965 178.381 3.13965 177.551 3.13965C176.721 3.13965 176.051 2.46965 176.051 1.63965ZM168.051 1.63965C168.051 0.809648 168.721 0.139648 169.551 0.139648C170.381 0.139648 171.051 0.809648 171.051 1.63965C171.051 2.46965 170.381 3.13965 169.551 3.13965C168.721 3.13965 168.051 2.46965 168.051 1.63965ZM160.051 1.63965C160.051 0.809648 160.721 0.139648 161.551 0.139648C162.381 0.139648 163.051 0.809648 163.051 1.63965C163.051 2.46965 162.381 3.13965 161.551 3.13965C160.721 3.13965 160.051 2.46965 160.051 1.63965ZM152.051 1.63965C152.051 0.809648 152.721 0.139648 153.551 0.139648C154.381 0.139648 155.051 0.809648 155.051 1.63965C155.051 2.46965 154.381 3.13965 153.551 3.13965C152.721 3.13965 152.051 2.46965 152.051 1.63965ZM144.051 1.63965C144.051 0.809648 144.721 0.139648 145.551 0.139648C146.381 0.139648 147.051 0.809648 147.051 1.63965C147.051 2.46965 146.381 3.13965 145.551 3.13965C144.721 3.13965 144.051 2.46965 144.051 1.63965ZM136.051 1.63965C136.051 0.809648 136.721 0.139648 137.551 0.139648C138.381 0.139648 139.051 0.809648 139.051 1.63965C139.051 2.46965 138.381 3.13965 137.551 3.13965C136.721 3.13965 136.051 2.46965 136.051 1.63965ZM128.051 1.63965C128.051 0.809648 128.721 0.139648 129.551 0.139648C130.381 0.139648 131.051 0.809648 131.051 1.63965C131.051 2.46965 130.381 3.13965 129.551 3.13965C128.721 3.13965 128.051 2.46965 128.051 1.63965ZM120.051 1.63965C120.051 0.809648 120.721 0.139648 121.551 0.139648C122.381 0.139648 123.051 0.809648 123.051 1.63965C123.051 2.46965 122.381 3.13965 121.551 3.13965C120.721 3.13965 120.051 2.46965 120.051 1.63965ZM112.051 1.63965C112.051 0.809648 112.721 0.139648 113.551 0.139648C114.381 0.139648 115.051 0.809648 115.051 1.63965C115.051 2.46965 114.381 3.13965 113.551 3.13965C112.721 3.13965 112.051 2.46965 112.051 1.63965ZM104.051 1.63965C104.051 0.809648 104.721 0.139648 105.551 0.139648C106.381 0.139648 107.051 0.809648 107.051 1.63965C107.051 2.46965 106.381 3.13965 105.551 3.13965C104.721 3.13965 104.051 2.46965 104.051 1.63965ZM96.0508 1.63965C96.0508 0.809648 96.7208 0.139648 97.5508 0.139648C98.3808 0.139648 99.0508 0.809648 99.0508 1.63965C99.0508 2.46965 98.3808 3.13965 97.5508 3.13965C96.7208 3.13965 96.0508 2.46965 96.0508 1.63965ZM88.0508 1.63965C88.0508 0.809648 88.7208 0.139648 89.5508 0.139648C90.3808 0.139648 91.0508 0.809648 91.0508 1.63965C91.0508 2.46965 90.3808 3.13965 89.5508 3.13965C88.7208 3.13965 88.0508 2.46965 88.0508 1.63965ZM80.0508 1.63965C80.0508 0.809648 80.7208 0.139648 81.5508 0.139648C82.3808 0.139648 83.0508 0.809648 83.0508 1.63965C83.0508 2.46965 82.3808 3.13965 81.5508 3.13965C80.7208 3.13965 80.0508 2.46965 80.0508 1.63965ZM72.0508 1.63965C72.0508 0.809648 72.7208 0.139648 73.5508 0.139648C74.3808 0.139648 75.0508 0.809648 75.0508 1.63965C75.0508 2.46965 74.3808 3.13965 73.5508 3.13965C72.7208 3.13965 72.0508 2.46965 72.0508 1.63965ZM64.0508 1.63965C64.0508 0.809648 64.7208 0.139648 65.5508 0.139648C66.3808 0.139648 67.0508 0.809648 67.0508 1.63965C67.0508 2.46965 66.3808 3.13965 65.5508 3.13965C64.7208 3.13965 64.0508 2.46965 64.0508 1.63965ZM56.0508 1.63965C56.0508 0.809648 56.7208 0.139648 57.5508 0.139648C58.3808 0.139648 59.0508 0.809648 59.0508 1.63965C59.0508 2.46965 58.3808 3.13965 57.5508 3.13965C56.7208 3.13965 56.0508 2.46965 56.0508 1.63965ZM48.0508 1.63965C48.0508 0.809648 48.7208 0.139648 49.5508 0.139648C50.3808 0.139648 51.0508 0.809648 51.0508 1.63965C51.0508 2.46965 50.3808 3.13965 49.5508 3.13965C48.7208 3.13965 48.0508 2.46965 48.0508 1.63965ZM40.0508 1.63965C40.0508 0.809648 40.7208 0.139648 41.5508 0.139648C42.3808 0.139648 43.0508 0.809648 43.0508 1.63965C43.0508 2.46965 42.3808 3.13965 41.5508 3.13965C40.7208 3.13965 40.0508 2.46965 40.0508 1.63965ZM32.0508 1.63965C32.0508 0.809648 32.7208 0.139648 33.5508 0.139648C34.3808 0.139648 35.0508 0.809648 35.0508 1.63965C35.0508 2.46965 34.3808 3.13965 33.5508 3.13965C32.7208 3.13965 32.0508 2.46965 32.0508 1.63965ZM24.0508 1.63965C24.0508 0.809648 24.7208 0.139648 25.5508 0.139648C26.3808 0.139648 27.0508 0.809648 27.0508 1.63965C27.0508 2.46965 26.3808 3.13965 25.5508 3.13965C24.7208 3.13965 24.0508 2.46965 24.0508 1.63965ZM16.0508 1.63965C16.0508 0.809648 16.7208 0.139648 17.5508 0.139648C18.3808 0.139648 19.0508 0.809648 19.0508 1.63965C19.0508 2.46965 18.3808 3.13965 17.5508 3.13965C16.7208 3.13965 16.0508 2.46965 16.0508 1.63965ZM8.05078 1.63965C8.05078 0.809648 8.72078 0.139648 9.55078 0.139648C10.3808 0.139648 11.0508 0.809648 11.0508 1.63965C11.0508 2.46965 10.3808 3.13965 9.55078 3.13965C8.72078 3.13965 8.05078 2.46965 8.05078 1.63965ZM0.0507812 1.63965C0.0507812 0.809648 0.720781 0.139648 1.55078 0.139648C2.38078 0.139648 3.05078 0.809648 3.05078 1.63965C3.05078 2.46965 2.38078 3.13965 1.55078 3.13965C0.720781 3.13965 0.0507812 2.46965 0.0507812 1.63965Z" fill="white"/>
</svg>
