<svg width="24" height="24" viewBox="0 0 24 24" fill="none" xmlns="http://www.w3.org/2000/svg">
<path d="M20.296 14.2041L12.796 6.70414C12.6914 6.59926 12.5673 6.51605 12.4305 6.45927C12.2938 6.40248 12.1471 6.37325 11.9991 6.37325C11.851 6.37325 11.7044 6.40248 11.5677 6.45927C11.4309 6.51605 11.3067 6.59926 11.2022 6.70414L3.70221 14.2041C3.49086 14.4155 3.37213 14.7021 3.37213 15.001C3.37213 15.2999 3.49086 15.5865 3.70221 15.7979C3.91355 16.0092 4.2002 16.128 4.49908 16.128C4.79797 16.128 5.08461 16.0092 5.29596 15.7979L12 9.09383L18.7041 15.7988C18.9154 16.0102 19.2021 16.1289 19.501 16.1289C19.7998 16.1289 20.0865 16.0102 20.2978 15.7988C20.5092 15.5875 20.6279 15.3008 20.6279 15.002C20.6279 14.7031 20.5092 14.4164 20.2978 14.2051L20.296 14.2041Z" fill="#ABABAB"/>
</svg>
