<svg width="316" height="135" viewBox="0 0 316 135" fill="none" xmlns="http://www.w3.org/2000/svg">
<g clip-path="url(#clip0_651_161)">
<path d="M51.6 91.4C53.17 90.29 54.61 88.49 54.81 88.25H51.95V85.49H55.1V83.96H57.88V85.49H60.39V88.25H57.88V88.35C59.28 89.75 60.21 90.39 60.66 90.68L59.44 93.09C58.57 92.29 58.29 91.98 57.89 91.54V95.43H55.1V91.54C54.28 92.76 53.7 93.48 52.71 94.38L51.6 91.4ZM56.09 96.72C55.95 97.44 55.43 100.29 54.13 102L51.68 100.12C52.52 99.13 53.12 97.46 53.37 96.08L56.09 96.72ZM56.34 96.99H59.22V99.01C59.22 99.44 59.38 99.5 59.72 99.5H62.48C63.24 99.5 63.26 99.33 63.49 97.91L66.29 98.57C66.02 100.65 65.71 102.12 64.02 102.12H58.04C57.55 102.12 56.35 101.85 56.35 100.47V96.99H56.34ZM60.11 94.35C60.56 94.54 60.77 94.66 61.04 94.82V84.45H69.8V95.3H61.86C63.08 96.04 63.47 96.39 63.8 96.68L61.9 98.78C60.81 97.73 59.49 96.93 58.23 96.27L60.11 94.35ZM63.74 86.87V87.76H67.04V86.87H63.74ZM63.74 89.38V90.31H67.04V89.38H63.74ZM63.74 91.96V92.89H67.04V91.96H63.74ZM67.86 95.77C69.41 97.67 70.33 99.79 70.62 100.45L67.9 101.97C67.05 99.74 66.64 98.88 65.41 97.09L67.86 95.77Z" fill="white"/>
<path d="M77.17 85.67C76.84 87.67 76.61 89.59 76.61 91.61C76.61 93.38 76.75 97.65 78.3 97.65C79.29 97.65 80.15 95.61 80.69 94.02L83.21 95.5C82.63 97.21 81.11 101.23 78.1 101.23C74 101.23 73.54 94.57 73.54 91.32C73.54 89.32 73.75 86.93 73.89 85.38L77.17 85.67ZM87.34 99.3C87.36 98.91 87.38 98.5 87.38 97.9C87.38 91.28 85.2 88.46 83.96 87.41L86.45 85.76C88.2 87.53 90.84 90.23 90.7 99.1L87.34 99.3Z" fill="white"/>
<path d="M95.1 85.18H98.05V89.9H101.39V83.96H104.34V89.9H107.72V85.18H110.65V92.68H104.34V98.66H108.4V93.84H111.35V102.35H108.4V101.46H97.39V102.35H94.42V93.84H97.39V98.66H101.39V92.68H95.1V85.18Z" fill="white"/>
<path d="M122.7 99.48C125.64 99.22 127.2 98.75 128.25 97.7C129.69 96.26 129.88 94.12 129.88 92.98C129.88 90.79 128.79 87.43 124.18 87.3C124.14 91.07 122.74 99.55 118.6 99.55C116.41 99.55 115.1 96.93 115.1 94.17C115.1 89.52 118.36 85.78 123.93 85.78C129.14 85.78 131.72 88.97 131.72 93.09C131.72 100.21 125.72 100.87 123.25 101.05L122.7 99.48ZM119.38 88.61C116.7 90.58 116.7 93.84 116.7 94.32C116.7 95.73 117.17 97.86 118.63 97.86C119.62 97.86 120.24 96.87 120.62 96.15C121.18 95.04 122.38 91.78 122.51 87.38C121.83 87.5 120.62 87.69 119.38 88.61Z" fill="white"/>
<path d="M138.3 98.41C139.01 98.45 139.5 98.47 140.27 98.47C142.41 98.47 146.79 98.47 148.85 96.09C149.67 95.15 150.03 94.05 150.03 92.9C150.03 91.44 149.51 88.63 145.46 88.63C143.51 88.63 140.68 89.23 138.71 89.64C136.95 90.02 136.33 90.18 135.75 90.33L135.43 88.46C136.16 88.37 138.15 88.03 140.25 87.67C141.77 87.41 143.87 87.03 145.5 87.03C150.03 87.03 151.87 89.9 151.87 92.91C151.87 96.86 149 98.49 146.45 99.32C144.35 99.99 141.69 100.09 138.62 100.01L138.3 98.41Z" fill="white"/>
<path d="M163.05 87.07L163.01 85.08H164.66L164.68 87.07H170.9V88.57H164.7L164.72 90.91H170.57V92.37H164.72V95.16C166.87 96.04 168.73 97.22 170.45 98.76L169.34 100.22C167.62 98.59 166.62 97.75 164.73 96.79V97.63C164.73 100.96 161.69 101.13 160.65 101.13C158.18 101.13 156.47 99.78 156.47 97.93C156.47 96.47 157.67 94.48 161.25 94.48C162.17 94.48 162.69 94.59 163.09 94.69V92.37H156.12V90.91H163.07V88.57H155.8V87.07H163.05ZM163.1 96.2C162.67 96.07 162.07 95.88 161.06 95.88C159.34 95.88 157.93 96.59 157.93 97.94C157.93 99.31 159.45 99.7 160.57 99.7C163.04 99.7 163.1 98.39 163.1 97.53V96.2Z" fill="white"/>
<path d="M177.15 98.99C182.38 99.16 186.24 98.35 186.24 94.55C186.24 93.31 185.72 91.4 182.77 91.4C181.05 91.4 176.96 92.3 175.01 92.77L174.69 91.06C175.36 90.97 178.33 90.44 178.94 90.35C179.67 90.22 181.64 89.9 182.86 89.9C185.31 89.9 187.96 91.19 187.96 94.55C187.96 98.05 185.28 99.55 183.69 99.95C181.24 100.57 178.54 100.53 177.38 100.49L177.15 98.99Z" fill="white"/>
<path d="M197.09 85.09C197.03 85.75 196.96 86.36 196.79 87.56H202V89.13H196.57C196.1 91.68 195.01 97.51 193.31 101.23L191.6 100.65C193.38 97.2 194.43 91.56 194.82 89.13H192.05V87.56H195.03C195.14 86.55 195.18 85.67 195.22 84.99L197.09 85.09ZM200.8 95.32C199.94 96.56 199.69 96.89 199.69 97.55C199.69 99.22 201.47 99.44 204.04 99.44C206.08 99.44 207.24 99.33 207.86 99.27L207.84 100.94C207.13 100.98 206.55 101.01 205.01 101.01C202.27 101.01 198.11 101.01 198.11 97.66C198.11 96.46 198.6 95.67 199.52 94.49L200.8 95.32ZM207.5 91.61C207.07 91.57 206.62 91.55 205.91 91.55C204.11 91.55 201.84 91.77 200.2 92.43L199.69 90.99C201.58 90.28 203.29 89.87 207.5 89.92V91.61Z" fill="white"/>
<path d="M225.29 84.33C226.88 85.5 228.38 87.46 229.45 89.5L226.77 91C226.09 89.78 225.16 88.18 223.91 86.88V89.44H219.68V91.05C220.22 90.95 220.85 90.84 222.11 90.84C224.91 90.84 226.19 91.6 226.97 92.28C228.43 93.6 228.6 95.43 228.6 96.28C228.6 101.68 222.33 101.7 220.62 101.7L220 99.04C222.04 99.02 225.46 99.02 225.46 96.16C225.46 93.65 222.95 93.52 221.98 93.52C221.11 93.52 220.23 93.68 219.69 93.75V98.39C219.69 100.88 217.57 101.27 216.21 101.27C212.99 101.27 211.9 98.78 211.9 97.33C211.9 93.7 215.61 92.18 216.78 91.72V89.45H212.27V86.59H216.78V84.67H219.69V86.59H223.63C223.46 86.42 223.32 86.3 222.93 85.97L225.29 84.33ZM216.75 94.57C216.24 94.82 214.81 95.5 214.81 97.1C214.81 98.09 215.53 98.4 215.99 98.4C216.75 98.4 216.75 97.99 216.75 97.58V94.57Z" fill="white"/>
<path d="M250.06 92.64C249.05 93.67 247.88 94.54 246.68 95.36C248.14 97.77 249.75 99.03 250.41 99.56L248.12 101.75C245.03 98.86 243.15 94.93 242.56 90.72H242.21C241.92 91.05 241.67 91.3 241.12 91.69C242.15 92.76 243.68 94.62 243.68 98.39C243.68 98.95 243.68 102.27 240.96 102.27H237.75L237.3 100.08C235.24 101.01 233.59 101.44 232.74 101.67L231.71 99.15C235.98 98.37 239.11 96.9 240.8 95.83C240.74 95.66 240.68 95.44 240.53 95.05C239.13 95.96 236.53 97.21 233.25 97.94L232.24 95.63C236.3 95.11 238.65 93.98 239.56 93.49C239.33 93.2 239.17 93.04 239.04 92.89C237.06 93.82 235.33 94.29 233.14 94.64L232.21 92.27C234.87 92.11 236.64 91.75 238.48 90.72H234.67V89.81H232.55V85.32H239.72V84H242.61V85.32H249.76V89.81H247.56V90.72H245C245.19 91.85 245.43 92.51 245.58 92.95C246.59 92.25 247.39 91.57 248.18 90.68L250.06 92.64ZM246.96 88.56V87.71H235.4V88.56H246.96ZM240.02 99.91C240.62 99.91 241.17 99.83 241.09 97.89C240.62 98.22 239.63 98.98 237.69 99.91H240.02Z" fill="white"/>
<path d="M260.19 98.39C260.19 100.16 258.73 101.61 256.97 101.61C255.18 101.63 253.75 100.15 253.75 98.39C253.75 96.58 255.21 95.17 256.97 95.17C258.73 95.17 260.19 96.59 260.19 98.39ZM255.02 98.39C255.02 99.44 255.89 100.31 256.96 100.31C258.03 100.31 258.88 99.44 258.88 98.39C258.88 97.3 258.01 96.45 256.96 96.45C255.89 96.45 255.02 97.3 255.02 98.39Z" fill="white"/>
<path d="M13.49 117.25V118.54C11.62 120.08 8.92 121.73 5.94 123.3C9.05 122.91 12.78 122.53 16.41 122.59L16.43 124.3C15.83 124.24 15.01 124.17 13.98 124.17C12.82 124.17 11.92 124.17 10.18 125.2C8.21 126.38 7.14 127.88 7.14 129.25C7.14 131.42 9.74 131.76 14.07 131.63L13.98 133.32C11.11 133.38 9.03 133.11 7.55 132.51C6.35 132.04 5.39 130.77 5.39 129.46C5.39 127.49 7.28 125.39 9.14 124.46C7.47 124.65 3.03 125.17 0.16 125.9L0 124.15C1.65 124.02 2.38 123.89 4.61 122.71C5.88 122.04 8.75 120.48 10.81 118.72L2.36 118.85L2.34 117.26H13.49V117.25Z" fill="white"/>
<path d="M25.87 117.08C25.76 119.1 25.74 119.63 25.7 121.43C25.85 121.28 28.9 118.23 31.62 118.23C34.86 118.23 34.73 121.42 34.67 122.52L34.5 126.32C34.48 126.9 34.43 127.84 34.43 128.4C34.43 129.62 34.56 130.22 35.27 130.44C35.7 130.57 36.56 130.72 37.27 130.72L36.86 132.29C34.18 132.07 32.74 131.88 32.74 128.17C32.74 127.74 32.78 126.78 32.8 126.3L32.99 122.5C33.05 121.34 33.08 119.78 31.32 119.78C28.86 119.78 25.79 123.32 25.66 123.49C25.62 126 25.6 126.99 25.6 129.32C25.6 131.38 25.62 132.26 25.64 133.09H23.95C23.99 131.33 24.01 130.82 24.04 126.42C23.27 127.98 22.65 128.8 21.25 130.45L20.16 128.91C21.88 127.47 23.21 125.54 24.06 123.42V121.62L20.82 121.64V120.07H24.08C24.08 119.75 24.12 117.18 24.12 117.09H25.87V117.08Z" fill="white"/>
<path d="M47.38 116.91C47.29 117.42 47.21 117.9 47 118.86H54.98V120.42H46.57C46.19 121.64 45.86 122.2 45.5 122.8C46.02 122.44 46.87 121.86 48.31 121.86C49.28 121.86 50.71 122.1 51.21 124.16C53.01 123.43 54.7 122.87 55.93 122.45L56.59 124.08C55.18 124.46 53.46 124.92 51.46 125.69C51.54 126.46 51.55 127.28 51.55 127.85C51.55 128.56 51.53 129.01 51.49 129.39H49.82C49.88 128.87 49.91 128.55 49.91 127.74C49.91 127.33 49.89 126.77 49.87 126.37C48.91 126.84 46.1 128.21 46.1 129.84C46.1 131.6 48.37 131.6 50.35 131.6C51.17 131.6 52.95 131.56 55.26 131.34L55.3 132.97C54.55 133.03 53.18 133.12 50.73 133.12C48.63 133.12 44.4 133.12 44.4 129.9C44.4 128.05 46.18 126.51 49.68 124.84C49.51 123.87 49.04 123.3 48.03 123.3C46.92 123.3 45.58 123.92 44.19 125.38C42.93 127.12 42.8 127.31 41.55 128.68L40.29 127.56C42.97 125.12 44.21 122.13 44.77 120.42H40.8V118.86H45.18C45.41 117.79 45.42 117.3 45.46 116.8L47.38 116.91Z" fill="white"/>
<path d="M61.42 124.93L59.28 122.95C60.04 122.06 61.51 120.31 62.52 116.07L65.51 116.46C65.32 117.24 65.1 118.17 64.75 119.22H67.24V115.92H70.29V119.22H77.03V122.02H70.3V124.93H76.5V127.69H70.3V130.97H77.84V133.77H59.54V130.97H67.25V127.69H60.92V124.93H61.42ZM67.25 124.93V122.02H63.64C62.88 123.57 62.2 124.37 61.7 124.93H67.25Z" fill="white"/>
<path d="M87.8 116.5C87.72 117.39 87.63 118.4 87.43 119.78H89.12C92.4 119.78 93.41 121.9 93.41 125.67C93.41 127.42 93.06 130.97 92.01 132.27C91.47 132.95 90.55 133.63 89.02 133.63C88.09 133.63 86.71 133.44 85.97 133.32L85.76 130.27C87.51 130.56 88.25 130.58 88.38 130.58C88.71 130.58 89.39 130.58 89.74 129.73C90.32 128.23 90.4 125.24 90.4 125.07C90.4 123.28 89.97 122.66 88.65 122.68L86.96 122.7C86.42 125.34 85.33 130.64 83.6 133.58L80.61 132.06C82.51 128.84 83.41 124.89 83.82 122.72L81.08 122.74V119.79H84.29C84.45 118.18 84.48 117.58 84.58 116.35L87.8 116.5ZM95.43 127.67C95.31 123.07 94.11 120.97 93.04 119.47L95.72 118.17C97.62 120.77 98.42 123.38 98.67 127.12L95.43 127.67Z" fill="white"/>
<path d="M106.37 116.65C106.23 119.54 106.1 126.19 106.1 126.77C106.1 129.28 106.62 130.56 109.15 130.56C113.38 130.56 114.26 127.12 114.67 124.58L117.62 125.88C116.14 133.24 111.38 133.57 109.17 133.57C103.34 133.57 102.93 130 102.93 126.01C102.93 124.53 102.99 117.95 102.99 116.59L106.37 116.65Z" fill="white"/>
<path d="M124.79 133.79C123.88 132.41 122.58 130.7 120.96 128.97L123.39 127.36C124.81 128.6 126.67 130.76 127.61 131.94L124.79 133.79Z" fill="white"/>
<path d="M147.53 117.25V118.54C145.66 120.08 142.96 121.73 139.98 123.3C143.09 122.91 146.82 122.53 150.45 122.59L150.47 124.3C149.87 124.24 149.05 124.17 148.02 124.17C146.86 124.17 145.96 124.17 144.22 125.2C142.25 126.38 141.18 127.88 141.18 129.25C141.18 131.42 143.78 131.76 148.11 131.63L148.02 133.32C145.15 133.38 143.07 133.11 141.59 132.51C140.39 132.04 139.43 130.77 139.43 129.46C139.43 127.49 141.32 125.39 143.18 124.46C141.51 124.65 137.07 125.17 134.2 125.9L134.03 124.16C135.68 124.03 136.41 123.9 138.64 122.72C139.91 122.05 142.78 120.49 144.84 118.73L136.39 118.86L136.37 117.27H147.53V117.25Z" fill="white"/>
<path d="M159.91 117.08C159.8 119.1 159.78 119.63 159.74 121.43C159.89 121.28 162.94 118.23 165.66 118.23C168.9 118.23 168.77 121.42 168.71 122.52L168.54 126.32C168.52 126.9 168.47 127.84 168.47 128.4C168.47 129.62 168.6 130.22 169.31 130.44C169.74 130.57 170.6 130.72 171.31 130.72L170.9 132.29C168.22 132.07 166.78 131.88 166.78 128.17C166.78 127.74 166.82 126.78 166.84 126.3L167.03 122.5C167.09 121.34 167.12 119.78 165.36 119.78C162.9 119.78 159.83 123.32 159.7 123.49C159.66 126 159.64 126.99 159.64 129.32C159.64 131.38 159.66 132.26 159.68 133.09H158C158.04 131.33 158.06 130.82 158.09 126.42C157.32 127.98 156.7 128.8 155.3 130.45L154.21 128.91C155.93 127.47 157.26 125.54 158.11 123.42V121.62L154.87 121.64V120.07H158.13C158.13 119.75 158.17 117.18 158.17 117.09H159.91V117.08Z" fill="white"/>
<path d="M181.41 116.91C181.32 117.42 181.24 117.9 181.03 118.86H189.01V120.42H180.6C180.23 121.64 179.89 122.2 179.53 122.8C180.05 122.44 180.9 121.86 182.34 121.86C183.31 121.86 184.74 122.1 185.24 124.16C187.04 123.43 188.72 122.87 189.96 122.45L190.62 124.08C189.21 124.46 187.49 124.92 185.49 125.69C185.57 126.46 185.58 127.28 185.58 127.85C185.58 128.56 185.56 129.01 185.52 129.39H183.85C183.91 128.87 183.94 128.55 183.94 127.74C183.94 127.33 183.92 126.77 183.9 126.37C182.94 126.84 180.13 128.21 180.13 129.84C180.13 131.6 182.4 131.6 184.38 131.6C185.2 131.6 186.98 131.56 189.29 131.34L189.33 132.97C188.58 133.03 187.21 133.12 184.76 133.12C182.66 133.12 178.43 133.12 178.43 129.9C178.43 128.05 180.21 126.51 183.71 124.84C183.54 123.87 183.07 123.3 182.06 123.3C180.95 123.3 179.61 123.92 178.22 125.38C176.96 127.12 176.83 127.31 175.58 128.68L174.32 127.56C177 125.12 178.24 122.13 178.8 120.42H174.83V118.86H179.21C179.44 117.79 179.45 117.3 179.49 116.8L181.41 116.91Z" fill="white"/>
<path d="M211.85 122.95V125.73H208.08V132.35C208.08 132.91 208.06 134.37 206.25 134.37H202.05L201.31 131.34H204.59C205.08 131.34 205.08 131.01 205.08 130.82V125.73H193.54V122.95H205.08V120.74H208.07V122.95H211.85ZM194.06 117.35H201.21V115.93H204.16V117.35H211.37V122.3H208.46V120.01H197V122.3H194.07V117.35H194.06ZM198.25 125.82C199.14 126.64 200.89 128.42 201.96 130.31L199.28 132.16C198.08 129.87 196.33 128.1 195.84 127.58L198.25 125.82Z" fill="white"/>
<path d="M228.23 116.91V119.34C225.3 121.83 225.12 121.98 224.5 122.49C224.81 122.39 225.2 122.26 226.23 122.26C230.19 122.26 232 125.19 232 127.8C232 131.01 229.57 133.7 223.98 133.7C218.95 133.7 218.85 130.57 218.85 130.16C218.85 128.12 220.83 126.97 222.7 126.97C225.03 126.97 226.2 128.58 226.2 130.18C226.2 130.41 226.18 130.57 226.14 130.84C227.79 130.34 228.72 129.4 228.72 127.93C228.72 126.74 227.98 124.86 224.7 124.86C221.59 124.86 220.02 126.34 216.44 129.99L214.52 127.43C216.11 126.23 216.85 125.58 223.51 119.8L216.69 119.94V116.93H228.23V116.91ZM223.94 130.74C223.94 130.6 223.9 129.26 222.54 129.26C221.8 129.26 221.3 129.63 221.3 130.21C221.3 131.2 222.7 131.26 223.15 131.26C223.4 131.26 223.6 131.24 223.89 131.18C223.92 131.01 223.94 130.91 223.94 130.74Z" fill="white"/>
<path d="M249.44 116.34C251.03 117.51 252.53 119.47 253.6 121.51L250.92 123.01C250.24 121.79 249.31 120.19 248.06 118.89V121.45H243.83V123.06C244.37 122.96 245 122.85 246.26 122.85C249.06 122.85 250.34 123.61 251.12 124.29C252.58 125.61 252.75 127.44 252.75 128.29C252.75 133.69 246.48 133.71 244.77 133.71L244.15 131.05C246.19 131.03 249.61 131.03 249.61 128.17C249.61 125.66 247.1 125.53 246.13 125.53C245.26 125.53 244.38 125.69 243.84 125.76V130.4C243.84 132.89 241.72 133.28 240.36 133.28C237.14 133.28 236.05 130.79 236.05 129.34C236.05 125.71 239.76 124.19 240.93 123.73V121.46H236.42V118.6H240.93V116.68H243.84V118.6H247.78C247.61 118.43 247.47 118.31 247.08 117.98L249.44 116.34ZM240.9 126.58C240.39 126.83 238.96 127.51 238.96 129.11C238.96 130.1 239.68 130.41 240.14 130.41C240.9 130.41 240.9 130 240.9 129.59V126.58Z" fill="white"/>
<path d="M263.86 119.49C262.91 119.51 258.25 119.65 257.2 119.65L256.7 116.89C257.44 116.93 257.98 116.95 258.86 116.95C262.57 116.95 269.12 116.6 272.59 115.84L273.7 118.56C270.57 119.05 268.67 119.24 266.92 119.34V121.17H273.52V123.89H266.92V125.68H274.53V128.46H266.92V132.13C266.92 133.96 265.52 134.36 264.88 134.36H260.26L259.72 131.43H263.27C263.6 131.43 263.87 131.39 263.87 130.96V128.45H256.12V125.67H263.87V123.88H257.11V121.16H263.87V119.49H263.86Z" fill="white"/>
<path d="M278.31 125.94C278.02 126.29 277.84 126.48 277.4 126.97L276.68 122.87C278.23 120.97 279.22 117.99 279.42 115.86L282.31 116.11C282.19 117.02 281.98 118.6 281.16 120.85V134.39H278.3V125.94H278.31ZM292.45 134.54C292.39 134.09 292.31 133.72 292.18 133.1C288.8 133.59 286.06 133.78 282.18 133.97L281.83 131.13C282.88 131.11 283.27 131.09 283.68 131.07C284.4 128.99 285.08 126.89 285.35 124.91H282.18V122.11H295.41V124.91H288.46C288.09 126.74 287.64 128.35 286.65 130.93C288.11 130.83 290.07 130.72 291.47 130.52C290.93 128.66 290.4 127.55 290.07 126.87L292.59 125.86C293.74 127.86 294.9 131.2 295.43 133.59L292.45 134.54ZM294.78 116.67V119.47H282.81V116.67H294.78Z" fill="white"/>
<path d="M302.19 117.68C301.86 119.68 301.63 121.6 301.63 123.62C301.63 125.39 301.77 129.66 303.32 129.66C304.31 129.66 305.17 127.62 305.71 126.03L308.23 127.51C307.65 129.22 306.13 133.24 303.12 133.24C299.02 133.24 298.56 126.58 298.56 123.33C298.56 121.33 298.77 118.94 298.91 117.39L302.19 117.68ZM312.37 131.32C312.39 130.93 312.41 130.52 312.41 129.92C312.41 123.3 310.23 120.48 308.99 119.43L311.48 117.78C313.23 119.55 315.87 122.25 315.73 131.12L312.37 131.32Z" fill="white"/>
<path d="M59.47 36.37C58.26 36.11 58.14 36.11 57.83 36.03V52.18H50.6C51.59 52.52 56.28 53.99 62.1 53.9L59.52 59.54C53.41 58.55 50.26 57.69 44.62 55.1L47.07 52.17H35.01L37.64 55.14C31.78 58.5 25.11 59.36 23.13 59.62L20.5 54.11C27.05 53.85 29.89 52.99 31.95 52.17H24.59V35.55C23.08 36.11 22.74 36.24 21.96 36.5L20.63 30.21C23.43 29.61 29.03 27.84 31.78 26.68L32.34 32.23C31.52 32.66 31.35 32.75 29.11 33.69H34.92L33.24 29.86C41.55 28.74 42.63 26.03 43.1 24.82H39.83C37.46 26.93 36.17 27.58 34.83 28.26L31.6 23.87C34.66 22.36 37.28 20.12 38.53 18.27L45 18.63C44.61 19.32 44.44 19.62 44.01 20.27H60.8V24.23C60.41 25.26 59.98 26.34 58.35 28.97L52.71 27.12C53.18 26.6 53.83 25.7 54.3 24.84H49.4C50.73 27.12 53.28 29.84 62.06 30.52L59.47 36.37ZM24.12 18.54C27.87 19.53 30.06 20.44 32.04 21.3L29.11 26.55C26.78 25.22 23.56 24.05 21.45 23.45L24.12 18.54ZM31.1 38.86H51.34V37.31H31.1V38.86ZM31.1 43.51H51.34V41.92H31.1V43.51ZM31.1 48.29H51.34V46.65H31.1V48.29ZM52.15 33.7C50.56 32.8 48.58 31.55 46.55 28.92C44.83 31.07 42.59 32.62 40.09 33.7H52.15Z" fill="white"/>
<path d="M81.26 44.94L78.29 42.66C78.25 44.25 77.99 53.64 74.46 59.11L69.12 54.37C70.28 52.26 72.09 48.99 72.09 41.62V28.87H78.98C78.85 28.01 78.55 26.76 78.25 25.9H71.92V20.43H86.73V18.23H93.4V20.43H108.43V25.9H102.23C101.93 27.11 101.41 28.44 101.24 28.87H110.37V34.3H97.45V37.14H108.73V42.35H97.45V44.85H107.14V49.76H97.45V52.39H110.37V58.03H77.68V52.39H91.2V49.76H81.25V44.94H81.26ZM78.33 34.3V41.23C80.05 39.42 81.43 36.79 82.29 34.3H78.33ZM91.2 37.14V34.3H82.67L88.14 35.25C87.84 36.2 87.71 36.54 87.45 37.14H91.2ZM91.2 44.85V42.35H84.96C84.06 43.9 83.58 44.5 83.32 44.85H91.2ZM84.83 25.9C85.09 26.63 85.13 26.85 85.6 28.87H94.64C95.03 27.45 95.16 27.02 95.42 25.9H84.83Z" fill="white"/>
<path d="M134.74 24.15C134.64 24.93 134.54 25.58 134.2 27.18H148.06V30.69H133.22C132.81 32.09 132.4 32.9 132.06 33.62C133.39 33.04 134.31 32.63 136.01 32.63C138.97 32.63 140.47 33.82 141.46 36.58C144.8 35.18 147.79 34.37 149.63 33.86L150.48 37.67C148.91 38.01 146.33 38.62 142.14 40.12C142.31 41.69 142.31 43.42 142.24 46.45H138.43C138.53 45.56 138.57 45.05 138.57 43.9C138.57 42.95 138.54 42.27 138.5 41.65C136.97 42.4 132.88 44.41 132.88 46.93C132.88 49.82 136.73 49.82 139.99 49.82C140.43 49.82 143.87 49.82 148.5 49.45V53.13C145.95 53.23 143.09 53.3 140.53 53.3C136.82 53.3 133.31 53.23 130.96 51.36C130.31 50.85 128.81 49.42 128.81 47.07C128.81 43.6 132.18 41.15 138.04 38.08C137.7 37.02 137.19 36 135.38 36C132.35 36 129.35 38.72 128.3 40.26C126.19 43.36 125.95 43.7 124.35 45.6L121.56 42.71C125 39.34 127.69 35.25 129.25 30.69H122.41V27.18H130.24C130.55 25.61 130.61 24.83 130.68 23.84L134.74 24.15Z" fill="white"/>
<path d="M159.8 52.34C166.86 49.76 174.14 45.49 176.38 34.56H160.4V27.93H176.89V18.37H183.78V27.93H200.96V34.56H184.64C187.31 44.94 193.3 49.42 201.86 52.6L198.16 59.14C192.91 56.99 184.72 52.72 180.81 41.61C176.5 52.93 167.42 57.24 163.28 59.05L159.8 52.34Z" fill="white"/>
<path d="M218.65 54.41C219.73 53.85 221.06 53.16 222.74 51.87C222.18 52.04 221.62 52.13 221.15 52.13H216.33C214.22 52.13 212.5 50.75 212.5 47.82V36.5L209.36 37.1L209.19 30.64L212.51 30.04V18.45H218.93V28.83L226.25 27.5L226.55 33.92L218.93 35.34V44.94C218.93 45.46 218.93 45.72 219.7 45.72H220.91C221.64 45.72 221.86 44.94 222.12 39.65L227.12 40.77C226.9 44.04 226.3 47.57 225.61 49.43C229.57 45.47 231.51 41.59 231.64 26.26H224.92V19.84H248.95C248.95 41.37 248.95 53 246.58 56.96C245.76 58.29 243.95 59.2 242.1 59.2H234.48L233.23 52.74H238.66C239.91 52.74 240.56 52.65 241.03 51.1C242.41 46.75 242.36 29.74 242.32 26.25H238.14C237.88 42.1 236.46 51.57 223.33 59.75L218.65 54.41Z" fill="white"/>
<path d="M266.42 24.86C265.57 30.07 265.06 35.31 265.06 40.59C265.06 44.68 265.33 48.9 266.35 52.85L262.57 53.33C261.58 49.35 261.28 45.13 261.28 40.77C261.28 38.93 261.35 33.48 262.54 24.53L266.42 24.86ZM274.8 39.77C274.05 40.96 273.23 42.46 273.23 44.2C273.23 47.84 277.08 47.84 281.37 47.84C284.84 47.84 286.82 47.6 288.08 47.43V51.21C285.83 51.41 283.25 51.41 281.85 51.41C277.39 51.41 269.73 51.41 269.73 44.33C269.73 41.67 270.89 39.67 271.67 38.37L274.8 39.77ZM287.49 26.87V30.41H270.64V26.87H287.49Z" fill="white"/>
<path d="M42.8139 9.76001C45.5035 9.75243 47.6777 7.56144 47.6702 4.86629C47.6626 2.17114 45.476 -0.00756724 42.7864 5.67775e-06C40.0968 0.00757859 37.9226 2.19857 37.9302 4.89372C37.9377 7.58887 40.1243 9.76758 42.8139 9.76001Z" fill="#F4DD27"/>
<path d="M91.5441 9.75999C94.2337 9.75242 96.4079 7.56143 96.4003 4.86628C96.3928 2.17113 94.2062 -0.00758248 91.5166 -9.56577e-06C88.827 0.00756335 86.6528 2.19855 86.6603 4.8937C86.6679 7.58885 88.8545 9.76756 91.5441 9.75999Z" fill="#F4DD27"/>
<path d="M180.804 9.76007C183.494 9.75249 185.668 7.5615 185.661 4.86635C185.653 2.17121 183.467 -0.00750618 180.777 6.67282e-05C178.087 0.00763964 175.913 2.19863 175.921 4.89378C175.928 7.58893 178.115 9.76764 180.804 9.76007Z" fill="#F4DD27"/>
<path d="M231.155 9.76001C233.844 9.75243 236.019 7.56144 236.011 4.86629C236.003 2.17114 233.817 -0.00756722 231.127 5.69302e-06C228.438 0.00757861 226.263 2.19857 226.271 4.89372C226.279 7.58887 228.465 9.76758 231.155 9.76001Z" fill="#F4DD27"/>
<path d="M61.2154 80.5504C62.2261 80.5475 63.0431 79.7259 63.0402 78.7152C63.0374 77.7045 62.2158 76.8875 61.2051 76.8904C60.1944 76.8932 59.3774 77.7148 59.3802 78.7255C59.3831 79.7362 60.2047 80.5532 61.2154 80.5504Z" fill="#F4DD27"/>
<path d="M82.3055 80.5503C83.3162 80.5474 84.1332 79.7258 84.1304 78.7151C84.1275 77.7045 83.3059 76.8874 82.2952 76.8903C81.2845 76.8931 80.4675 77.7148 80.4704 78.7254C80.4732 79.7361 81.2948 80.5531 82.3055 80.5503Z" fill="#F4DD27"/>
<path d="M102.806 80.5504C103.816 80.5475 104.633 79.7259 104.63 78.7152C104.628 77.7045 103.806 76.8875 102.795 76.8904C101.785 76.8932 100.968 77.7148 100.97 78.7255C100.973 79.7362 101.795 80.5532 102.806 80.5504Z" fill="#F4DD27"/>
<path d="M68.5954 112.58C69.606 112.578 70.4231 111.756 70.4202 110.745C70.4174 109.735 69.5957 108.918 68.5851 108.92C67.5744 108.923 66.7574 109.745 66.7602 110.756C66.7631 111.766 67.5847 112.583 68.5954 112.58Z" fill="#F4DD27"/>
<path d="M89.6855 112.58C90.6961 112.578 91.5132 111.756 91.5103 110.745C91.5075 109.735 90.6858 108.918 89.6752 108.92C88.6645 108.923 87.8475 109.745 87.8503 110.756C87.8532 111.766 88.6748 112.583 89.6855 112.58Z" fill="#F4DD27"/>
<path d="M110.186 112.58C111.196 112.578 112.013 111.756 112.01 110.745C112.008 109.735 111.186 108.918 110.175 108.92C109.165 108.923 108.348 109.745 108.35 110.756C108.353 111.766 109.175 112.583 110.186 112.58Z" fill="#F4DD27"/>
<path d="M264.506 112.58C265.517 112.578 266.334 111.756 266.331 110.745C266.328 109.735 265.507 108.918 264.496 108.92C263.485 108.923 262.668 109.745 262.671 110.756C262.674 111.766 263.496 112.583 264.506 112.58Z" fill="#F4DD27"/>
<path d="M285.596 112.58C286.607 112.578 287.424 111.756 287.421 110.745C287.418 109.735 286.597 108.918 285.586 108.92C284.575 108.923 283.758 109.745 283.761 110.756C283.764 111.766 284.586 112.583 285.596 112.58Z" fill="#F4DD27"/>
<path d="M306.106 112.58C307.117 112.578 307.934 111.756 307.931 110.745C307.928 109.735 307.107 108.918 306.096 108.92C305.085 108.923 304.268 109.745 304.271 110.756C304.274 111.766 305.096 112.583 306.106 112.58Z" fill="#F4DD27"/>
<path d="M202.506 112.58C203.517 112.578 204.334 111.756 204.331 110.745C204.328 109.735 203.506 108.918 202.496 108.92C201.485 108.923 200.668 109.745 200.671 110.756C200.674 111.766 201.495 112.583 202.506 112.58Z" fill="#F4DD27"/>
<path d="M223.586 112.58C224.597 112.578 225.414 111.756 225.411 110.745C225.408 109.735 224.586 108.918 223.576 108.92C222.565 108.923 221.748 109.745 221.751 110.756C221.754 111.766 222.575 112.583 223.586 112.58Z" fill="#F4DD27"/>
<path d="M244.096 112.58C245.107 112.578 245.924 111.756 245.921 110.745C245.918 109.735 245.096 108.918 244.086 108.92C243.075 108.923 242.258 109.745 242.261 110.756C242.264 111.766 243.085 112.583 244.096 112.58Z" fill="#F4DD27"/>
<path d="M220.036 80.5503C221.047 80.5474 221.864 79.7258 221.861 78.7151C221.858 77.7045 221.036 76.8874 220.026 76.8903C219.015 76.8931 218.198 77.7148 218.201 78.7254C218.204 79.7361 219.025 80.5531 220.036 80.5503Z" fill="#F4DD27"/>
<path d="M241.126 80.5503C242.137 80.5475 242.954 79.7258 242.951 78.7152C242.948 77.7045 242.126 76.8875 241.116 76.8903C240.105 76.8932 239.288 77.7148 239.291 78.7255C239.294 79.7361 240.115 80.5532 241.126 80.5503Z" fill="#F4DD27"/>
</g>
<defs>
<clipPath id="clip0_651_161">
<rect width="315.73" height="134.54" fill="white"/>
</clipPath>
</defs>
</svg>
