<svg width="298" height="139" viewBox="0 0 298 139" fill="none" xmlns="http://www.w3.org/2000/svg">
<path d="M164.75 138.336H6.28961C3.14961 138.336 0.599609 135.786 0.599609 132.646V15.7061H170.44V132.646C170.44 135.786 167.9 138.336 164.75 138.336Z" fill="white"/>
<path d="M292.239 138.336H182.409C179.269 138.336 176.719 135.786 176.719 132.646V14.376H297.929V132.646C297.929 135.786 295.379 138.336 292.239 138.336Z" fill="white"/>
<path d="M97.8696 50.4462V41.7162H97.8396L96.0396 42.6662L95.5996 41.1862L98.1496 39.8662H99.8696V50.4462H97.8696Z" fill="#27456A"/>
<path d="M106.61 45.8461C106.17 46.3461 105.51 46.6761 104.64 46.6761C103.02 46.6761 101.74 45.4261 101.74 43.4561C101.74 41.4861 103.1 39.7061 105.24 39.7061C107.53 39.7061 108.71 41.6361 108.71 44.1661C108.71 47.8361 106.82 50.7861 102.61 50.5861V48.9661C102.93 48.9961 103.14 48.9661 103.62 48.9261C105.35 48.7461 106.35 47.4661 106.66 45.8661L106.61 45.8461ZM103.78 43.2661C103.78 44.5161 104.36 45.2661 105.2 45.2661C105.82 45.2661 106.3 44.8761 106.52 44.4661C106.6 44.3161 106.63 44.1061 106.63 43.6961C106.63 42.2861 106.16 41.1661 105.17 41.1661C104.33 41.1761 103.78 42.0661 103.78 43.2661Z" fill="#27456A"/>
<path d="M115.63 50.4462H113.73V47.8262H109.5V46.4862L113.31 39.8662H115.63V46.2562H116.84V47.8262H115.63V50.4462ZM111.33 46.2662H113.73V43.6362C113.73 43.0162 113.77 42.3462 113.81 41.7162H113.75C113.43 42.3862 113.18 42.9762 112.86 43.5762L111.32 46.2362V46.2662H111.33Z" fill="#27456A"/>
<path d="M121.539 40.9363C121.499 41.0163 121.409 41.0763 121.249 41.0563C120.989 41.7263 120.689 42.3963 120.359 43.0463L120.739 43.1463C120.719 43.2363 120.649 43.3163 120.469 43.3263V50.2563H119.269V44.8963C118.979 45.3263 118.679 45.7163 118.369 46.0663C118.259 45.7563 117.959 45.1063 117.779 44.8063C118.689 43.8363 119.609 42.1163 120.159 40.4463L121.539 40.9363ZM127.809 45.6663V46.8663H125.059V50.2663H123.799V46.8663H120.939V45.6663H123.799V43.6763H122.349C122.129 44.1963 121.889 44.6663 121.649 45.0563C121.409 44.8663 120.959 44.5963 120.669 44.4563C121.229 43.6363 121.729 42.2163 122.009 40.9163L123.379 41.2763C123.349 41.3763 123.219 41.4163 123.109 41.3963C123.019 41.7463 122.909 42.1263 122.789 42.4863H123.789V40.5563L125.329 40.6363C125.319 40.7363 125.239 40.8163 125.049 40.8363V42.4863H127.449V43.6763H125.049V45.6663H127.809Z" fill="#27456A"/>
<path d="M85.06 70.1961H78.5V68.9261L79.67 67.6661C81.65 65.5961 82.82 64.2361 82.82 62.8061C82.82 61.8861 82.33 61.1161 81.18 61.1161C80.42 61.1161 79.71 61.5261 79.22 61.8861L78.65 60.4061C79.3 59.9061 80.38 59.4561 81.59 59.4561C83.84 59.4561 84.86 60.8961 84.86 62.6161C84.86 64.4961 83.6 66.0261 82.07 67.5861L81.2 68.4561V68.4861H85.06V70.1961Z" fill="#27456A"/>
<path d="M86.5901 59.6162H93.1201V60.9062L89.1501 70.1962H87.0401L91.0201 61.3562V61.3262H86.5801V59.6162H86.5901Z" fill="#27456A"/>
<path d="M97.6408 60.6863C97.6008 60.7663 97.5109 60.8263 97.3509 60.8063C97.0909 61.4763 96.7908 62.1463 96.4608 62.7963L96.8409 62.8963C96.8209 62.9863 96.7508 63.0663 96.5708 63.0763V70.0063H95.3708V64.6463C95.0808 65.0763 94.7809 65.4663 94.4709 65.8163C94.3609 65.5063 94.0609 64.8563 93.8809 64.5563C94.7909 63.5863 95.7108 61.8663 96.2608 60.1963L97.6408 60.6863ZM103.911 65.4163V66.6163H101.161V70.0163H99.9008V66.6163H97.0408V65.4163H99.9008V63.4263H98.4508C98.2308 63.9463 97.9909 64.4163 97.7509 64.8063C97.5109 64.6163 97.0608 64.3463 96.7708 64.2063C97.3308 63.3863 97.8308 61.9663 98.1108 60.6663L99.4808 61.0263C99.4508 61.1263 99.3208 61.1663 99.2108 61.1463C99.1208 61.4963 99.0108 61.8763 98.8908 62.2363H99.8908V60.3063L101.431 60.3863C101.421 60.4863 101.341 60.5663 101.151 60.5863V62.2363H103.551V63.4263H101.151V65.4163H103.911Z" fill="#27456A"/>
<path d="M63.9498 83.9161C64.4098 83.3561 65.1298 82.9761 66.0298 82.9761C67.6498 82.9761 68.8998 84.2261 68.8998 86.3361C68.8998 88.3361 67.6098 90.0961 65.4898 90.0961C63.1198 90.0961 61.8398 88.1761 61.8398 85.5861C61.8398 83.1661 62.9198 79.2061 67.9198 79.2061V80.7961C67.6598 80.7961 67.3698 80.8261 67.0198 80.8661C65.0898 81.1361 64.1799 82.5061 63.9099 83.9061H63.9498V83.9161ZM66.8598 86.4361C66.8598 85.3261 66.3299 84.4261 65.3799 84.4261C64.7699 84.4261 63.8799 84.9561 63.8799 86.1461C63.9099 87.5161 64.4598 88.606 65.4698 88.606C66.3698 88.606 66.8598 87.6261 66.8598 86.4361Z" fill="#27456A"/>
<path d="M73.1799 80.4265C73.1399 80.5065 73.0499 80.5665 72.8899 80.5465C72.6299 81.2165 72.3299 81.8865 71.9999 82.5365L72.3799 82.6365C72.3599 82.7265 72.2899 82.8065 72.1099 82.8165V89.7465H70.9099V84.3865C70.6199 84.8165 70.3199 85.2065 70.0099 85.5565C69.8999 85.2465 69.5999 84.5965 69.4199 84.2965C70.3299 83.3265 71.2499 81.6065 71.7999 79.9365L73.1799 80.4265ZM79.4499 85.1665V86.3665H76.6999V89.7665H75.4399V86.3665H72.5799V85.1665H75.4399V83.1765H73.9899C73.7699 83.6965 73.5299 84.1665 73.2899 84.5565C73.0499 84.3665 72.5999 84.0965 72.3099 83.9565C72.8699 83.1365 73.3699 81.7165 73.6499 80.4165L75.0199 80.7765C74.9899 80.8765 74.8599 80.9165 74.7499 80.8965C74.6599 81.2465 74.5499 81.6265 74.4299 81.9865H75.4299V80.0565L76.9699 80.1365C76.9599 80.2365 76.8799 80.3165 76.6899 80.3365V81.9865H79.0899V83.1765H76.6899V85.1665H79.4499Z" fill="#27456A"/>
<path d="M44.9395 104.836C44.9395 101.616 46.1195 99.3555 48.4795 99.3555C50.9495 99.3555 51.9095 101.815 51.9095 104.755C51.9095 108.255 50.6195 110.255 48.4095 110.255C45.9695 110.255 44.9395 107.786 44.9395 104.836ZM48.4295 108.615C49.3695 108.615 49.8495 107.275 49.8495 104.795C49.8495 102.405 49.4195 100.985 48.4495 100.985C47.5595 100.985 46.9895 102.275 46.9895 104.795C46.9895 107.295 47.4995 108.615 48.4195 108.615H48.4295Z" fill="#27456A"/>
<path d="M56.2493 100.586C56.2093 100.666 56.1193 100.726 55.9593 100.706C55.6993 101.376 55.3992 102.046 55.0692 102.696L55.4492 102.796C55.4292 102.886 55.3593 102.966 55.1793 102.976V109.906H53.9792V104.546C53.6892 104.976 53.3893 105.366 53.0793 105.716C52.9693 105.406 52.6693 104.756 52.4893 104.456C53.3993 103.486 54.3193 101.766 54.8693 100.096L56.2493 100.586ZM62.5193 105.316V106.516H59.7693V109.916H58.5092V106.516H55.6493V105.316H58.5092V103.326H57.0593C56.8393 103.846 56.5993 104.316 56.3593 104.706C56.1193 104.516 55.6693 104.246 55.3793 104.106C55.9393 103.286 56.4393 101.866 56.7193 100.566L58.0893 100.926C58.0593 101.026 57.9292 101.066 57.8192 101.046C57.7292 101.396 57.6193 101.776 57.4993 102.136H58.4993V100.206L60.0392 100.286C60.0292 100.386 59.9492 100.466 59.7592 100.486V102.136H62.1593V103.326H59.7592V105.316H62.5193Z" fill="#27456A"/>
<path d="M31.3696 129.036V120.306H31.3396L29.5396 121.256L29.0996 119.776L31.6496 118.456H33.3696V129.036H31.3696Z" fill="#27456A"/>
<path d="M39.7297 119.526C39.6897 119.606 39.5997 119.666 39.4397 119.646C39.1797 120.316 38.8797 120.986 38.5497 121.636L38.9297 121.736C38.9097 121.826 38.8397 121.906 38.6597 121.916V128.846H37.4597V123.486C37.1697 123.916 36.8697 124.306 36.5597 124.656C36.4497 124.346 36.1497 123.696 35.9697 123.396C36.8797 122.426 37.7997 120.706 38.3497 119.036L39.7297 119.526ZM45.9997 124.256V125.456H43.2497V128.856H41.9897V125.456H39.1297V124.256H41.9897V122.266H40.5397C40.3197 122.786 40.0797 123.256 39.8397 123.646C39.5997 123.456 39.1497 123.186 38.8597 123.046C39.4197 122.226 39.9197 120.806 40.1997 119.506L41.5697 119.866C41.5397 119.966 41.4097 120.006 41.2997 119.986C41.2097 120.336 41.0997 120.716 40.9797 121.076H41.9797V119.146L43.5197 119.226C43.5097 119.326 43.4297 119.406 43.2397 119.426V121.076H45.6397V122.266H43.2397V124.256H45.9997Z" fill="#27456A"/>
<path d="M160.31 28.1457H10.7396C5.13961 28.1457 0.599609 23.6057 0.599609 18.0057V10.7357C0.599609 5.13569 5.13961 0.595703 10.7396 0.595703H160.31C165.91 0.595703 170.45 5.13569 170.45 10.7357V18.0057C170.44 23.6057 165.91 28.1457 160.31 28.1457Z" fill="#27456A"/>
<path d="M16.7393 11.3453C16.3593 11.1453 15.6993 10.8853 14.8093 10.8853C13.7093 10.8853 13.2193 11.4753 13.2193 12.0853C13.2193 12.8553 13.7593 13.2153 15.0793 13.8153C16.8093 14.5853 17.5893 15.5853 17.5893 17.0153C17.5893 18.9053 16.1693 20.2853 13.6493 20.2853C12.5793 20.2853 11.4893 19.9853 10.9893 19.6753L11.3993 17.9253C11.9593 18.2653 12.8593 18.5353 13.7393 18.5353C14.8893 18.5353 15.4993 17.9853 15.4993 17.1853C15.4993 16.4153 14.9793 15.9453 13.7793 15.4253C12.1493 14.7253 11.1293 13.7053 11.1293 12.2953C11.1293 10.5253 12.5193 9.15527 14.8593 9.15527C15.8893 9.15527 16.6793 9.39526 17.1793 9.64526L16.7393 11.3453Z" fill="white"/>
<path d="M27.1989 15.6459C27.1989 18.8159 25.6889 20.2959 23.2389 20.2959C20.7989 20.2959 19.4189 18.8459 19.4189 15.6659V9.2959H21.4989V15.8459C21.4989 17.7459 22.2189 18.5759 23.2889 18.5759C24.4189 18.5759 25.1089 17.7759 25.1089 15.8459V9.2959H27.1889V15.6459H27.1989Z" fill="white"/>
<path d="M37.3093 15.6459C37.3093 18.8159 35.7993 20.2959 33.3493 20.2959C30.9093 20.2959 29.5293 18.8459 29.5293 15.6659V9.2959H31.6093V15.8459C31.6093 17.7459 32.3293 18.5759 33.3993 18.5759C34.5293 18.5759 35.2193 17.7759 35.2193 15.8459V9.2959H37.2993V15.6459H37.3093Z" fill="white"/>
<path d="M50.1489 20.1357H48.1589L47.9589 15.9257C47.8989 14.4857 47.8289 13.0257 47.8489 11.6557H47.8089C47.4989 12.9557 47.1089 14.3857 46.7389 15.5957L45.4189 19.9757H43.8389L42.6389 15.6657C42.2889 14.4357 41.9489 12.9757 41.6989 11.6557H41.6589C41.6289 13.0257 41.5589 14.6257 41.4889 15.9657L41.2789 20.1357H39.3789L40.1089 9.30566H42.6889L43.8589 13.3757C44.2089 14.6857 44.5189 15.9557 44.7589 17.1957H44.7989C45.0489 15.9857 45.3789 14.6757 45.7389 13.3757L46.9689 9.30566H49.5289L50.1489 20.1357Z" fill="white"/>
<path d="M60.799 14.5857C60.799 18.3557 58.879 20.2857 56.189 20.2857C53.329 20.2857 51.709 17.8957 51.709 14.7557C51.709 11.5157 53.499 9.13574 56.329 9.13574C59.339 9.13574 60.799 11.6957 60.799 14.5857ZM53.899 14.7157C53.899 16.8457 54.729 18.5857 56.269 18.5857C57.819 18.5857 58.619 16.8557 58.619 14.6657C58.619 12.6757 57.869 10.8357 56.279 10.8357C54.649 10.8357 53.899 12.7257 53.899 14.7157Z" fill="white"/>
<path d="M75.3192 14.5153H71.3592C71.2992 14.6253 71.1892 14.6753 70.9692 14.6753L70.5592 15.5353H75.1492V16.9553H73.6392C73.3692 17.7753 73.0292 18.4453 72.5992 18.9953C73.5192 19.4053 74.3592 19.8253 74.9492 20.2253L73.8192 21.4753C73.2292 21.0353 72.3292 20.5453 71.3392 20.0953C70.2692 20.7453 68.8192 21.1553 66.7992 21.4353C66.6892 20.9753 66.4092 20.3753 66.1792 20.0553C67.6292 19.9453 68.7592 19.7353 69.6292 19.3653C69.3392 19.2653 69.0492 19.1553 68.7892 19.0553L68.6592 19.2853L67.2092 18.8253C67.4892 18.3053 67.8192 17.6553 68.1492 16.9653H66.5692V15.9353L65.3892 16.2753V19.5953C65.3892 21.1353 64.8292 21.4553 62.6692 21.4553C62.6292 21.0053 62.4192 20.2853 62.2092 19.8353C62.4892 19.8353 62.7692 19.8453 63.0092 19.8453C63.7592 19.8453 63.7792 19.8453 63.7792 19.5753V16.7053L62.5692 17.0453C62.5392 17.1853 62.4292 17.2553 62.2992 17.2853L61.9092 15.4153C62.4292 15.3153 63.0792 15.1853 63.7792 15.0353V12.4553H62.0892V10.8953H63.7792V8.16528L65.7492 8.26526C65.7392 8.40526 65.6392 8.49528 65.3792 8.53528V10.9053H66.7992V12.4653H65.3792V14.7053L66.3492 14.4753V13.0953H68.4592C68.4192 12.5853 68.2592 11.8253 68.0692 11.2653L69.4592 10.9853H66.9792V9.56528H69.9392V8.15527L72.0192 8.26526C72.0092 8.40526 71.9092 8.49528 71.6392 8.53528V9.56528H74.7992V10.9853H72.7192L73.9292 11.2353C73.8892 11.3453 73.7692 11.4053 73.5792 11.4153C73.3992 11.9053 73.1292 12.5653 72.8792 13.0953H75.2992V14.5153H75.3192ZM66.8992 15.5253H68.8192L69.2592 14.5153H66.7992L66.8992 15.5253ZM71.4592 12.9053C71.6692 12.3453 71.8992 11.5653 72.0392 10.9653H69.5592C69.7892 11.5753 69.9992 12.3453 70.0192 12.8553L68.9492 13.0853H72.0792L71.4592 12.9053ZM69.8792 16.9553C69.7192 17.2553 69.5792 17.5453 69.4292 17.8253C69.9492 17.9753 70.5092 18.1753 71.0892 18.3853C71.4392 17.9953 71.7092 17.5253 71.8892 16.9453H69.8792V16.9553Z" fill="white"/>
<path d="M86.0001 11.6657L87.2401 12.3457C87.2001 12.4457 87.1001 12.4857 87.0001 12.5257C86.4101 13.4657 85.6101 14.2857 84.6501 14.9857C86.1301 15.5057 87.8501 15.8557 89.6801 16.0457C89.3101 16.4357 88.8401 17.1957 88.6101 17.6757C88.1201 17.6057 87.6401 17.5257 87.1601 17.4357V21.3957H85.4101V20.9757H80.6601V21.4257H79.0101V17.5257C78.3901 17.6957 77.7601 17.8357 77.1201 17.9657C76.9801 17.5457 76.6101 16.8357 76.3301 16.4757C78.0601 16.2057 79.8101 15.7457 81.3301 15.0857C80.8701 14.7657 80.4401 14.3957 80.0501 14.0157C79.5301 14.3357 78.9501 14.6657 78.3201 14.9557C78.0801 14.5657 77.5601 13.9657 77.1901 13.7057C79.0301 13.0057 80.2901 12.0457 81.0301 11.0557H78.6601V12.6157H77.0101V9.51572H82.0801V8.13574L84.2101 8.24573C84.2001 8.38573 84.1001 8.47572 83.8301 8.51572V9.51572H89.0101V12.6157H87.2801V11.0557H82.6001L83.2201 11.1657C83.1801 11.3057 83.0501 11.3957 82.8401 11.3957C82.7601 11.5257 82.6601 11.6357 82.5601 11.7657H85.7001L86.0001 11.6657ZM80.6601 19.5957H85.4101V18.3857H80.6601V19.5957ZM85.3701 16.9957C84.5101 16.7257 83.6901 16.4157 82.9501 16.0357C82.2601 16.4057 81.5101 16.7157 80.7501 16.9957H85.3701ZM81.3501 13.0257L81.2801 13.0857C81.7401 13.5257 82.3101 13.9057 82.9601 14.2557C83.5701 13.8857 84.0901 13.4857 84.5401 13.0257H81.3501Z" fill="white"/>
<path d="M96.2885 10.4859V11.8259H90.7285V10.4859H96.2885ZM95.7685 16.3759V20.6859H92.7985V21.2359H91.3585V16.3759H95.7685ZM91.3985 13.756V12.476H95.7785V13.756H91.3985ZM91.3985 15.6859V14.416H95.7785V15.6859H91.3985ZM95.7485 8.58594V9.86594H91.4585V8.58594H95.7485ZM94.2985 17.7159H92.7885V19.3459H94.2985V17.7159ZM104.019 15.166V16.7759H100.869V21.4359H99.2085V16.7759H96.0685V15.166H99.2085V10.416H96.5785V8.83594H103.759V10.416H100.869V15.166H104.019ZM97.2585 14.6859C97.2285 13.7859 96.9785 12.4059 96.6785 11.3459L98.0285 11.0459C98.3485 12.1059 98.6185 13.4559 98.6885 14.3559L97.2585 14.6859ZM103.849 11.4059C103.809 11.5059 103.679 11.5759 103.479 11.5759C103.269 12.5459 102.859 13.8759 102.539 14.7159C102.129 14.5859 101.669 14.4359 101.259 14.3259C101.569 13.4059 101.919 11.9759 102.079 10.9359L103.849 11.4059Z" fill="white"/>
<path d="M106.51 14.4955C106.2 14.9855 105.88 15.4555 105.54 15.8655C105.41 15.4455 105.05 14.4955 104.84 14.0755C105.91 12.7555 106.98 10.4455 107.63 8.18555L109.47 8.79553C109.41 8.92553 109.29 8.97555 109.08 8.96555C108.78 9.83555 108.45 10.7255 108.07 11.5855L108.49 11.7155C108.46 11.8455 108.35 11.9255 108.12 11.9655V21.4555H106.51V14.4955ZM118.36 10.8055H115.67V13.0755H118.13V21.1555H116.5V20.5356H110.7V21.2355H109.14V13.0656H111.51V10.7955H108.99V9.25555H118.37V10.8055H118.36ZM110.7 14.5555V19.0956H111.66V14.5555H110.7ZM114.07 14.5555H113.08V19.0956H114.07V14.5555ZM114.07 13.0755V10.8055H113.1V13.0755H114.07ZM116.51 19.0956V14.5555H115.5V19.0956H116.51Z" fill="white"/>
<path d="M120.269 12.1055C121.129 12.3855 122.269 12.9055 122.849 13.3555L121.909 14.7755C121.389 14.3255 120.259 13.7355 119.369 13.3855L120.269 12.1055ZM119.739 20.2655C120.389 19.1655 121.299 17.3755 122.019 15.7155L123.359 16.7255C122.739 18.2155 122.009 19.7855 121.399 20.8755C121.479 20.9755 121.509 21.0755 121.509 21.1755C121.509 21.2455 121.499 21.3155 121.449 21.3755L119.739 20.2655ZM132.689 13.7355H128.629V14.5855H132.189V19.7855C132.189 21.3355 131.469 21.4155 129.499 21.4155C129.459 21.0455 129.349 20.5555 129.189 20.1655H129.059V19.6555H126.569V20.2755H125.569V16.5255L126.849 16.6055C126.839 16.7055 126.769 16.7755 126.569 16.8055V18.4255H127.189V16.0855H125.049V21.4255H123.559V14.5855H127.009V13.7355H123.049V12.2155H125.299V11.0355H123.469V9.78552L122.429 11.1055C121.949 10.5955 120.889 9.89552 120.049 9.47552L121.039 8.2655C121.869 8.6455 122.939 9.26552 123.479 9.75552V9.52551H125.309V8.14551L127.269 8.24551C127.259 8.38551 127.139 8.47551 126.899 8.49551V9.52551H128.799V8.14551L130.799 8.24551C130.789 8.38551 130.669 8.4755 130.429 8.5155V9.52551H132.259V11.0355H130.429V12.2155H132.679V13.7355H132.689ZM126.909 11.0355V12.2155H128.809V11.0355H126.909ZM130.049 19.9755C130.569 19.9755 130.629 19.9455 130.629 19.7655V16.0855H128.449V18.4255H129.079V16.5255L130.349 16.6055C130.339 16.7055 130.249 16.7755 130.049 16.8055V19.9755Z" fill="white"/>
<path d="M141.43 17.2058V19.5158C142.28 19.6558 143.01 19.6659 144.49 19.6659C145.38 19.6659 146.59 19.6659 147.14 19.6559C146.92 20.0359 146.65 20.8259 146.56 21.2859H143.55C140.69 21.2859 138.48 20.7758 137 18.5858C136.54 19.6958 135.87 20.7259 134.99 21.4459C134.71 21.1059 134.12 20.5458 133.77 20.2958C135.35 19.0658 135.99 16.7358 136.22 14.7758L138.29 15.0959C138.26 15.2259 138.15 15.3058 137.94 15.3258C137.87 15.7658 137.77 16.2159 137.65 16.6959C138.13 17.8059 138.83 18.5159 139.71 18.9659V14.1259H135.63V8.75586H145.64V14.1259H141.46V15.6659H146.09V17.2259H141.43V17.2058ZM137.29 10.3558V12.4958H143.81V10.3558H137.29Z" fill="white"/>
<path d="M150.919 10.9755V13.4555C150.919 15.7555 150.709 19.2455 149.409 21.4455C149.129 21.1655 148.409 20.6855 148.029 20.5155C149.209 18.5055 149.299 15.5455 149.299 13.4555V9.46552H154.369V8.14551L156.509 8.25552C156.499 8.39552 156.399 8.48552 156.129 8.53552V9.46552H161.309V10.9755H150.919ZM159.369 16.1655L160.479 16.6555C160.439 16.7555 160.379 16.7955 160.309 16.8555C159.749 17.9155 158.939 18.7555 157.959 19.4155C158.999 19.7155 160.189 19.9055 161.469 20.0255C161.119 20.3755 160.679 21.0355 160.469 21.4755C158.839 21.2755 157.389 20.9155 156.129 20.3455C154.749 20.9055 153.139 21.2655 151.439 21.4755C151.309 21.0555 150.999 20.4155 150.739 20.0555C152.059 19.9455 153.329 19.7355 154.469 19.3955C153.839 18.9455 153.299 18.4255 152.839 17.8155L153.629 17.5355H151.389V16.2155H159.089L159.369 16.1655ZM159.029 15.5555H153.229V13.4255H151.309V12.1155H153.229V11.0855L155.199 11.1955C155.189 11.3355 155.089 11.4255 154.829 11.4655V12.1155H157.369V11.0855L159.399 11.1955C159.389 11.3355 159.289 11.4255 159.029 11.4655V12.1155H161.229V13.4255H159.029V15.5555ZM154.499 17.5255C154.939 17.9855 155.499 18.3955 156.179 18.7355C156.859 18.3955 157.429 18.0055 157.899 17.5255H154.499ZM157.369 13.4255H154.829V14.3155H157.369V13.4255Z" fill="white"/>
<path d="M287.789 28.1457H186.849C181.249 28.1457 176.709 23.6057 176.709 18.0057V10.7357C176.709 5.13569 181.249 0.595703 186.849 0.595703H287.789C293.389 0.595703 297.929 5.13569 297.929 10.7357V18.0057C297.929 23.6057 293.389 28.1457 287.789 28.1457Z" fill="#27456A"/>
<path d="M193.519 12.1448C193.479 12.7048 193.449 13.3948 193.449 14.4848V18.9048C193.449 20.4448 193.309 23.2849 189.489 23.2849C188.569 23.2849 187.629 23.1048 187.009 22.7448L187.419 21.1548C187.879 21.4048 188.619 21.6649 189.449 21.6649C190.619 21.6649 191.389 21.0048 191.389 19.4948V18.9149H191.359C190.969 19.5349 190.259 19.9149 189.399 19.9149C187.539 19.9149 186.369 18.2348 186.369 16.0948C186.369 13.5048 187.879 11.9648 189.609 11.9648C190.599 11.9648 191.229 12.4448 191.579 13.0648H191.609L191.689 12.1349H193.519V12.1448ZM191.359 15.1848C191.359 14.1848 190.749 13.6048 190.049 13.6048C189.109 13.6048 188.469 14.5648 188.469 16.0448C188.469 17.4148 189.049 18.3448 190.029 18.3448C190.509 18.3448 191.349 18.0348 191.349 16.7148V15.1848H191.359Z" fill="white"/>
<path d="M202.448 15.9948C202.448 18.9848 200.528 20.1349 198.788 20.1349C196.678 20.1349 195.158 18.6448 195.158 16.0948C195.158 13.4648 196.748 11.9648 198.878 11.9648C201.068 11.9648 202.448 13.6148 202.448 15.9948ZM198.838 13.4948C197.678 13.4948 197.278 14.8448 197.278 16.0448C197.278 17.4348 197.818 18.5948 198.828 18.5948C199.818 18.5948 200.348 17.4249 200.348 16.0349C200.338 14.8049 199.908 13.4948 198.838 13.4948Z" fill="white"/>
<path d="M211.079 15.9948C211.079 18.9848 209.159 20.1349 207.419 20.1349C205.309 20.1349 203.789 18.6448 203.789 16.0948C203.789 13.4648 205.379 11.9648 207.509 11.9648C209.699 11.9648 211.079 13.6148 211.079 15.9948ZM207.459 13.4948C206.299 13.4948 205.899 14.8448 205.899 16.0448C205.899 17.4348 206.439 18.5948 207.449 18.5948C208.439 18.5948 208.969 17.4249 208.969 16.0349C208.969 14.8049 208.529 13.4948 207.459 13.4948Z" fill="white"/>
<path d="M219.589 12.1448C219.549 12.7048 219.519 13.3948 219.519 14.4848V18.9048C219.519 20.4448 219.379 23.2849 215.559 23.2849C214.639 23.2849 213.699 23.1048 213.079 22.7448L213.489 21.1548C213.949 21.4048 214.689 21.6649 215.519 21.6649C216.689 21.6649 217.459 21.0048 217.459 19.4948V18.9149H217.429C217.039 19.5349 216.329 19.9149 215.469 19.9149C213.609 19.9149 212.439 18.2348 212.439 16.0948C212.439 13.5048 213.949 11.9648 215.679 11.9648C216.669 11.9648 217.299 12.4448 217.649 13.0648H217.679L217.759 12.1349H219.589V12.1448ZM217.429 15.1848C217.429 14.1848 216.819 13.6048 216.119 13.6048C215.179 13.6048 214.539 14.5648 214.539 16.0448C214.539 17.4148 215.119 18.3448 216.099 18.3448C216.579 18.3448 217.419 18.0348 217.419 16.7148V15.1848H217.429Z" fill="white"/>
<path d="M223.76 19.9753H221.68V8.65527H223.76V19.9753Z" fill="white"/>
<path d="M231.83 19.6651C231.18 19.9451 230.27 20.1151 229.3 20.1151C226.88 20.1151 225.5 18.5951 225.5 16.1551C225.5 13.9051 226.79 11.9551 229.09 11.9551C230.99 11.9551 232.23 13.3051 232.23 15.8451C232.23 16.1551 232.22 16.4551 232.17 16.6751H227.48C227.54 18.0151 228.49 18.5451 229.62 18.5451C230.39 18.5451 231 18.4051 231.54 18.2251L231.83 19.6651ZM230.3 15.2351C230.31 14.4151 229.99 13.4151 228.96 13.4151C227.96 13.4151 227.54 14.4551 227.48 15.2351H230.3Z" fill="white"/>
<path d="M241.289 11.3253C241.229 11.4553 241.059 11.5654 240.869 11.5654C240.289 16.3854 238.879 19.1754 236.459 19.1754C234.919 19.1754 233.809 17.8754 233.809 15.4854C233.809 11.8754 236.679 9.23535 240.269 9.23535C244.259 9.23535 246.299 11.6054 246.299 14.6554C246.299 17.9654 244.599 19.6854 241.049 20.5854C240.779 20.1654 240.389 19.5754 239.919 19.0954C243.129 18.4654 244.409 16.9254 244.409 14.6854C244.409 12.4154 242.829 10.8854 240.239 10.8854C239.989 10.8854 239.759 10.9154 239.519 10.9454L241.289 11.3253ZM239.049 11.0453C236.909 11.5553 235.539 13.3954 235.539 15.4154C235.539 16.5954 235.889 17.4254 236.509 17.4254C237.899 17.4254 238.809 14.3453 239.049 11.0453Z" fill="white"/>
<path d="M248.789 9.24512H260.229V21.1051H258.389V19.9351H250.559V21.1151H248.799V9.24512H248.789ZM250.549 18.2051H258.379V10.9651H250.549V18.2051Z" fill="white"/>
<path d="M273.64 10.3049V20.0949H271.8V19.3749H263.6V17.6949H271.8V11.9749H263.72V10.2949H273.64V10.3049Z" fill="white"/>
<path d="M278.848 16.9653C281.778 17.3153 285.198 18.0653 287.598 18.9353L286.808 20.7353C284.738 19.9153 281.118 18.9753 278.148 18.5953L278.848 16.9653ZM279.868 8.65527C282.248 8.89527 285.498 9.52527 287.348 10.2153L286.598 12.0053C284.598 11.2053 281.638 10.6153 279.248 10.3253L279.868 8.65527ZM279.898 12.8353C282.008 13.0353 284.928 13.6853 286.628 14.2853L286.038 16.0553C284.458 15.4053 281.548 14.7453 279.308 14.4953L279.898 12.8353Z" fill="white"/>
<path d="M16.6792 37.5156L19.0092 42.2256L24.1992 42.9756L20.4392 46.6456L21.3292 51.8156L16.6792 49.3756L12.0392 51.8156L12.9192 46.6456L9.15918 42.9756L14.3592 42.2256L16.6792 37.5156Z" fill="#F4D628"/>
<path d="M33.3696 37.5156L35.6896 42.2256L40.8896 42.9756L37.1296 46.6456L38.0096 51.8156L33.3696 49.3756L28.7196 51.8156L29.6096 46.6456L25.8496 42.9756L31.0396 42.2256L33.3696 37.5156Z" fill="#F4D628"/>
<path d="M50.0493 37.5156L52.3693 42.2256L57.5693 42.9756L53.8093 46.6456L54.6993 51.8156L50.0493 49.3756L45.3993 51.8156L46.2893 46.6456L42.5293 42.9756L47.7193 42.2256L50.0493 37.5156Z" fill="#F4D628"/>
<path d="M66.729 37.5156L69.049 42.2256L74.249 42.9756L70.489 46.6456L71.379 51.8156L66.729 49.3756L62.079 51.8156L62.969 46.6456L59.209 42.9756L64.409 42.2256L66.729 37.5156Z" fill="#F4D628"/>
<path d="M83.4087 37.5156L85.7387 42.2256L90.9287 42.9756L87.1687 46.6456L88.0587 51.8156L83.4087 49.3756L78.7587 51.8156L79.6487 46.6456L75.8887 42.9756L81.0887 42.2256L83.4087 37.5156Z" fill="#F4D628"/>
<path d="M16.6792 57.1152L19.0092 61.8252L24.1992 62.5752L20.4392 66.2452L21.3292 71.4153L16.6792 68.9753L12.0392 71.4153L12.9192 66.2452L9.15918 62.5752L14.3592 61.8252L16.6792 57.1152Z" fill="#F4D628"/>
<path d="M33.3696 57.1152L35.6896 61.8252L40.8896 62.5752L37.1296 66.2452L38.0096 71.4153L33.3696 68.9753L28.7196 71.4153L29.6096 66.2452L25.8496 62.5752L31.0396 61.8252L33.3696 57.1152Z" fill="#F4D628"/>
<path d="M50.0493 57.1152L52.3693 61.8252L57.5693 62.5752L53.8093 66.2452L54.6993 71.4153L50.0493 68.9753L45.3993 71.4153L46.2893 66.2452L42.5293 62.5752L47.7193 61.8252L50.0493 57.1152Z" fill="#F4D628"/>
<path d="M66.729 57.1152L69.049 61.8252L74.249 62.5752L70.489 66.2452L71.379 71.4153L66.729 68.9753L62.079 71.4153L62.969 66.2452L59.209 62.5752L64.409 61.8252L66.729 57.1152Z" fill="#F4D628"/>
<path d="M16.6792 76.7158L19.0092 81.4258L24.1992 82.1758L20.4392 85.8458L21.3292 91.0158L16.6792 88.5758L12.0392 91.0158L12.9192 85.8458L9.15918 82.1758L14.3592 81.4258L16.6792 76.7158Z" fill="#F4D628"/>
<path d="M33.3696 76.7158L35.6896 81.4258L40.8896 82.1758L37.1296 85.8458L38.0096 91.0158L33.3696 88.5758L28.7196 91.0158L29.6096 85.8458L25.8496 82.1758L31.0396 81.4258L33.3696 76.7158Z" fill="#F4D628"/>
<path d="M50.0493 76.7158L52.3693 81.4258L57.5693 82.1758L53.8093 85.8458L54.6993 91.0158L50.0493 88.5758L45.3993 91.0158L46.2893 85.8458L42.5293 82.1758L47.7193 81.4258L50.0493 76.7158Z" fill="#F4D628"/>
<path d="M16.6792 96.3154L19.0092 101.025L24.1992 101.775L20.4392 105.445L21.3292 110.625L16.6792 108.175L12.0392 110.625L12.9192 105.445L9.15918 101.775L14.3592 101.025L16.6792 96.3154Z" fill="#F4D628"/>
<path d="M33.3696 96.3154L35.6896 101.025L40.8896 101.775L37.1296 105.445L38.0096 110.625L33.3696 108.175L28.7196 110.625L29.6096 105.445L25.8496 101.775L31.0396 101.025L33.3696 96.3154Z" fill="#F4D628"/>
<path d="M16.6792 115.916L19.0092 120.626L24.1992 121.386L20.4392 125.046L21.3292 130.226L16.6792 127.776L12.0392 130.226L12.9192 125.046L9.15918 121.386L14.3592 120.626L16.6792 115.916Z" fill="#F4D628"/>
<path d="M15.8598 36.416L18.1898 41.126L23.3798 41.886L19.6198 45.546L20.5098 50.726L15.8598 48.276L11.2198 50.726L12.0998 45.546L8.33984 41.886L13.5398 41.126L15.8598 36.416Z" stroke="#27456A" stroke-miterlimit="10" stroke-linecap="round" stroke-linejoin="round"/>
<path d="M32.5503 36.416L34.8703 41.126L40.0703 41.886L36.3103 45.546L37.1903 50.726L32.5503 48.276L27.9003 50.726L28.7903 45.546L25.0303 41.886L30.2203 41.126L32.5503 36.416Z" stroke="#27456A" stroke-miterlimit="10" stroke-linecap="round" stroke-linejoin="round"/>
<path d="M49.23 36.416L51.55 41.126L56.75 41.886L52.99 45.546L53.88 50.726L49.23 48.276L44.58 50.726L45.47 45.546L41.71 41.886L46.9 41.126L49.23 36.416Z" stroke="#27456A" stroke-miterlimit="10" stroke-linecap="round" stroke-linejoin="round"/>
<path d="M65.9097 36.416L68.2296 41.126L73.4297 41.886L69.6696 45.546L70.5597 50.726L65.9097 48.276L61.2596 50.726L62.1497 45.546L58.3896 41.886L63.5897 41.126L65.9097 36.416Z" stroke="#27456A" stroke-miterlimit="10" stroke-linecap="round" stroke-linejoin="round"/>
<path d="M82.5903 36.416L84.9203 41.126L90.1103 41.886L86.3503 45.546L87.2403 50.726L82.5903 48.276L77.9403 50.726L78.8303 45.546L75.0703 41.886L80.2703 41.126L82.5903 36.416Z" stroke="#27456A" stroke-miterlimit="10" stroke-linecap="round" stroke-linejoin="round"/>
<path d="M247.049 75.3449V61.0049L244.349 66.4749L237.959 67.4049L242.579 71.9049L241.489 78.2649L247.049 75.3449Z" fill="#F4D628"/>
<path d="M216.109 41.2852L218.959 47.0652L225.339 47.9951L220.719 52.4951L221.809 58.8551L216.109 55.8551L210.399 58.8551L211.489 52.4951L206.869 47.9951L213.249 47.0652L216.109 41.2852Z" fill="#F4D628"/>
<path d="M236.599 41.2852L239.449 47.0652L245.829 47.9951L241.209 52.4951L242.299 58.8551L236.599 55.8551L230.889 58.8551L231.979 52.4951L227.359 47.9951L233.739 47.0652L236.599 41.2852Z" fill="#F4D628"/>
<path d="M257.09 41.2852L259.94 47.0652L266.32 47.9951L261.7 52.4951L262.79 58.8551L257.09 55.8551L251.38 58.8551L252.47 52.4951L247.85 47.9951L254.23 47.0652L257.09 41.2852Z" fill="#F4D628"/>
<path d="M226.709 60.6953L229.569 66.4753L235.949 67.4053L231.329 71.9053L232.419 78.2653L226.709 75.2653L220.999 78.2653L222.089 71.9053L217.469 67.4053L223.859 66.4753L226.709 60.6953Z" fill="#F4D628"/>
<path d="M215.099 39.9453L217.949 45.7253L224.339 46.6553L219.719 51.1553L220.809 57.5153L215.099 54.5053L209.389 57.5153L210.479 51.1553L205.859 46.6553L212.239 45.7253L215.099 39.9453Z" stroke="#27456A" stroke-width="1.2283" stroke-miterlimit="10" stroke-linecap="round" stroke-linejoin="round"/>
<path d="M235.59 39.9453L238.44 45.7253L244.82 46.6553L240.21 51.1553L241.3 57.5153L235.59 54.5053L229.88 57.5153L230.97 51.1553L226.35 46.6553L232.73 45.7253L235.59 39.9453Z" stroke="#27456A" stroke-width="1.2283" stroke-miterlimit="10" stroke-linecap="round" stroke-linejoin="round"/>
<path d="M256.08 39.9453L258.93 45.7253L265.31 46.6553L260.7 51.1553L261.79 57.5153L256.08 54.5053L250.37 57.5153L251.46 51.1553L246.84 46.6553L253.22 45.7253L256.08 39.9453Z" stroke="#27456A" stroke-width="1.2283" stroke-miterlimit="10" stroke-linecap="round" stroke-linejoin="round"/>
<path d="M225.699 59.3457L228.559 65.1357L234.939 66.0557L230.319 70.5657L231.409 76.9157L225.699 73.9157L219.999 76.9157L221.089 70.5657L216.469 66.0557L222.849 65.1357L225.699 59.3457Z" stroke="#27456A" stroke-width="1.2283" stroke-miterlimit="10" stroke-linecap="round" stroke-linejoin="round"/>
<path d="M246.189 59.3457L249.049 65.1357L255.429 66.0557L250.809 70.5657L251.899 76.9157L246.189 73.9157L240.489 76.9157L241.579 70.5657L236.959 66.0557L243.339 65.1357L246.189 59.3457Z" stroke="#27456A" stroke-width="1.2283" stroke-miterlimit="10" stroke-linecap="round" stroke-linejoin="round"/>
<path d="M15.8598 56.0156L18.1898 60.7256L23.3798 61.4856L19.6198 65.1456L20.5098 70.3256L15.8598 67.8857L11.2198 70.3256L12.0998 65.1456L8.33984 61.4856L13.5398 60.7256L15.8598 56.0156Z" stroke="#27456A" stroke-miterlimit="10" stroke-linecap="round" stroke-linejoin="round"/>
<path d="M32.5503 56.0156L34.8703 60.7256L40.0703 61.4856L36.3103 65.1456L37.1903 70.3256L32.5503 67.8857L27.9003 70.3256L28.7903 65.1456L25.0303 61.4856L30.2203 60.7256L32.5503 56.0156Z" stroke="#27456A" stroke-miterlimit="10" stroke-linecap="round" stroke-linejoin="round"/>
<path d="M49.23 56.0156L51.55 60.7256L56.75 61.4856L52.99 65.1456L53.88 70.3256L49.23 67.8857L44.58 70.3256L45.47 65.1456L41.71 61.4856L46.9 60.7256L49.23 56.0156Z" stroke="#27456A" stroke-miterlimit="10" stroke-linecap="round" stroke-linejoin="round"/>
<path d="M65.9097 56.0156L68.2296 60.7256L73.4297 61.4856L69.6696 65.1456L70.5597 70.3256L65.9097 67.8857L61.2596 70.3256L62.1497 65.1456L58.3896 61.4856L63.5897 60.7256L65.9097 56.0156Z" stroke="#27456A" stroke-miterlimit="10" stroke-linecap="round" stroke-linejoin="round"/>
<path d="M15.8598 75.626L18.1898 80.326L23.3798 81.086L19.6198 84.746L20.5098 89.926L15.8598 87.486L11.2198 89.926L12.0998 84.746L8.33984 81.086L13.5398 80.326L15.8598 75.626Z" stroke="#27456A" stroke-miterlimit="10" stroke-linecap="round" stroke-linejoin="round"/>
<path d="M32.5503 75.626L34.8703 80.326L40.0703 81.086L36.3103 84.746L37.1903 89.926L32.5503 87.486L27.9003 89.926L28.7903 84.746L25.0303 81.086L30.2203 80.326L32.5503 75.626Z" stroke="#27456A" stroke-miterlimit="10" stroke-linecap="round" stroke-linejoin="round"/>
<path d="M49.23 75.626L51.55 80.326L56.75 81.086L52.99 84.746L53.88 89.926L49.23 87.486L44.58 89.926L45.47 84.746L41.71 81.086L46.9 80.326L49.23 75.626Z" stroke="#27456A" stroke-miterlimit="10" stroke-linecap="round" stroke-linejoin="round"/>
<path d="M15.8598 95.2256L18.1898 99.9356L23.3798 100.686L19.6198 104.356L20.5098 109.526L15.8598 107.086L11.2198 109.526L12.0998 104.356L8.33984 100.686L13.5398 99.9356L15.8598 95.2256Z" stroke="#27456A" stroke-miterlimit="10" stroke-linecap="round" stroke-linejoin="round"/>
<path d="M32.5503 95.2256L34.8703 99.9356L40.0703 100.686L36.3103 104.356L37.1903 109.526L32.5503 107.086L27.9003 109.526L28.7903 104.356L25.0303 100.686L30.2203 99.9356L32.5503 95.2256Z" stroke="#27456A" stroke-miterlimit="10" stroke-linecap="round" stroke-linejoin="round"/>
<path d="M15.8598 114.826L18.1898 119.536L23.3798 120.286L19.6198 123.956L20.5098 129.126L15.8598 126.686L11.2198 129.126L12.0998 123.956L8.33984 120.286L13.5398 119.536L15.8598 114.826Z" stroke="#27456A" stroke-miterlimit="10" stroke-linecap="round" stroke-linejoin="round"/>
<path d="M158.69 133.426H95.5202C92.0502 133.426 89.2402 130.616 89.2402 127.146V92.8562C89.2402 89.3862 92.0502 86.5762 95.5202 86.5762H158.69C162.16 86.5762 164.97 89.3862 164.97 92.8562V127.146C164.98 130.606 162.16 133.426 158.69 133.426Z" fill="#FFF100"/>
<path d="M272.579 133.426H203.969C200.499 133.426 197.689 130.616 197.689 127.146V92.8562C197.689 89.3862 200.499 86.5762 203.969 86.5762H272.579C276.049 86.5762 278.859 89.3862 278.859 92.8562V127.146C278.859 130.606 276.049 133.426 272.579 133.426Z" fill="#FFF100"/>
<path d="M146.81 125.035C146.22 126.685 145.18 128.385 144.05 129.445L141.83 128.285C142.87 127.465 143.91 125.915 144.5 124.425L146.81 125.035ZM158.06 116.685V123.665H144.35V116.685H149.88V110.905L152.82 111.065C152.8 111.265 152.64 111.375 152.27 111.435V112.765H159.35V114.965H152.27V116.695H158.06V116.685ZM155.67 121.465V118.855H146.61V121.465H155.67ZM148.3 129.275C148.3 128.215 148.12 126.475 147.89 125.115L150.13 124.895C150.42 126.205 150.66 127.935 150.68 128.955L148.3 129.275ZM153.04 129.195C152.83 128.155 152.24 126.445 151.67 125.155L153.83 124.685C154.44 125.915 155.08 127.565 155.34 128.605L153.04 129.195ZM158.34 129.425C157.83 128.245 156.55 126.425 155.48 125.075L157.64 124.175C158.72 125.445 160.07 127.195 160.66 128.395L158.34 129.425Z" fill="#27456A"/>
<path d="M105.359 125.016V120.786H94.6895V114.596L104.809 92.7158H111.489L111.439 96.3859V115.356H115.179V120.786H111.439V125.016L111.489 128.686H105.309L105.359 125.016ZM105.359 115.356V108.116C105.359 106.456 105.509 103.836 105.659 102.586H105.459C105.109 103.746 104.609 105.046 104.009 106.406L99.8694 115.366H105.359V115.356Z" fill="#27456A"/>
<path d="M118.17 122.855H124.1V128.695H118.17V122.855Z" fill="#27456A"/>
<path d="M128.94 128.686L136.12 98.3458H125.6V92.7158H142.5V96.8959L135.22 128.686H128.94Z" fill="#27456A"/>
<path d="M260.74 123.945C260.15 125.595 259.11 127.295 257.98 128.355L255.76 127.195C256.8 126.375 257.84 124.825 258.43 123.335L260.74 123.945ZM272 115.595V122.575H258.29V115.595H263.82V109.815L266.76 109.975C266.74 110.175 266.58 110.285 266.21 110.345V111.675H273.29V113.875H266.21V115.605H272V115.595ZM269.6 120.375V117.765H260.54V120.375H269.6ZM262.23 128.185C262.23 127.125 262.05 125.385 261.82 124.025L264.06 123.805C264.35 125.115 264.59 126.845 264.61 127.865L262.23 128.185ZM266.98 128.105C266.77 127.065 266.18 125.355 265.61 124.065L267.77 123.595C268.38 124.825 269.02 126.475 269.28 127.515L266.98 128.105ZM272.27 128.335C271.76 127.155 270.48 125.335 269.41 123.985L271.57 123.085C272.65 124.355 274 126.105 274.59 127.305L272.27 128.335Z" fill="#27456A"/>
<path d="M216.231 124.745V120.515H205.561V114.325L215.681 92.4453H222.361L222.311 96.1153V115.085H226.051V120.515H222.311V124.745L222.361 128.415H216.181L216.231 124.745ZM216.231 115.085V107.845C216.231 106.185 216.381 103.565 216.531 102.315H216.331C215.981 103.475 215.481 104.775 214.881 106.135L210.741 115.095H216.231V115.085Z" fill="#27456A"/>
<path d="M228.051 122.575H233.981V128.415H228.051V122.575Z" fill="#27456A"/>
<path d="M239.36 126.956C237.77 125.496 236.57 123.136 236.57 117.846V117.746H242.65V117.846C242.65 120.866 242.65 123.376 245.44 123.376C248.38 123.376 248.38 120.606 248.38 116.886V115.126C248.38 111.556 248.38 108.836 245.69 108.836C244.39 108.836 243.2 109.436 242.3 111.046H237.31L237.81 92.4355H253.71V98.0656H242.99L242.79 104.856C244.34 103.746 246.08 103.196 247.83 103.196C249.58 103.196 251.07 103.746 252.27 104.856C254.06 106.516 254.71 109.436 254.71 115.116V116.876C254.71 122.716 253.51 125.276 251.77 126.836C250.27 128.196 248.18 128.996 245.49 128.996C242.8 129.016 240.76 128.216 239.36 126.956Z" fill="#27456A"/>
</svg>
