<svg width="28" height="21" viewBox="0 0 28 21" fill="none" xmlns="http://www.w3.org/2000/svg">
<path d="M21.4 10.5799C21.4 11.1699 20.48 11.6799 20.38 12.2499C20.28 12.8299 20.97 13.6199 20.77 14.1599C20.57 14.7099 19.53 14.8699 19.24 15.3699C18.95 15.8799 19.33 16.8599 18.95 17.2999C18.57 17.7499 17.54 17.54 17.1 17.92C16.65 18.29 16.68 19.35 16.17 19.64C15.67 19.93 14.77 19.3899 14.22 19.5899C13.68 19.7899 13.34 20.7799 12.76 20.8799C12.19 20.9799 11.54 20.1599 10.94 20.1599C10.35 20.1599 9.69 20.9799 9.12 20.8799C8.54 20.7799 8.2 19.7799 7.66 19.5899C7.11 19.3899 6.21 19.93 5.71 19.64C5.2 19.35 5.23 18.3 4.78 17.92C4.33 17.54 3.3 17.7499 2.93 17.2999C2.56 16.8499 2.93 15.8699 2.64 15.3699C2.35 14.8699 1.31 14.7099 1.11 14.1599C0.910001 13.6199 1.6 12.8299 1.5 12.2499C1.4 11.6799 0.48 11.1799 0.48 10.5799C0.48 9.97993 1.4 9.47994 1.5 8.90994C1.6 8.32994 0.910001 7.53994 1.11 6.99994C1.31 6.44994 2.35 6.28995 2.64 5.78995C2.93 5.27995 2.55 4.29993 2.93 3.85993C3.31 3.40993 4.34 3.61993 4.78 3.23993C5.23 2.86993 5.2 1.80993 5.71 1.51993C6.21 1.22993 7.11 1.76995 7.66 1.56995C8.2 1.36995 8.54 0.37994 9.12 0.27994C9.69 0.17994 10.34 0.999941 10.94 0.999941C11.53 0.999941 12.19 0.17994 12.76 0.27994C13.34 0.37994 13.68 1.37995 14.22 1.56995C14.77 1.76995 15.67 1.22993 16.17 1.51993C16.68 1.80993 16.65 2.85993 17.1 3.23993C17.55 3.61993 18.58 3.40993 18.95 3.85993C19.32 4.30993 18.95 5.28995 19.24 5.78995C19.53 6.28995 20.57 6.44994 20.77 6.99994C20.97 7.53994 20.28 8.32994 20.38 8.90994C20.48 9.47994 21.4 9.98993 21.4 10.5799Z" fill="#D81718"/>
<path d="M4.35 7.69986V6.42984C5.72 5.86984 6.72 5.07984 6.97 4.58984H8.25L8.23 5.81985V15.4998L8.25 16.7299H6.07L6.09 15.4998V7.69986H4.35Z" fill="#FFF100"/>
<path d="M10.79 16.2402C10.1 15.6502 9.78 14.6702 9.78 12.2502V9.13019C9.78 6.71019 10.1 5.7502 10.79 5.1402C11.26 4.7202 11.97 4.4502 12.9 4.4502C13.83 4.4502 14.54 4.7202 15.01 5.1402C15.69 5.7502 16.02 6.71019 16.02 9.13019V12.2502C16.02 14.6702 15.68 15.6502 15.01 16.2402C14.54 16.6602 13.83 16.9302 12.9 16.9302C11.97 16.9302 11.26 16.6702 10.79 16.2402ZM13.91 12.8102V8.57019C13.91 7.25019 13.91 6.37018 12.9 6.37018C11.89 6.37018 11.89 7.25019 11.89 8.57019V12.8102C11.89 14.1302 11.89 15.0102 12.9 15.0102C13.91 15.0102 13.91 14.1302 13.91 12.8102Z" fill="#FFF100"/>
<path d="M21.13 17.8594C20.6 17.8594 20.17 17.4494 20.13 16.9294C19.72 17.1694 19.29 17.3994 18.82 17.6094C18.69 17.6694 18.55 17.6995 18.41 17.6995C18.05 17.6995 17.71 17.5094 17.53 17.1794L16.9 15.9995C16.76 15.7395 16.74 15.4194 16.85 15.1494C16.9 15.0394 16.96 14.9395 17.04 14.8495C16.98 14.7195 16.94 14.5695 16.94 14.4195V13.3195C16.94 13.1395 16.98 12.9794 17.06 12.8394L16.89 12.2295C16.81 11.9295 16.86 11.6094 17.04 11.3694C17.07 11.3294 17.1 11.2995 17.13 11.2595L16.94 10.7595C16.84 10.4895 16.86 10.1795 17 9.91946C17.14 9.65946 17.39 9.47944 17.68 9.42944C19.14 9.13944 19.46 8.80944 19.78 8.48944C19.97 8.29944 20.23 8.18945 20.49 8.18945C20.5 8.18945 22.09 8.24945 22.09 8.24945C22.38 8.25945 22.65 8.39946 22.83 8.62946H24.5C25.05 8.62946 25.5 9.07946 25.5 9.62946V10.6695C25.5 10.7695 25.49 10.8694 25.46 10.9594C25.52 10.9594 25.57 10.9594 25.62 10.9594C25.94 10.9594 26.23 11.1195 26.42 11.3795C26.6 11.6395 26.66 11.9694 26.56 12.2694L26.37 12.8394C26.45 12.9794 26.49 13.1495 26.49 13.3195V14.4195C26.49 14.5995 26.45 14.7594 26.37 14.8994C26.43 14.9794 26.48 15.0594 26.52 15.1494C26.64 15.4294 26.62 15.7495 26.47 16.0095L25.83 17.1895C25.65 17.5195 25.31 17.7094 24.95 17.7094C24.81 17.7094 24.66 17.6794 24.53 17.6194C24.07 17.4094 23.66 17.1895 23.29 16.9695C23.24 17.4695 22.81 17.8694 22.29 17.8694H21.13V17.8594Z" fill="#FFF100"/>
<path d="M20.51 9.17969L22.07 9.23969C21.97 9.37969 21.95 9.41969 21.79 9.61969H24.52V10.6597C24.38 10.8397 24.06 11.2597 23.27 11.7397C24.23 11.9297 25.08 11.9497 25.62 11.9597L25.24 13.1397C24.06 13.0397 22.89 12.8397 21.79 12.4197C20.3 12.8797 19.17 13.0397 18.21 13.1497L17.87 11.9497C18.4 11.9297 19.26 11.8997 20.4 11.6697C20.02 11.3897 19.82 11.1997 19.69 11.0597C19.05 11.3197 18.59 11.4597 18.33 11.5297L17.91 10.3897C19.47 10.0897 20 9.68969 20.51 9.17969ZM22.86 10.6597H20.71C20.89 10.8097 21.19 11.0397 21.73 11.2897C22.32 11.0597 22.59 10.8597 22.86 10.6597ZM22.32 12.7097V13.3197H25.51V14.4197H23.3C24.24 15.1197 25.1 15.3897 25.62 15.5397L24.98 16.7197C23.78 16.1597 22.95 15.5997 22.33 14.9097V16.8797H21.14V14.9297C20.12 15.9497 18.85 16.5197 18.42 16.7097L17.79 15.5397C18.23 15.3997 19.37 15.0397 20.15 14.4297H17.96V13.3297H21.14V12.7197H22.32M20.51 7.17969C19.98 7.17969 19.46 7.38969 19.08 7.77969C18.85 8.00969 18.66 8.2097 17.5 8.4397C16.92 8.5497 16.43 8.90969 16.14 9.42969C15.85 9.93969 15.81 10.5497 16.01 11.0997L16.02 11.1397C15.83 11.5697 15.79 12.0497 15.93 12.4997L16.01 12.7897C15.96 12.9597 15.94 13.1397 15.94 13.3197V14.4197C15.94 14.5097 15.95 14.5997 15.96 14.6897C15.95 14.7197 15.93 14.7497 15.92 14.7797C15.69 15.3297 15.73 15.9597 16.01 16.4897L16.64 17.6597C17 18.3197 17.69 18.7097 18.4 18.7097C18.67 18.7097 18.95 18.6497 19.21 18.5397C19.38 18.4597 19.55 18.3897 19.71 18.3097C20.07 18.6697 20.57 18.8897 21.11 18.8897H22.3C22.83 18.8897 23.32 18.6797 23.68 18.3397C23.82 18.4097 23.96 18.4797 24.11 18.5497C24.38 18.6797 24.67 18.7397 24.95 18.7397C25.66 18.7397 26.35 18.3597 26.71 17.6997L27.35 16.5197C27.63 15.9997 27.67 15.3797 27.45 14.8297C27.47 14.7097 27.49 14.5797 27.49 14.4497V13.3497C27.49 13.1797 27.47 13.0097 27.43 12.8497L27.51 12.6097C27.71 12.0097 27.6 11.3397 27.23 10.8297C27.04 10.5597 26.79 10.3497 26.5 10.2097V9.6597C26.5 8.5597 25.6 7.6597 24.5 7.6597H23.2C22.89 7.4397 22.52 7.2997 22.13 7.2897L20.57 7.22971C20.56 7.17971 20.53 7.17969 20.51 7.17969Z" fill="#D81718"/>
</svg>
