<svg width="28" height="22" viewBox="0 0 28 22" fill="none" xmlns="http://www.w3.org/2000/svg">
<path d="M21.4 10.9598C21.4 11.5498 20.48 12.0598 20.38 12.6298C20.28 13.2098 20.97 13.9998 20.77 14.5398C20.57 15.0898 19.53 15.2498 19.24 15.7498C18.95 16.2598 19.33 17.2398 18.95 17.6798C18.57 18.1298 17.54 17.9198 17.1 18.2998C16.65 18.6698 16.68 19.7298 16.17 20.0198C15.67 20.3098 14.77 19.7698 14.22 19.9698C13.68 20.1698 13.34 21.1598 12.76 21.2598C12.19 21.3598 11.54 20.5398 10.94 20.5398C10.35 20.5398 9.69 21.3598 9.12 21.2598C8.54 21.1598 8.2 20.1598 7.66 19.9698C7.11 19.7698 6.21 20.3098 5.71 20.0198C5.2 19.7298 5.23 18.6798 4.78 18.2998C4.33 17.9198 3.3 18.1298 2.93 17.6798C2.56 17.2298 2.93 16.2498 2.64 15.7498C2.35 15.2498 1.31 15.0898 1.11 14.5398C0.910001 13.9998 1.6 13.2098 1.5 12.6298C1.4 12.0598 0.48 11.5598 0.48 10.9598C0.48 10.3698 1.4 9.85981 1.5 9.28981C1.6 8.70981 0.910001 7.91982 1.11 7.37982C1.31 6.82982 2.35 6.66982 2.64 6.16982C2.93 5.65982 2.55 4.67982 2.93 4.23982C3.31 3.78982 4.34 3.99981 4.78 3.61981C5.23 3.24981 5.2 2.18981 5.71 1.89981C6.21 1.60981 7.11 2.14982 7.66 1.94982C8.2 1.74982 8.54 0.759823 9.12 0.659823C9.69 0.559823 10.34 1.37982 10.94 1.37982C11.53 1.37982 12.19 0.559823 12.76 0.659823C13.34 0.759823 13.68 1.75982 14.22 1.94982C14.77 2.14982 15.67 1.60981 16.17 1.89981C16.68 2.18981 16.65 3.23981 17.1 3.61981C17.55 3.99981 18.58 3.78982 18.95 4.23982C19.32 4.68982 18.95 5.66982 19.24 6.16982C19.53 6.66982 20.57 6.82982 20.77 7.37982C20.97 7.91982 20.28 8.70981 20.38 9.28981C20.48 9.86981 21.4 10.3698 21.4 10.9598Z" fill="#D81718"/>
<path d="M13.54 8.0596C13.54 9.7696 12.66 11.1696 11.28 13.0896L9.69 15.2196H13.44V17.1096H7.32V15.3896L9.55 12.2696C10.77 10.5796 11.44 9.39961 11.44 8.09961V8.06961C11.44 7.10961 11.12 6.73961 10.51 6.73961C9.75 6.73961 9.45 7.3796 9.45 8.6796V8.70961H7.41V8.6796C7.41 6.0296 8.66 4.84961 10.57 4.84961C12.6 4.84961 13.54 6.1696 13.54 8.0396V8.0596Z" fill="#FFF100"/>
<path d="M21.13 18.2401C20.6 18.2401 20.17 17.8301 20.13 17.3101C19.72 17.5501 19.29 17.7801 18.82 17.9901C18.69 18.0501 18.55 18.0801 18.41 18.0801C18.05 18.0801 17.71 17.8901 17.53 17.5601L16.9 16.3901C16.76 16.1301 16.74 15.8101 16.85 15.5401C16.9 15.4301 16.96 15.3301 17.04 15.2401C16.98 15.1101 16.94 14.9601 16.94 14.8101V13.7101C16.94 13.5301 16.98 13.3701 17.06 13.2301L16.89 12.6201C16.81 12.3201 16.86 12.0001 17.04 11.7601C17.07 11.7201 17.1 11.6901 17.13 11.6501L16.94 11.1501C16.84 10.8801 16.86 10.5701 17 10.3101C17.14 10.0501 17.39 9.87008 17.68 9.82008C19.14 9.53008 19.46 9.20008 19.78 8.88008C19.97 8.69008 20.23 8.58008 20.49 8.58008C20.5 8.58008 22.09 8.64008 22.09 8.64008C22.38 8.65008 22.65 8.79008 22.83 9.02008H24.5C25.05 9.02008 25.5 9.47008 25.5 10.0201V11.0601C25.5 11.1601 25.49 11.2601 25.46 11.3501C25.52 11.3501 25.57 11.3501 25.62 11.3501C25.94 11.3501 26.23 11.5101 26.42 11.7701C26.6 12.0301 26.66 12.3601 26.56 12.6601L26.37 13.2301C26.45 13.3701 26.49 13.5401 26.49 13.7101V14.8101C26.49 14.9901 26.45 15.1501 26.37 15.2901C26.43 15.3701 26.48 15.4501 26.52 15.5401C26.64 15.8201 26.62 16.1401 26.47 16.4001L25.83 17.5801C25.65 17.9101 25.31 18.1001 24.95 18.1001C24.81 18.1001 24.66 18.0701 24.53 18.0101C24.07 17.8001 23.66 17.5801 23.29 17.3601C23.24 17.8601 22.81 18.2601 22.29 18.2601H21.13V18.2401Z" fill="#FFF100"/>
<path d="M20.51 9.57031L22.07 9.63031C21.97 9.77031 21.95 9.8103 21.79 10.0103H24.52V11.0503C24.38 11.2303 24.06 11.6503 23.27 12.1303C24.23 12.3203 25.08 12.3403 25.62 12.3503L25.24 13.5303C24.06 13.4303 22.89 13.2303 21.79 12.8103C20.3 13.2703 19.17 13.4303 18.21 13.5403L17.87 12.3403C18.4 12.3203 19.26 12.2903 20.4 12.0603C20.02 11.7803 19.82 11.5903 19.69 11.4503C19.05 11.7103 18.59 11.8503 18.33 11.9203L17.91 10.7803C19.47 10.4703 20 10.0803 20.51 9.57031ZM22.86 11.0403H20.71C20.89 11.1903 21.19 11.4203 21.73 11.6703C22.32 11.4403 22.59 11.2403 22.86 11.0403ZM22.32 13.0903V13.7003H25.51V14.8003H23.3C24.24 15.5003 25.1 15.7703 25.62 15.9203L24.98 17.1003C23.78 16.5403 22.95 15.9803 22.33 15.2903V17.2603H21.14V15.3103C20.12 16.3303 18.85 16.9003 18.42 17.0903L17.79 15.9203C18.23 15.7803 19.37 15.4203 20.15 14.8103H17.96V13.7103H21.14V13.1003H22.32M20.51 7.57031C19.98 7.57031 19.46 7.7803 19.08 8.1703C18.85 8.4003 18.66 8.60031 17.5 8.83031C16.92 8.94031 16.43 9.30031 16.14 9.82031C15.85 10.3303 15.81 10.9403 16.01 11.4903L16.02 11.5303C15.83 11.9603 15.79 12.4403 15.93 12.8903L16.01 13.1803C15.96 13.3503 15.94 13.5303 15.94 13.7103V14.8103C15.94 14.9003 15.95 14.9903 15.96 15.0803C15.95 15.1103 15.93 15.1403 15.92 15.1703C15.69 15.7203 15.73 16.3503 16.01 16.8803L16.64 18.0503C17 18.7103 17.69 19.1003 18.4 19.1003C18.67 19.1003 18.95 19.0403 19.21 18.9303C19.38 18.8503 19.55 18.7803 19.71 18.7003C20.07 19.0603 20.57 19.2803 21.11 19.2803H22.3C22.83 19.2803 23.32 19.0703 23.68 18.7303C23.82 18.8003 23.96 18.8703 24.11 18.9403C24.38 19.0703 24.67 19.1303 24.95 19.1303C25.66 19.1303 26.35 18.7503 26.71 18.0903L27.35 16.9103C27.63 16.3903 27.67 15.7703 27.45 15.2203C27.47 15.1003 27.49 14.9703 27.49 14.8403V13.7403C27.49 13.5703 27.47 13.4003 27.43 13.2403L27.51 13.0003C27.71 12.4003 27.6 11.7303 27.23 11.2203C27.04 10.9503 26.79 10.7403 26.5 10.6003V10.0503C26.5 8.95031 25.6 8.05031 24.5 8.05031H23.2C22.89 7.83031 22.52 7.6903 22.13 7.6803L20.57 7.6203C20.56 7.5703 20.53 7.57031 20.51 7.57031Z" fill="#D81718"/>
</svg>
