<svg width="28" height="21" viewBox="0 0 28 21" fill="none" xmlns="http://www.w3.org/2000/svg">
<path d="M21.4 10.3905C21.4 10.9805 20.48 11.4905 20.38 12.0605C20.28 12.6405 20.97 13.4305 20.77 13.9705C20.57 14.5205 19.53 14.6805 19.24 15.1805C18.95 15.6905 19.33 16.6705 18.95 17.1105C18.57 17.5605 17.54 17.3505 17.1 17.7305C16.65 18.1005 16.68 19.1605 16.17 19.4505C15.67 19.7405 14.77 19.2005 14.22 19.4005C13.68 19.6005 13.34 20.5905 12.76 20.6905C12.19 20.7905 11.54 19.9705 10.94 19.9705C10.35 19.9705 9.69 20.7905 9.12 20.6905C8.54 20.5905 8.2 19.5905 7.66 19.4005C7.11 19.2005 6.21 19.7405 5.71 19.4505C5.2 19.1605 5.23 18.1105 4.78 17.7305C4.33 17.3505 3.3 17.5605 2.93 17.1105C2.56 16.6605 2.93 15.6805 2.64 15.1805C2.35 14.6805 1.31 14.5205 1.11 13.9705C0.910001 13.4305 1.6 12.6405 1.5 12.0605C1.4 11.4905 0.48 10.9905 0.48 10.3905C0.48 9.80049 1.4 9.29049 1.5 8.72049C1.6 8.14049 0.910001 7.35049 1.11 6.81049C1.31 6.26049 2.35 6.1005 2.64 5.6005C2.93 5.0905 2.55 4.11049 2.93 3.67049C3.31 3.22049 4.34 3.43049 4.78 3.05049C5.23 2.68049 5.2 1.62049 5.71 1.33049C6.21 1.04049 7.11 1.5805 7.66 1.3805C8.2 1.1805 8.54 0.190487 9.12 0.0904868C9.69 -0.00951322 10.34 0.810488 10.94 0.810488C11.53 0.810488 12.19 -0.00951322 12.76 0.0904868C13.34 0.190487 13.68 1.1905 14.22 1.3805C14.77 1.5805 15.67 1.04049 16.17 1.33049C16.68 1.62049 16.65 2.67049 17.1 3.05049C17.55 3.43049 18.58 3.22049 18.95 3.67049C19.32 4.12049 18.95 5.1005 19.24 5.6005C19.53 6.1005 20.57 6.26049 20.77 6.81049C20.97 7.35049 20.28 8.14049 20.38 8.72049C20.48 9.29049 21.4 9.79049 21.4 10.3905Z" fill="#D81718"/>
<path d="M8.09 7.50063V6.23062C9.46 5.67062 10.46 4.88063 10.71 4.39062H12L11.98 5.62062V15.3006L12 16.5306H9.82L9.84 15.3006V7.50063H8.09Z" fill="#FFF100"/>
<path d="M21.13 17.66C20.6 17.66 20.17 17.25 20.13 16.73C19.72 16.97 19.29 17.2 18.82 17.41C18.69 17.47 18.55 17.5 18.41 17.5C18.05 17.5 17.71 17.31 17.53 16.98L16.9 15.81C16.76 15.55 16.74 15.23 16.85 14.96C16.9 14.85 16.96 14.75 17.04 14.66C16.98 14.53 16.94 14.38 16.94 14.23V13.13C16.94 12.95 16.98 12.79 17.06 12.65L16.89 12.04C16.81 11.74 16.86 11.42 17.04 11.18C17.07 11.14 17.1 11.11 17.13 11.07L16.94 10.57C16.84 10.3 16.86 9.99 17 9.73C17.14 9.47 17.39 9.29001 17.68 9.24001C19.14 8.95001 19.46 8.62 19.78 8.3C19.97 8.11 20.23 8 20.49 8C20.5 8 22.09 8.06 22.09 8.06C22.38 8.07 22.65 8.21 22.83 8.44H24.5C25.05 8.44 25.5 8.89 25.5 9.44V10.48C25.5 10.58 25.49 10.68 25.46 10.77C25.52 10.77 25.57 10.77 25.62 10.77C25.94 10.77 26.23 10.93 26.42 11.19C26.6 11.45 26.66 11.78 26.56 12.08L26.37 12.65C26.45 12.79 26.49 12.96 26.49 13.13V14.23C26.49 14.41 26.45 14.57 26.37 14.71C26.43 14.79 26.48 14.87 26.52 14.96C26.64 15.24 26.62 15.56 26.47 15.82L25.83 17C25.65 17.33 25.31 17.52 24.95 17.52C24.81 17.52 24.66 17.49 24.53 17.43C24.07 17.22 23.66 17 23.29 16.78C23.24 17.28 22.81 17.68 22.29 17.68H21.13V17.66Z" fill="#FFF100"/>
<path d="M20.51 8.99023L22.07 9.05023C21.97 9.19023 21.95 9.23022 21.79 9.43022H24.52V10.4702C24.38 10.6502 24.06 11.0702 23.27 11.5502C24.23 11.7402 25.08 11.7602 25.62 11.7702L25.24 12.9502C24.06 12.8502 22.89 12.6502 21.79 12.2302C20.3 12.6902 19.17 12.8502 18.21 12.9602L17.87 11.7602C18.4 11.7402 19.26 11.7102 20.4 11.4802C20.02 11.2002 19.82 11.0102 19.69 10.8702C19.05 11.1302 18.59 11.2702 18.33 11.3402L17.91 10.2002C19.47 9.89023 20 9.50023 20.51 8.99023ZM22.86 10.4702H20.71C20.89 10.6202 21.19 10.8502 21.73 11.1002C22.32 10.8702 22.59 10.6702 22.86 10.4702ZM22.32 12.5102V13.1202H25.51V14.2202H23.3C24.24 14.9202 25.1 15.1902 25.62 15.3402L24.98 16.5202C23.78 15.9602 22.95 15.4002 22.33 14.7102V16.6802H21.14V14.7302C20.12 15.7502 18.85 16.3202 18.42 16.5102L17.79 15.3402C18.23 15.2002 19.37 14.8402 20.15 14.2302H17.96V13.1302H21.14V12.5202H22.32M20.51 6.99023C19.98 6.99023 19.46 7.20023 19.08 7.59023C18.85 7.82023 18.66 8.02023 17.5 8.25023C16.92 8.36023 16.43 8.72023 16.14 9.24023C15.85 9.75023 15.81 10.3602 16.01 10.9102L16.02 10.9502C15.83 11.3802 15.79 11.8602 15.93 12.3102L16.01 12.6002C15.96 12.7702 15.94 12.9502 15.94 13.1302V14.2302C15.94 14.3202 15.95 14.4102 15.96 14.5002C15.95 14.5302 15.93 14.5602 15.92 14.5902C15.69 15.1402 15.73 15.7702 16.01 16.3002L16.64 17.4702C17 18.1302 17.69 18.5202 18.4 18.5202C18.67 18.5202 18.95 18.4602 19.21 18.3502C19.38 18.2702 19.55 18.2002 19.71 18.1202C20.07 18.4802 20.57 18.7002 21.11 18.7002H22.3C22.83 18.7002 23.32 18.4902 23.68 18.1502C23.82 18.2202 23.96 18.2902 24.11 18.3602C24.38 18.4902 24.67 18.5502 24.95 18.5502C25.66 18.5502 26.35 18.1702 26.71 17.5102L27.35 16.3302C27.63 15.8102 27.67 15.1902 27.45 14.6402C27.47 14.5202 27.49 14.3902 27.49 14.2602V13.1602C27.49 12.9902 27.47 12.8202 27.43 12.6602L27.51 12.4202C27.71 11.8202 27.6 11.1502 27.23 10.6402C27.04 10.3702 26.79 10.1602 26.5 10.0202V9.47023C26.5 8.37023 25.6 7.47023 24.5 7.47023H23.2C22.89 7.25023 22.52 7.11023 22.13 7.10023L20.57 7.04022C20.56 6.99022 20.53 6.99023 20.51 6.99023Z" fill="#D81718"/>
</svg>
