<svg width="28" height="21" viewBox="0 0 28 21" fill="none" xmlns="http://www.w3.org/2000/svg">
<path d="M21.4 10.4295C21.4 11.0195 20.48 11.5296 20.38 12.0996C20.28 12.6796 20.97 13.4696 20.77 14.0096C20.57 14.5596 19.53 14.7195 19.24 15.2195C18.95 15.7295 19.33 16.7095 18.95 17.1495C18.57 17.5995 17.54 17.3895 17.1 17.7695C16.65 18.1395 16.68 19.1995 16.17 19.4895C15.67 19.7795 14.77 19.2395 14.22 19.4395C13.68 19.6395 13.34 20.6296 12.76 20.7296C12.19 20.8296 11.54 20.0096 10.94 20.0096C10.35 20.0096 9.69 20.8296 9.12 20.7296C8.54 20.6296 8.2 19.6295 7.66 19.4395C7.11 19.2395 6.21 19.7795 5.71 19.4895C5.2 19.1995 5.23 18.1495 4.78 17.7695C4.33 17.3895 3.3 17.5995 2.93 17.1495C2.56 16.6995 2.93 15.7195 2.64 15.2195C2.35 14.7195 1.31 14.5596 1.11 14.0096C0.910001 13.4696 1.6 12.6796 1.5 12.0996C1.4 11.5296 0.48 11.0295 0.48 10.4295C0.48 9.83954 1.4 9.32955 1.5 8.75955C1.6 8.17955 0.910001 7.38955 1.11 6.84955C1.31 6.29955 2.35 6.13956 2.64 5.63956C2.93 5.12956 2.55 4.14954 2.93 3.70954C3.31 3.25954 4.34 3.46954 4.78 3.08954C5.23 2.71954 5.2 1.65954 5.71 1.36954C6.21 1.07954 7.11 1.61956 7.66 1.41956C8.2 1.21956 8.54 0.229549 9.12 0.129549C9.69 0.0295493 10.34 0.84955 10.94 0.84955C11.53 0.84955 12.19 0.0295493 12.76 0.129549C13.34 0.229549 13.68 1.22956 14.22 1.41956C14.77 1.61956 15.67 1.07954 16.17 1.36954C16.68 1.65954 16.65 2.70954 17.1 3.08954C17.55 3.46954 18.58 3.25954 18.95 3.70954C19.32 4.15954 18.95 5.13956 19.24 5.63956C19.53 6.13956 20.57 6.29955 20.77 6.84955C20.97 7.38955 20.28 8.17955 20.38 8.75955C20.48 9.32955 21.4 9.82954 21.4 10.4295Z" fill="#D81718"/>
<path d="M8.35 16.0596C7.74 15.5196 7.37 14.6596 7.37 13.0696V13.0196C7.37 11.5996 7.83 10.7196 8.82 10.1996V10.1296C8.01 9.58958 7.55 8.84957 7.55 7.52957V7.44958C7.55 6.19958 7.94 5.41957 8.46 4.96957C8.95 4.52957 9.63 4.30957 10.44 4.30957C11.25 4.30957 11.94 4.52957 12.43 4.96957C12.95 5.42957 13.34 6.19958 13.34 7.44958V7.52957C13.34 8.84957 12.87 9.58958 12.07 10.1296V10.1996C13.07 10.7196 13.52 11.5996 13.52 13.0196V13.0696C13.52 14.6596 13.13 15.5196 12.54 16.0596C12.07 16.4996 11.41 16.7896 10.43 16.7896C9.45 16.7896 8.83 16.4896 8.35 16.0596ZM11.45 13.0696V13.0396C11.45 12.5296 11.5 11.2296 10.45 11.2296C9.42 11.2296 9.47 12.5296 9.47 13.0396V13.0696C9.47 13.7996 9.52 14.8896 10.45 14.8896C11.38 14.8896 11.45 13.7896 11.45 13.0696ZM11.33 7.65958V7.62958C11.33 7.01958 11.23 6.13959 10.45 6.13959C9.69 6.13959 9.59 7.01958 9.59 7.62958V7.65958C9.59 8.17958 9.56 9.24957 10.45 9.24957C11.34 9.24957 11.33 8.17958 11.33 7.65958Z" fill="#FFF100"/>
<path d="M21.13 17.6991C20.6 17.6991 20.17 17.289 20.13 16.769C19.72 17.009 19.29 17.2391 18.82 17.4491C18.69 17.5091 18.55 17.5391 18.41 17.5391C18.05 17.5391 17.71 17.349 17.53 17.019L16.9 15.8491C16.76 15.5891 16.74 15.2691 16.85 14.9991C16.9 14.8891 16.96 14.7891 17.04 14.6991C16.98 14.5691 16.94 14.419 16.94 14.269V13.1691C16.94 12.9891 16.98 12.8291 17.06 12.6891L16.89 12.079C16.81 11.779 16.86 11.4591 17.04 11.2191C17.07 11.1791 17.1 11.149 17.13 11.109L16.94 10.609C16.84 10.339 16.86 10.029 17 9.76904C17.14 9.50904 17.39 9.32905 17.68 9.27905C19.14 8.98905 19.46 8.65905 19.78 8.33905C19.97 8.14905 20.23 8.03906 20.49 8.03906C20.5 8.03906 22.09 8.09906 22.09 8.09906C22.38 8.10906 22.65 8.24906 22.83 8.47906H24.5C25.05 8.47906 25.5 8.92906 25.5 9.47906V10.519C25.5 10.619 25.49 10.7191 25.46 10.8091C25.52 10.8091 25.57 10.8091 25.62 10.8091C25.94 10.8091 26.23 10.9691 26.42 11.2291C26.6 11.4891 26.66 11.819 26.56 12.119L26.37 12.6891C26.45 12.8291 26.49 12.9991 26.49 13.1691V14.269C26.49 14.449 26.45 14.6091 26.37 14.7491C26.43 14.8291 26.48 14.9091 26.52 14.9991C26.64 15.2791 26.62 15.599 26.47 15.859L25.83 17.0391C25.65 17.3691 25.31 17.5591 24.95 17.5591C24.81 17.5591 24.66 17.5291 24.53 17.4691C24.07 17.2591 23.66 17.0391 23.29 16.8191C23.24 17.3191 22.81 17.7191 22.29 17.7191H21.13V17.6991Z" fill="#FFF100"/>
<path d="M20.51 9.0293L22.07 9.08929C21.97 9.22929 21.95 9.2693 21.79 9.4693H24.52V10.5093C24.38 10.6893 24.06 11.1093 23.27 11.5893C24.23 11.7793 25.08 11.7993 25.62 11.8093L25.24 12.9893C24.06 12.8893 22.89 12.6893 21.79 12.2693C20.3 12.7293 19.17 12.8893 18.21 12.9993L17.87 11.7993C18.4 11.7793 19.26 11.7493 20.4 11.5193C20.02 11.2393 19.82 11.0493 19.69 10.9093C19.05 11.1693 18.59 11.3093 18.33 11.3793L17.91 10.2393C19.47 9.92929 20 9.5393 20.51 9.0293ZM22.86 10.5093H20.71C20.89 10.6593 21.19 10.8893 21.73 11.1393C22.32 10.9093 22.59 10.7093 22.86 10.5093ZM22.32 12.5493V13.1593H25.51V14.2593H23.3C24.24 14.9593 25.1 15.2293 25.62 15.3793L24.98 16.5593C23.78 15.9993 22.95 15.4393 22.33 14.7493V16.7193H21.14V14.7693C20.12 15.7893 18.85 16.3593 18.42 16.5493L17.79 15.3793C18.23 15.2393 19.37 14.8793 20.15 14.2693H17.96V13.1693H21.14V12.5593H22.32M20.51 7.0293C19.98 7.0293 19.46 7.2393 19.08 7.6293C18.85 7.8593 18.66 8.05931 17.5 8.28931C16.92 8.39931 16.43 8.7593 16.14 9.2793C15.85 9.7893 15.81 10.3993 16.01 10.9493L16.02 10.9893C15.83 11.4193 15.79 11.8993 15.93 12.3493L16.01 12.6393C15.96 12.8093 15.94 12.9893 15.94 13.1693V14.2693C15.94 14.3593 15.95 14.4493 15.96 14.5393C15.95 14.5693 15.93 14.5993 15.92 14.6293C15.69 15.1793 15.73 15.8093 16.01 16.3393L16.64 17.5093C17 18.1693 17.69 18.5593 18.4 18.5593C18.67 18.5593 18.95 18.4993 19.21 18.3893C19.38 18.3093 19.55 18.2393 19.71 18.1593C20.07 18.5193 20.57 18.7393 21.11 18.7393H22.3C22.83 18.7393 23.32 18.5293 23.68 18.1893C23.82 18.2593 23.96 18.3293 24.11 18.3993C24.38 18.5293 24.67 18.5893 24.95 18.5893C25.66 18.5893 26.35 18.2093 26.71 17.5493L27.35 16.3693C27.63 15.8493 27.67 15.2293 27.45 14.6793C27.47 14.5593 27.49 14.4293 27.49 14.2993V13.1993C27.49 13.0293 27.47 12.8593 27.43 12.6993L27.51 12.4593C27.71 11.8593 27.6 11.1893 27.23 10.6793C27.04 10.4093 26.79 10.1993 26.5 10.0593V9.50931C26.5 8.40931 25.6 7.50931 24.5 7.50931H23.2C22.89 7.28931 22.52 7.14931 22.13 7.13931L20.57 7.07928C20.56 7.02928 20.53 7.0293 20.51 7.0293Z" fill="#D81718"/>
</svg>
