<svg width="28" height="22" viewBox="0 0 28 22" fill="none" xmlns="http://www.w3.org/2000/svg">
<path d="M21.4 11.2704C21.4 11.8604 20.48 12.3704 20.38 12.9404C20.28 13.5204 20.97 14.3104 20.77 14.8504C20.57 15.4004 19.53 15.5604 19.24 16.0604C18.95 16.5704 19.33 17.5504 18.95 17.9904C18.57 18.4404 17.54 18.2304 17.1 18.6104C16.65 18.9804 16.68 20.0404 16.17 20.3304C15.67 20.6204 14.77 20.0804 14.22 20.2804C13.68 20.4804 13.34 21.4704 12.76 21.5704C12.19 21.6704 11.54 20.8504 10.94 20.8504C10.35 20.8504 9.69 21.6704 9.12 21.5704C8.54 21.4704 8.2 20.4704 7.66 20.2804C7.11 20.0804 6.21 20.6204 5.71 20.3304C5.2 20.0404 5.23 18.9904 4.78 18.6104C4.33 18.2304 3.3 18.4404 2.93 17.9904C2.56 17.5404 2.93 16.5604 2.64 16.0604C2.35 15.5604 1.31 15.4004 1.11 14.8504C0.910001 14.3104 1.6 13.5204 1.5 12.9404C1.4 12.3704 0.48 11.8704 0.48 11.2704C0.48 10.6704 1.4 10.1704 1.5 9.60037C1.6 9.02037 0.910001 8.23037 1.11 7.69037C1.31 7.14037 2.35 6.98038 2.64 6.48038C2.93 5.97038 2.55 4.99036 2.93 4.55036C3.31 4.10036 4.34 4.31036 4.78 3.93036C5.23 3.56036 5.2 2.50036 5.71 2.21036C6.21 1.92036 7.11 2.46038 7.66 2.26038C8.2 2.06038 8.54 1.07037 9.12 0.97037C9.69 0.87037 10.34 1.69037 10.94 1.69037C11.53 1.69037 12.19 0.87037 12.76 0.97037C13.34 1.07037 13.68 2.07038 14.22 2.26038C14.77 2.46038 15.67 1.92036 16.17 2.21036C16.68 2.50036 16.65 3.55036 17.1 3.93036C17.55 4.31036 18.58 4.10036 18.95 4.55036C19.32 5.00036 18.95 5.98038 19.24 6.48038C19.53 6.98038 20.57 7.14037 20.77 7.69037C20.97 8.23037 20.28 9.02037 20.38 9.60037C20.48 10.1704 21.4 10.6804 21.4 11.2704Z" fill="#D81718"/>
<path d="M9.6 10.6006C10.14 10.1606 10.75 9.92062 11.41 9.92062C11.95 9.92062 12.44 10.0706 12.88 10.4806C13.45 11.0206 13.76 11.7506 13.76 13.8106C13.74 15.0806 13.56 16.2406 12.75 16.9306C12.24 17.3706 11.48 17.6206 10.6 17.6206C9.64 17.6206 8.94 17.3206 8.49 16.9306C7.85 16.3706 7.44 15.5306 7.44 13.0306V9.7406C7.44 7.3906 7.78 6.4006 8.49 5.8006C9.01 5.3606 9.69 5.14062 10.52 5.14062C11.43 5.14062 12.12 5.4106 12.6 5.8306C13.14 6.3206 13.55 7.11061 13.55 8.72061V8.75061H11.49V8.72061C11.49 8.03061 11.49 7.03061 10.54 7.03061C9.61 7.03061 9.61 8.03061 9.61 9.28061V10.6006H9.6ZM9.6 12.3406V13.4906C9.6 14.7106 9.6 15.7406 10.65 15.7406C11.55 15.7406 11.61 14.9606 11.61 13.8106C11.61 12.5406 11.61 11.8206 10.66 11.8206C10.29 11.8206 9.88 11.9706 9.6 12.3406Z" fill="#FFF100"/>
<path d="M21.13 18.5506C20.6 18.5506 20.17 18.1406 20.13 17.6206C19.72 17.8606 19.29 18.0906 18.82 18.3006C18.69 18.3606 18.55 18.3906 18.41 18.3906C18.05 18.3906 17.71 18.2006 17.53 17.8706L16.9 16.7006C16.76 16.4406 16.74 16.1206 16.85 15.8506C16.9 15.7406 16.96 15.6406 17.04 15.5506C16.98 15.4206 16.94 15.2706 16.94 15.1206V14.0206C16.94 13.8406 16.98 13.6806 17.06 13.5406L16.89 12.9306C16.81 12.6306 16.86 12.3106 17.04 12.0706C17.07 12.0306 17.1 12.0006 17.13 11.9606L16.94 11.4606C16.84 11.1906 16.86 10.8806 17 10.6206C17.14 10.3606 17.39 10.1806 17.68 10.1306C19.14 9.84062 19.46 9.51061 19.78 9.19061C19.97 9.00061 20.23 8.89062 20.49 8.89062C20.5 8.89062 22.09 8.95062 22.09 8.95062C22.38 8.96062 22.65 9.1006 22.83 9.3306H24.5C25.05 9.3306 25.5 9.7806 25.5 10.3306V11.3706C25.5 11.4706 25.49 11.5706 25.46 11.6606C25.52 11.6606 25.57 11.6606 25.62 11.6606C25.94 11.6606 26.23 11.8206 26.42 12.0806C26.6 12.3406 26.66 12.6706 26.56 12.9706L26.37 13.5406C26.45 13.6806 26.49 13.8506 26.49 14.0206V15.1206C26.49 15.3006 26.45 15.4606 26.37 15.6006C26.43 15.6806 26.48 15.7606 26.52 15.8506C26.64 16.1306 26.62 16.4506 26.47 16.7106L25.83 17.8906C25.65 18.2206 25.31 18.4106 24.95 18.4106C24.81 18.4106 24.66 18.3806 24.53 18.3206C24.07 18.1106 23.66 17.8906 23.29 17.6706C23.24 18.1706 22.81 18.5706 22.29 18.5706H21.13V18.5506Z" fill="#FFF100"/>
<path d="M20.51 9.87012L22.07 9.93011C21.97 10.0701 21.95 10.1101 21.79 10.3101H24.52V11.3501C24.38 11.5301 24.06 11.9501 23.27 12.4301C24.23 12.6201 25.08 12.6401 25.62 12.6501L25.24 13.8301C24.06 13.7301 22.89 13.5301 21.79 13.1101C20.3 13.5701 19.17 13.7301 18.21 13.8401L17.87 12.6401C18.4 12.6201 19.26 12.5901 20.4 12.3601C20.02 12.0801 19.82 11.8901 19.69 11.7501C19.05 12.0101 18.59 12.1501 18.33 12.2201L17.91 11.0801C19.47 10.7801 20 10.3901 20.51 9.87012ZM22.86 11.3501H20.71C20.89 11.5001 21.19 11.7301 21.73 11.9801C22.32 11.7501 22.59 11.5501 22.86 11.3501ZM22.32 13.4001V14.0101H25.51V15.1101H23.3C24.24 15.8101 25.1 16.0801 25.62 16.2301L24.98 17.4101C23.78 16.8501 22.95 16.2901 22.33 15.6001V17.5701H21.14V15.6201C20.12 16.6401 18.85 17.2101 18.42 17.4001L17.79 16.2301C18.23 16.0901 19.37 15.7301 20.15 15.1201H17.96V14.0201H21.14V13.4101H22.32M20.51 7.87012C19.98 7.87012 19.46 8.08012 19.08 8.47012C18.85 8.70012 18.66 8.90013 17.5 9.13013C16.92 9.24013 16.43 9.60012 16.14 10.1201C15.85 10.6301 15.81 11.2401 16.01 11.7901L16.02 11.8301C15.83 12.2601 15.79 12.7401 15.93 13.1901L16.01 13.4801C15.96 13.6501 15.94 13.8301 15.94 14.0101V15.1101C15.94 15.2001 15.95 15.2901 15.96 15.3801C15.95 15.4101 15.93 15.4401 15.92 15.4701C15.69 16.0201 15.73 16.6501 16.01 17.1801L16.64 18.3501C17 19.0101 17.69 19.4001 18.4 19.4001C18.67 19.4001 18.95 19.3401 19.21 19.2301C19.38 19.1501 19.55 19.0801 19.71 19.0001C20.07 19.3601 20.57 19.5801 21.11 19.5801H22.3C22.83 19.5801 23.32 19.3701 23.68 19.0301C23.82 19.1001 23.96 19.1701 24.11 19.2401C24.38 19.3701 24.67 19.4301 24.95 19.4301C25.66 19.4301 26.35 19.0501 26.71 18.3901L27.35 17.2101C27.63 16.6901 27.67 16.0701 27.45 15.5201C27.47 15.4001 27.49 15.2701 27.49 15.1401V14.0401C27.49 13.8701 27.47 13.7001 27.43 13.5401L27.51 13.3001C27.71 12.7001 27.6 12.0301 27.23 11.5201C27.04 11.2501 26.79 11.0401 26.5 10.9001V10.3501C26.5 9.25013 25.6 8.35013 24.5 8.35013H23.2C22.89 8.13013 22.52 7.99013 22.13 7.98013L20.57 7.92014C20.56 7.87014 20.53 7.87012 20.51 7.87012Z" fill="#D81718"/>
</svg>
