<svg width="93" height="177" viewBox="0 0 93 177" fill="none" xmlns="http://www.w3.org/2000/svg">
<g clip-path="url(#clip0_650_88)">
<path d="M88.03 144.2L60.89 150.92L68.76 176.65L92.34 171.95L88.03 144.2ZM72.55 170.56L68.97 157.69L82.92 154.42L85.73 168.03L72.55 170.56ZM75.11 139.71C78.16 139.02 79.57 138.46 81.24 137.8L80.05 131.33C78.35 132.16 76.16 133.18 71.8 134.2L62 136.49C60.12 136.93 59.7 136.8 59.19 135.11L57.43 129.18C63.68 125.96 71.45 120.23 77.82 114.72L71.43 106.86C66.25 112.85 62.87 116.24 55.72 120.62L51.79 108.27L43.33 110.4L53.46 138.68C55.43 144.17 60.41 143.05 62.37 142.6L75.11 139.71ZM58.2 88.16C54.64 85.73 52.68 84.71 51.3 83.99L47.02 90.97C53.27 93.93 60.95 99.02 64.68 102.63L69.49 96.96C68.66 96.17 67.35 94.95 64.24 92.54C70.5 85.64 75.37 76.61 77.43 59.95L30.99 67.75L35.95 80.04L64.76 75.02C63.62 82.3 58.58 87.69 58.2 88.16ZM40.93 46.61C44.14 48.67 50.63 53.36 54.93 57.03L62.89 49.56C58.55 45.59 53.14 41.61 46.66 37.95C53.04 25.96 56.36 12.28 58.01 0L0 6.44L7.29 23.96L40.23 19.61C39.57 25.77 36.88 33.34 30.91 41.96C24.62 50.94 18.86 53.63 16.6 54.7L24.83 60.64C32.68 56.49 37.8 50.64 40.93 46.61Z" fill="white"/>
<path d="M88.66 45.45L81.15 55.56L91.38 49.39L88.66 45.45ZM76.98 53.63L80.66 43.34L76.14 42.06L76.98 53.63Z" fill="#F4DC29"/>
</g>
<defs>
<clipPath id="clip0_650_88">
<rect width="92.34" height="176.65" fill="white"/>
</clipPath>
</defs>
</svg>
