<svg width="433" height="135" viewBox="0 0 433 135" fill="none" xmlns="http://www.w3.org/2000/svg">
<path d="M10.98 16.97H17.91L17.78 20.33H36.99V26.62H17.61C17.57 27.44 17.57 28.51 17.57 29.38C18.39 29.29 19.81 29.12 22.01 29.12C31.96 29.12 38.98 33.51 38.98 42C38.98 53.93 25.72 54.75 21.58 55L19.64 49.01C24.64 48.75 26.14 48.67 28.55 47.37C30.66 46.25 32.21 44.1 32.21 41.56C32.21 40.96 32.21 37.08 27.34 35.49C25.4 42.55 18.21 52.84 9.38 52.84C1.76 52.84 0.940002 47.03 0.940002 44.4C0.940002 37.6 6.45 33.08 11.02 31.09C10.93 28.85 10.93 27.56 10.93 26.61H2.58V20.32H10.98V16.97ZM11.5 37.34C10.55 38.03 7.28 40.31 7.28 43.84C7.28 44.36 7.41 46.98 10.25 46.98C10.68 46.98 11.89 46.94 13.35 46.08C12.61 44.1 12.01 41.61 11.5 37.34ZM21.74 34.59C20.66 34.55 19.5 34.55 17.69 34.85C17.82 37 17.95 39.11 18.42 41.31C20.45 38.5 21.14 36.39 21.74 34.59Z" fill="white"/>
<path d="M70.18 16.72C70.31 18.74 70.4 20.04 70.57 21.41C74.75 21.07 76.6 20.94 80.69 19.99L81.47 25.89C77.59 26.71 76.95 26.75 71.44 27.18C71.7 28.73 71.87 29.51 72.3 30.93C78.67 30.59 81.95 29.81 83.93 29.34L84.92 35.11C79.8 36.23 75.53 36.49 74.54 36.53C75.96 39.2 76.99 40.36 78.03 41.48L71.92 45.18C70.71 43.85 68.86 41.78 66.88 36.78C66.58 36.82 66.49 36.82 66.02 36.82H48.02V31.14H65.24C65.07 30.28 65.02 29.98 64.64 27.48H49.57V21.67H63.82C63.35 18.7 63.3 18.35 63.17 17.19L70.18 16.72ZM61.14 41.17C60.19 41.99 58.38 43.5 58.38 45.39C58.38 48.32 63.03 48.53 68.8 48.53C75.09 48.53 78.57 48.19 80.25 47.97L80.51 54.6C79 54.73 76.63 54.9 71.77 54.9C63.55 54.9 60.79 54.56 58.89 54.08C52.13 52.36 51.35 47.92 51.35 46.46C51.35 42.41 54.49 39.61 55.91 38.32L61.14 41.17Z" fill="white"/>
<path d="M103.16 24.68C102.51 27.74 102.17 31.44 102.08 34.02C107.89 30.32 114.7 30.32 115.43 30.32C123.31 30.32 127.62 35.4 127.62 41.43C127.62 47.2 124.56 50.43 120.9 52.28C118.83 53.31 115.39 54.82 102.73 54.82C98.77 54.82 97.86 54.78 96.14 54.69L94.85 47.93C99.24 48.36 102.47 48.45 104.8 48.45C117.07 48.45 120.26 45.52 120.26 41.26C120.26 36.61 115.18 36.35 114.15 36.35C109.84 36.35 104.98 38.07 101.96 41.17V42.42L95.16 42.2C95.2 30.66 95.89 26.18 96.19 24.2L103.16 24.68ZM120.73 26.36C115.48 24.25 105.7 23.04 101.44 22.87L102.6 16.54C105.01 16.58 113.58 16.76 122.32 19.25L120.73 26.36Z" fill="white"/>
<path d="M162.32 17.53C162.1 21.19 161.98 22.18 161.76 23.73C173.04 25.5 175.15 33.89 175.15 39.02C175.15 42.59 174.33 49.31 166.19 52.97C162.57 54.61 159.13 54.82 156.03 54.95L153.75 48.79C160.81 48.96 168.3 47.11 168.3 38.41C168.3 31 163.26 30.14 160.76 29.71C158.39 43.58 152.02 52.19 144.87 52.19C140.13 52.19 136.56 48.14 136.56 41.94C136.56 40.56 136.56 34.96 141.47 29.93C140.22 25.71 139.75 22.91 139.45 20.97L145.87 19.16C146.09 21.23 146.3 23.38 146.9 26.05C150.86 24.07 153.66 23.77 155.08 23.64C155.34 18.73 155.38 18.21 155.38 17.18L162.32 17.53ZM143.85 36.57C143.51 37.17 142.47 39.11 142.47 41.74C142.47 42.99 142.9 45.83 145.44 45.83C146.09 45.83 147.03 45.7 148.54 44.06C147.77 43.2 145.74 40.92 143.85 36.57ZM151.9 38.89C152.93 36.61 153.88 33.42 154.61 29.59C152.97 29.85 150.91 30.32 148.5 31.79C149.71 35.28 151 37.56 151.9 38.89Z" fill="white"/>
<path d="M221.74 25.37C220.75 25.33 219.24 25.24 217.65 25.24C215.2 25.24 213.56 25.33 210.98 26.53C206.93 28.38 199.48 33.68 199.48 40.27C199.48 46.38 206.76 46.9 210.03 47.12C214.47 47.38 215.97 47.34 217.78 47.25L216.96 54.66C207.01 54.66 202.84 53.8 199.05 52.03C195.09 50.18 191.95 46.3 191.95 41.31C191.95 34.81 196.3 29.43 201.72 25.77C198.92 26.03 186.48 27.15 183.98 27.41L183.59 20.05C206.89 18.84 209.47 18.72 220.79 18.37C220.83 18.37 221.44 18.37 221.56 18.33L221.74 25.37Z" fill="white"/>
<path d="M236.29 23.9C236.05 25.4 235.64 27.95 235.64 32.27C235.64 35.61 235.91 43.03 237.92 45.41C238.26 45.82 238.94 46.26 239.79 46.26C241.97 46.26 243.74 42.52 244.96 39.15L248.23 40.92C245.92 47.25 243.06 50.32 239.45 50.32C233.02 50.32 231.72 40.62 231.72 32.04C231.72 28.23 232.03 25.03 232.16 23.43L236.29 23.9ZM257.2 46.64C257.1 40.24 257.03 36.94 255.6 33.09C254.31 29.55 252.64 27.44 251.24 26.04L254.27 23.79C258.53 28.39 261.52 33.02 261.52 46.39L257.2 46.64Z" fill="white"/>
<path d="M281.19 24.51V21.38H284.93V24.51H295.82V27.95H284.93V31.46H295.24V34.86H284.93V39.42C286.16 40 290.92 42.11 295.01 45.92L292.53 49.05C288.14 45.2 287.42 44.59 284.94 43.26V43.94C284.94 46.36 284.74 47.14 284.19 47.92C282.49 50.4 278.95 50.47 277.62 50.47C270.78 50.47 269.45 46.73 269.45 44.34C269.45 39.57 274.18 37.97 278.03 37.97C279.6 37.97 280.51 38.17 281.2 38.31V34.84H269.11V31.44H281.2V27.93H268.47V24.49H281.19V24.51ZM281.26 41.8C280.34 41.49 279.29 41.15 277.79 41.15C275.85 41.15 273.02 41.8 273.02 44.25C273.02 46.53 275.37 47.04 277.41 47.04C281.26 47.04 281.26 45.1 281.26 43.7V41.8Z" fill="white"/>
<path d="M327.45 21.21C327.62 23.39 327.72 25.5 327.72 28.12L333.2 27.98V31.49L327.75 31.59C327.55 40.37 327.34 43.03 321.83 43.03C320.54 43.03 319.24 42.93 318.02 42.69L317.92 39.18C319.59 39.45 321.46 39.59 321.7 39.59C323.74 39.59 324.12 38.5 324.12 31.69L312.41 32L312.27 40.31C312.17 46.47 312.88 46.68 321.53 46.68C324.53 46.68 327.56 46.61 330.55 46.2V49.91C329.46 50.01 328.13 50.15 321.8 50.15C315.67 50.15 312.61 49.88 310.7 48.14C308.93 46.47 308.73 44.4 308.73 40.31V32.07L303.52 32.21L303.45 28.7L308.73 28.56V21.75H312.54L312.44 28.49L324.08 28.22C324.05 26.86 323.84 22.4 323.71 21.34L327.45 21.21Z" fill="white"/>
<path d="M353.53 22.06C352.85 24.1 349.72 32.99 349.14 34.83C349.89 34.29 351.22 33.33 353.53 33.33C359.01 33.33 359.15 38.61 359.15 41.06V42.52C359.15 43.51 359.15 46.61 362.04 46.61C364.76 46.61 366.53 43.75 367.25 36.26L370.82 37.32C369.9 45.35 367.86 50.36 361.59 50.36C358.8 50.36 356.62 48.66 355.87 46.65C355.39 45.39 355.29 43.35 355.29 42.6V41.44C355.29 39.26 355.29 37.05 352.74 37.05C348.89 37.05 346.95 41.2 346.24 43.11C346.17 43.28 344.47 49.78 344.23 50.7L340.31 49.58C342.97 41.55 347.73 26.12 349.23 21.29L353.53 22.06Z" fill="white"/>
<path d="M388.28 21.45C388.14 22.91 387.97 24.28 387.53 27.48H391.65C398.49 27.48 398.94 33.61 398.94 36.98C398.94 38.31 398.74 43.62 397.17 47.09C395.64 50.49 392.23 50.49 391.11 50.49C389.24 50.49 387.06 50.22 385.97 50.08L385.77 46.44C386.72 46.64 388.36 46.95 390.37 46.95C392.55 46.95 393.6 46.37 394.22 44.29C394.76 42.52 395.21 38.37 395.21 36.15C395.21 32.64 394.22 31.01 391.19 31.04L386.93 31.07C384.75 43.09 381.89 48.33 380.9 50.2L377.09 48.67C380.94 42.47 382.5 34.44 383.12 31.1L377.91 31.17V27.46H383.7C384.04 24.91 384.21 23 384.35 21.16L388.28 21.45ZM404.05 40.2C403.13 30.91 400.27 27.57 399.01 26.11L401.94 24.27C403.81 26.14 406.98 29.65 408.03 39.59L404.05 40.2Z" fill="white"/>
<path d="M425.56 37.45C423.65 38.47 423.65 38.78 423.65 41.54H419.91C419.94 38.31 419.94 36.6 422.33 35.31L426.72 32.96C427.78 32.42 428.63 31.97 428.63 29.59C428.63 26.25 427.88 25.33 422.91 25.33C417.91 25.33 417.6 26.86 417.63 30.91H413.82C413.82 25.97 414.16 21.89 422.94 21.89C429.75 21.89 432.4 23.18 432.4 28.87C432.4 33.02 431.21 34.42 428.86 35.68L425.56 37.45ZM423.89 44.66V48.98H419.7V44.66H423.89Z" fill="white"/>
<path d="M20.2546 10.2611C22.9442 10.2535 25.1184 8.06252 25.1108 5.36737C25.1032 2.67222 22.9167 0.493505 20.2271 0.501078C17.5375 0.50865 15.3632 2.69964 15.3708 5.39479C15.3784 8.08994 17.5649 10.2687 20.2546 10.2611Z" fill="#F4DD27"/>
<path d="M67.4147 10.261C70.1044 10.2534 72.2786 8.06244 72.271 5.36729C72.2634 2.67214 70.0769 0.493428 67.3873 0.501001C64.6976 0.508574 62.5234 2.69957 62.531 5.39472C62.5386 8.08987 64.7251 10.2686 67.4147 10.261Z" fill="#F4DD27"/>
<path d="M109.245 10.261C111.935 10.2535 114.109 8.06246 114.101 5.36731C114.094 2.67216 111.907 0.493444 109.217 0.501016C106.528 0.508589 104.354 2.69958 104.361 5.39473C104.369 8.08988 106.555 10.2686 109.245 10.261Z" fill="#F4DD27"/>
<path d="M155.815 10.261C158.505 10.2534 160.679 8.06244 160.671 5.36729C160.664 2.67214 158.477 0.493428 155.788 0.501001C153.098 0.508574 150.924 2.69957 150.931 5.39472C150.939 8.08987 153.125 10.2686 155.815 10.261Z" fill="#F4DD27"/>
<path d="M205.085 10.261C207.775 10.2534 209.949 8.06241 209.942 5.36726C209.934 2.67211 207.747 0.493398 205.058 0.500971C202.368 0.508544 200.194 2.69954 200.202 5.39469C200.209 8.08984 202.396 10.2686 205.085 10.261Z" fill="#F4DD27"/>
<path d="M121.57 81.87H116.68V97.91H115.16V80.35H121.57V81.87Z" fill="white"/>
<path d="M141.47 88.86C139.9 90.83 137.76 91.24 136.69 91.24C135.12 91.24 134.22 90.72 132.4 89.67C130.92 88.81 130.06 88.7 129.25 88.7C128.5 88.7 126.78 88.83 125.5 90.54L124.49 89.66C124.88 89.19 125.33 88.65 126.12 88.2C126.96 87.73 128.11 87.32 129.32 87.32C130.61 87.32 131.78 87.75 133.4 88.71C134.51 89.37 135.4 89.89 136.66 89.89C138.83 89.89 140.03 88.48 140.46 87.98L141.47 88.86Z" fill="white"/>
<path d="M150.21 81.22C150.02 82.96 150 83.15 149.93 83.69H155.14V85.23H149.71C149.09 89.56 147.97 93.34 146.38 97.45L144.79 96.79C146.53 93.14 147.71 87.76 148.07 85.23H145.2V83.69H148.27C148.38 82.51 148.4 81.8 148.42 81.16L150.21 81.22ZM154.04 91.58C153.59 92.01 152.92 92.67 152.92 93.7C152.92 94.9 153.46 95.59 157.21 95.59C158.69 95.59 159.91 95.5 160.92 95.42L161 97.03C160.42 97.07 159.71 97.12 157.96 97.12C155.94 97.12 154.96 97.06 153.84 96.78C152.42 96.4 151.25 95.36 151.25 93.8C151.25 92.17 152.43 91.06 152.82 90.69L154.04 91.58ZM160.65 87.74C160.14 87.72 159.68 87.7 158.96 87.7C156.07 87.7 154.69 88.11 153.39 88.58L152.83 87.12C156.03 86 158.99 86.01 160.61 86.07L160.65 87.74ZM157.93 84.59C157.74 84.01 157.26 82.64 156.66 81.69L157.86 81.22C158.48 82.06 159.02 83.43 159.23 84.07L157.93 84.59ZM160.29 83.86C159.8 82.59 159.63 82.15 158.92 81.05L160.14 80.56C160.74 81.4 161.23 82.3 161.55 83.3L160.29 83.86Z" fill="white"/>
<path d="M170.54 81.23C170.47 81.83 170.37 82.58 170.03 84.66L172.28 84.64C175.18 84.62 176.36 86.1 176.36 89.7C176.36 91.59 175.97 94.83 174.95 96.05C174.05 97.16 172.85 97.19 172.14 97.19C170.96 97.19 169.67 96.97 169.2 96.89L169.09 95.2C170.72 95.5 171.81 95.59 172.18 95.59C172.44 95.59 173.38 95.59 173.87 94.62C174.43 93.5 174.69 90.89 174.69 89.52C174.69 86.43 173.7 86.13 171.64 86.17L169.75 86.21C169.04 89.7 168.29 93.16 166.3 97.1L164.63 96.43C166.34 93.45 167.4 89.91 168.08 86.26L164.95 86.32L164.91 84.71L168.34 84.69C168.58 83.04 168.68 82.07 168.77 81.09L170.54 81.23ZM179.65 91.35C179.16 86.31 177.5 84.44 176.8 83.67L178.09 82.85C178.97 83.71 180.83 85.66 181.42 91.06L179.65 91.35Z" fill="white"/>
<path d="M187.72 83.93C187.25 85.71 187.18 86.33 187.16 89.25C189.95 86.98 193.76 86.98 194.06 86.98C197.13 86.98 199.16 88.83 199.16 91.59C199.16 97.17 192.56 97.17 190.24 97.17C189.64 97.17 187.8 97.17 185.82 96.83L185.75 95.24C186.65 95.39 187.9 95.62 190.27 95.62C193.29 95.62 195.05 95.34 196.42 94.05C197.08 93.43 197.43 92.49 197.43 91.6C197.43 89.84 196.12 88.53 193.83 88.53C191.62 88.53 188.85 89.37 187.25 91.17C187.21 91.34 187.21 91.38 187.19 91.55L185.52 91.51C185.54 90.87 185.56 87.95 185.58 87.52C185.64 85.4 185.9 84.43 186.09 83.68L187.72 83.93ZM196.21 83.91C194.58 83.31 192.93 82.82 188.4 82.64L188.68 81.05C192.54 81.18 194.64 81.61 196.61 82.25L196.21 83.91Z" fill="white"/>
<path d="M206.65 91.82C206.61 93.94 206.46 95.94 205.97 97.63L203.99 96.43C204.38 95.11 204.59 92.99 204.61 91.63L206.65 91.82ZM213.14 90.34L210.73 91.08C210.69 90.94 210.61 90.36 210.59 90.24C210.47 90.26 210.4 90.28 209.64 90.36V98.52H207.17V90.61C206.74 90.63 204.74 90.8 204.28 90.84L204.18 88.3C205.21 88.28 205.33 88.28 205.58 88.26C205.79 88.01 205.97 87.79 206.45 87.17C205.11 85.44 204.47 84.94 204.02 84.59L205.36 82.2C205.73 82.47 205.77 82.51 205.85 82.59C206.51 81.5 206.9 80.63 207.15 80.05L209.69 80.79C209.09 81.92 208.54 82.81 207.5 84.23C207.87 84.66 207.99 84.81 208.08 84.95C209.3 83.22 209.65 82.62 209.98 82L212.45 82.85C211.23 84.71 209.89 86.5 208.41 88.15C208.66 88.13 209.91 88.07 210.18 88.05C210.08 87.56 210.01 87.31 209.87 86.79L212.01 86.11C212.53 87.55 212.81 88.42 213.14 90.09V80.69H221.78V95.26H222.62V98.02H211.49V95.88L210.56 96.07C210.42 93.35 210.23 92.4 210.09 91.76L212.01 91.39C212.36 92.79 212.52 94.75 212.57 95.26H213.13V90.34H213.14ZM215.87 83.41V85.59H219.04V83.41H215.87ZM215.87 88.11V90.27H219.04V88.11H215.87ZM215.87 92.85V95.26H219.04V92.85H215.87Z" fill="white"/>
<path d="M237.3 80.92C237.2 82.57 237.14 83.02 237.05 83.72C242.14 84.52 243.09 88.3 243.09 90.62C243.09 92.23 242.72 95.26 239.05 96.91C237.42 97.65 235.86 97.75 234.47 97.8L233.44 95.02C236.63 95.1 240.01 94.26 240.01 90.34C240.01 87 237.74 86.61 236.61 86.42C235.54 92.67 232.67 96.56 229.44 96.56C227.3 96.56 225.69 94.73 225.69 91.94C225.69 91.32 225.69 88.79 227.9 86.52C227.34 84.62 227.12 83.35 226.99 82.48L229.88 81.66C229.98 82.59 230.07 83.56 230.35 84.77C232.14 83.88 233.4 83.74 234.04 83.68C234.16 81.47 234.18 81.23 234.18 80.77L237.3 80.92ZM228.97 89.51C228.81 89.78 228.35 90.66 228.35 91.84C228.35 92.4 228.54 93.69 229.69 93.69C229.98 93.69 230.41 93.63 231.09 92.89C230.74 92.5 229.82 91.47 228.97 89.51ZM232.6 90.56C233.07 89.53 233.49 88.09 233.82 86.36C233.08 86.48 232.15 86.69 231.06 87.35C231.61 88.93 232.19 89.95 232.6 90.56Z" fill="white"/>
<path d="M253.29 80.59C253.23 80.94 252.98 82.42 252.94 82.71H256.32V85.66H252.45C251.85 88.61 250.57 92.83 249.54 95.72L246.34 94.83C247.21 93.04 248.63 88.94 249.29 85.66H246.69V82.71H249.8C249.96 81.64 249.99 81.14 250.03 80.48L253.29 80.59ZM263.86 85.74C263.39 85.7 262.89 85.64 262.29 85.64C261.59 85.64 260.99 85.72 260.5 85.78L260.62 90.99C263.09 92.39 263.77 93.03 264.25 93.48L262.52 96.43C262 95.87 261.24 95.17 260.38 94.39L260.36 94.8C260.26 96.99 258.38 97.83 256.22 97.83C252.98 97.83 251.4 96.1 251.4 93.96C251.4 92.25 252.55 89.98 256.37 89.98C256.86 89.98 257.19 90 257.54 90.04L257.35 83.03C258.26 82.86 259.8 82.56 263.58 82.45L263.86 85.74ZM257.62 92.81C257.25 92.67 256.88 92.54 256.22 92.54C255.95 92.54 254.14 92.56 254.14 93.88C254.14 94.29 254.35 95.2 256 95.2C257.59 95.2 257.61 94.38 257.61 93.9V92.81H257.62Z" fill="white"/>
<path d="M271.22 81.8C270.89 83.8 270.66 85.72 270.66 87.74C270.66 89.51 270.8 93.78 272.35 93.78C273.34 93.78 274.2 91.74 274.74 90.15L277.26 91.63C276.68 93.34 275.16 97.36 272.15 97.36C268.05 97.36 267.59 90.7 267.59 87.45C267.59 85.45 267.8 83.06 267.94 81.51L271.22 81.8ZM281.4 95.43C281.42 95.04 281.44 94.63 281.44 94.03C281.44 87.41 279.26 84.59 278.02 83.54L280.51 81.89C282.26 83.66 284.9 86.36 284.76 95.23L281.4 95.43Z" fill="white"/>
<path d="M292.46 81.35L292.05 92.19H289.6L289.19 81.35H292.46ZM292.36 93.61V96.66H289.29V93.61H292.36Z" fill="white"/>
<path d="M303.44 99.13H296.36V97.45H301.76V79.73H303.44V99.13Z" fill="white"/>
<path d="M62.64 117.46H57.75V133.5H56.23V115.94H62.64V117.46Z" fill="white"/>
<path d="M74.68 128.56C72.38 129.7 68.27 131.31 65.67 132.1L65.37 130.56C66.16 130.34 66.66 130.17 67.32 129.94L67.17 116.5H68.74L68.87 129.39C71.01 128.62 72.43 128.1 74.38 127.2L74.68 128.56ZM71.21 132.04C75.52 130.95 79.25 128.87 79.47 120.74L79.58 116.54L81.21 116.56L81.12 120.85C81.06 123.51 80.61 125.95 79.45 128.08C80.78 129.34 82.05 130.68 83.14 132.16L81.83 133.45C81.23 132.44 80.74 131.73 78.63 129.35C76.36 132.29 73.21 133.19 72.03 133.55L71.21 132.04ZM74.85 123.44C74.29 122.37 73.44 120.89 71.29 118.36L72.51 117.44C73.78 118.77 75.17 120.59 76.26 122.46L74.85 123.44Z" fill="white"/>
<path d="M90.92 118.46C90.6 117.75 90.06 116.89 89.83 116.57L91.46 116.16C92.04 117.04 92.49 118 92.7 118.46H96.95C97.47 117.58 97.66 117.13 97.98 116.16L99.76 116.42C99.46 117.19 99.16 117.75 98.75 118.46H103.42V119.88H86.01V118.46H90.92ZM94.2 121.57V132.08C94.2 132.62 94.18 133.54 92.74 133.54H90.51L90.19 131.97L92.18 131.99C92.57 131.99 92.7 131.95 92.7 131.54V129.18H88.75V133.55H87.27V121.58H94.2V121.57ZM92.7 122.93H88.75V124.75H92.7V122.93ZM92.7 125.99H88.75V127.88H92.7V125.99ZM96.24 130.15V121.66H97.78V130.15H96.24ZM102.18 121.1V131.95C102.18 133.45 101.22 133.54 100.57 133.54H97.61L97.33 131.95L100.16 131.97C100.65 131.97 100.65 131.74 100.65 131.52V121.1H102.18Z" fill="white"/>
<path d="M110.24 132.98C108.91 130.98 107.75 129.76 107.13 129.1L108.55 128.05C109.77 129.17 111.1 130.75 111.89 131.82L110.24 132.98Z" fill="white"/>
<path d="M127.34 122.77H129.23C129.66 122.13 130.09 121.23 130.37 120.58L131.81 121.2C131.66 121.48 131.47 121.87 130.89 122.77H135.37V124.03H129.6C130.63 124.91 132.79 126.22 135.52 126.88L134.75 128.23C134.04 127.97 133.7 127.84 133.27 127.65V133.57H131.79V132.95H121.56V133.57H120.08V127.71C119.24 128.07 118.97 128.16 118.56 128.31L117.85 126.94C121.45 126.12 123.4 124.39 123.79 124.04H118.02V122.78H122.44C122.21 122.33 121.86 121.77 121.52 121.28L122.79 120.74C122.4 120.76 121.95 120.76 120.9 120.76L120.52 119.54C127.9 119.54 129.98 119.26 132.14 118.85L132.66 119.99C131.8 120.16 130.37 120.42 127.32 120.59V122.77H127.34ZM127.4 116.19V117.2H134.93V121.08H133.41V118.49H119.97V121.08H118.45V117.2H125.85V116.19H127.4ZM125.95 127.64H121.57V129.1H125.95V127.64ZM125.95 130.15H121.57V131.69H125.95V130.15ZM125.41 124.02C124.98 124.53 124.12 125.52 122.47 126.49H125.96V124.02H125.41ZM125.95 120.65C125.09 120.69 123.74 120.71 122.84 120.73C123.29 121.46 123.53 121.89 124 122.77H125.95V120.65ZM131 126.49C130.42 126.13 129.26 125.4 127.87 124.02H127.35V126.49H131ZM131.8 127.64H127.34V129.1H131.8V127.64ZM131.8 130.15H127.34V131.69H131.8V130.15Z" fill="white"/>
<path d="M153.18 131.57H155.8V132.98H138.56V131.57H141.22V123.38C140.26 123.89 139.53 124.15 138.97 124.35L138.26 122.87C141.76 121.84 143.96 120 144.78 119.23H138.73V117.84H146.49V116.17H147.93V117.84H155.63V119.23H149.67C150.57 120.09 152.61 121.87 156.1 122.94L155.31 124.36C154.75 124.13 154.11 123.89 153.17 123.4V131.57H153.18ZM146.49 123.1V119.3C144.67 121.53 142.11 122.92 141.77 123.1H146.49ZM151.71 124.43H142.68V125.97H151.71V124.43ZM151.71 127.21H142.68V128.73H151.71V127.21ZM151.71 129.94H142.68V131.57H151.71V129.94ZM152.59 123.1C151.35 122.37 149.37 121.1 147.92 119.28V123.1H152.59Z" fill="white"/>
<path d="M162.22 116.88C162.22 117.03 162.01 125.12 162.01 126.68C162.01 128.91 162.09 131.2 165.83 131.2C170.51 131.2 171.23 127.73 171.75 125.09L173.44 125.54C173.01 127.79 172.05 132.79 165.94 132.79C164.2 132.79 162.02 132.38 160.99 130.5C160.28 129.21 160.26 127.26 160.26 125.01C160.26 123.72 160.37 118.04 160.33 116.88H162.22Z" fill="white"/>
<path d="M181.97 116.81C181.91 117.47 181.84 118.08 181.67 119.28H186.88V120.85H181.45C180.98 123.4 179.89 129.23 178.19 132.95L176.48 132.37C178.26 128.92 179.31 123.28 179.7 120.85H176.93V119.28H179.91C180.02 118.27 180.06 117.39 180.1 116.71L181.97 116.81ZM185.68 127.04C184.82 128.28 184.57 128.61 184.57 129.27C184.57 130.94 186.35 131.16 188.92 131.16C190.96 131.16 192.12 131.05 192.74 130.99L192.72 132.66C192.01 132.7 191.43 132.74 189.89 132.74C187.15 132.74 182.99 132.74 182.99 129.39C182.99 128.19 183.48 127.4 184.4 126.22L185.68 127.04ZM192.38 123.33C191.95 123.29 191.5 123.27 190.79 123.27C188.99 123.27 186.72 123.49 185.08 124.15L184.57 122.71C186.46 122 188.17 121.59 192.38 121.64V123.33Z" fill="white"/>
<path d="M199.35 117.03C198.88 119.97 198.64 122.63 198.64 125.61C198.64 129.75 199.11 131.66 199.3 132.47L197.54 132.69C197.3 131.25 196.98 129.13 196.98 125.57C196.98 122.55 197.19 119.91 197.54 116.91L199.35 117.03ZM207.86 120.74C207.84 120.12 207.82 117.37 207.78 116.8H209.47C209.49 117.44 209.49 120.17 209.51 120.74H212.71V122.26H209.52C209.6 125.46 209.61 127.23 208.77 129.14C207.65 131.67 205.42 132.53 202.14 133L201.5 131.5C203.88 131.22 206.26 130.77 207.2 128.52C207.93 126.74 207.91 125.47 207.86 122.26H201.17V120.74H207.86Z" fill="white"/>
<path d="M222.9 116.81C222.88 117.39 222.88 118.05 222.88 119.11C222.88 121.3 222.92 121.92 223.27 122.69C224.3 122.37 225.76 121.9 230.07 121.13L230.37 122.89C228.65 123.08 218.23 124.31 218.23 128.61C218.23 130.78 220.16 131.16 224.94 131.16C226.05 131.16 228.41 131.14 230.95 130.88L230.97 132.6C229.08 132.71 226.85 132.77 224.94 132.77C221.68 132.77 220.31 132.64 218.83 132.04C217.31 131.44 216.51 130.13 216.51 128.84C216.51 125.37 220.5 123.76 221.76 123.24C221.14 121.87 221.07 120.92 221.07 116.81H222.9ZM228.24 120.01C227.75 118.14 227.32 117.41 227.08 116.97L228.35 116.61C228.89 117.45 229.4 118.69 229.61 119.59L228.24 120.01ZM230.6 119.32C230.26 118.08 230 117.45 229.44 116.43L230.73 116.05C231.16 116.72 231.76 118.05 231.99 118.88L230.6 119.32Z" fill="white"/>
<path d="M242.12 130.42C242.74 130.71 243.69 130.89 244.51 130.89H254.9L254.3 133.69H244.1C243.26 133.69 241.46 133.4 240 131.67C239.57 132.16 238.43 133.36 237.11 134.21L236.02 131.06C236.78 130.71 237.4 130.3 237.98 129.82V125.61H236.25V122.85H240.8L240.78 128.52C240.9 129.06 241.05 129.86 241.98 130.35V119.98H244.72C244.45 119.81 244.2 119.65 243.52 119.26L244.69 118.46H241.91V116.21H253.47V118.46C253.02 118.79 252.46 119.22 250.91 119.98H253.96V128.74C253.96 129.56 253.67 130.43 252.44 130.43H250.07L249.62 128.2H250.79C251.1 128.2 251.22 128.06 251.22 127.73V127.24H249.3V130.35H246.58V127.24H244.72V130.43H242.12V130.42ZM238.35 115.76C239.4 116.5 240.74 117.72 241.57 118.87L239.41 121.03C238.11 119.42 237.55 118.78 236.34 117.84L238.35 115.76ZM244.71 121.95V122.9H246.57V121.95H244.71ZM244.71 124.56V125.51H246.57V124.56H244.71ZM246.47 118.46C246.61 118.58 247.4 119.2 247.85 119.59C248.74 119.08 248.98 118.95 249.58 118.46H246.47ZM249.29 121.95V122.9H251.21V121.95H249.29ZM249.29 124.56V125.51H251.21V124.56H249.29Z" fill="white"/>
<path d="M261.98 119.74C261.69 121.12 261.53 122.79 261.49 123.95C264.11 122.28 267.18 122.28 267.51 122.28C271.06 122.28 273.01 124.57 273.01 127.29C273.01 129.89 271.63 131.35 269.98 132.19C269.05 132.66 267.49 133.34 261.78 133.34C259.99 133.34 259.59 133.32 258.81 133.28L258.23 130.23C260.21 130.42 261.67 130.46 262.72 130.46C268.26 130.46 269.69 129.14 269.69 127.22C269.69 125.12 267.4 125.01 266.93 125.01C264.99 125.01 262.79 125.79 261.43 127.19V127.75L258.36 127.65C258.38 122.44 258.69 120.42 258.83 119.53L261.98 119.74ZM269.9 120.5C267.53 119.55 263.12 119 261.2 118.93L261.72 116.07C262.81 116.09 266.67 116.17 270.62 117.29L269.9 120.5Z" fill="white"/>
<path d="M283.4 116.18C283.34 116.53 283.09 118.01 283.05 118.3H286.43V121.25H282.56C281.96 124.2 280.68 128.42 279.65 131.31L276.45 130.42C277.32 128.63 278.74 124.53 279.4 121.25H276.8V118.3H279.91C280.07 117.23 280.1 116.73 280.14 116.07L283.4 116.18ZM293.97 121.33C293.5 121.29 293 121.23 292.4 121.23C291.7 121.23 291.1 121.31 290.61 121.37L290.73 126.58C293.2 127.98 293.88 128.62 294.36 129.07L292.63 132.02C292.11 131.46 291.35 130.76 290.49 129.98L290.47 130.39C290.37 132.58 288.49 133.42 286.33 133.42C283.09 133.42 281.51 131.69 281.51 129.55C281.51 127.84 282.66 125.57 286.48 125.57C286.97 125.57 287.3 125.59 287.65 125.63L287.46 118.62C288.37 118.45 289.91 118.15 293.69 118.04L293.97 121.33ZM287.74 128.4C287.37 128.26 287 128.13 286.34 128.13C286.07 128.13 284.26 128.15 284.26 129.47C284.26 129.88 284.47 130.79 286.12 130.79C287.71 130.79 287.73 129.97 287.73 129.49V128.4H287.74Z" fill="white"/>
<path d="M304.44 116.2C304.36 117.09 304.27 118.1 304.07 119.48H305.76C309.04 119.48 310.05 121.6 310.05 125.37C310.05 127.12 309.7 130.67 308.65 131.97C308.11 132.65 307.19 133.33 305.66 133.33C304.73 133.33 303.35 133.14 302.61 133.02L302.4 129.97C304.15 130.26 304.89 130.28 305.02 130.28C305.35 130.28 306.03 130.28 306.38 129.43C306.96 127.93 307.04 124.94 307.04 124.77C307.04 122.98 306.61 122.36 305.29 122.38L303.6 122.4C303.06 125.04 301.97 130.34 300.24 133.28L297.25 131.76C299.15 128.54 300.05 124.59 300.46 122.42L297.72 122.44V119.49H300.93C301.09 117.88 301.12 117.28 301.22 116.05L304.44 116.2ZM312.08 127.37C311.96 122.77 310.76 120.67 309.69 119.17L312.37 117.87C314.27 120.47 315.07 123.08 315.32 126.82L312.08 127.37Z" fill="white"/>
<path d="M320.45 130.42C324.84 130.38 329.7 130.3 329.7 126.22C329.7 124.32 328.36 123.48 326.77 123.48C325.35 123.48 323.86 123.79 318.71 124.86L317.99 121.89C320.18 121.52 325.1 120.7 326.89 120.7C330.11 120.7 332.74 122.6 332.74 126.24C332.74 131.6 328.33 133.16 321.12 133.14L320.45 130.42Z" fill="white"/>
<path d="M342.97 116.42C342.91 116.94 342.89 117.1 342.7 118.48H347.13V121.37H342.29C341.53 125.95 341.1 128.13 339.43 133.39L336.24 132.4C337.68 129.27 338.65 124.9 339.23 121.37H336.71V118.48H339.6C339.68 117.76 339.72 117.22 339.77 116.21L342.97 116.42ZM346.91 127.61C346.58 127.96 346.06 128.56 346.06 129.2C346.06 130.23 347.23 130.37 349.17 130.37C351.68 130.37 352.55 130.27 353.25 130.2L353.29 133.23C352.79 133.25 352.24 133.29 350.71 133.29C347.8 133.29 346.24 133.19 345.02 132.57C344.59 132.36 343.16 131.54 343.16 129.77C343.16 129.3 343.16 127.96 344.73 126.23L346.91 127.61ZM353.01 124.17C352.41 124.15 351.82 124.11 350.95 124.11C348.19 124.11 346.89 124.46 345.65 124.93L344.74 122.39C346.53 121.56 348.7 121.11 353 121.17L353.01 124.17Z" fill="white"/>
<path d="M362.71 133.78H356.3V132.26H361.19V116.22H362.71V133.78Z" fill="white"/>
<path d="M213.847 76.4912C214.968 76.4881 215.875 75.5767 215.872 74.4555C215.868 73.3344 214.957 72.4281 213.836 72.4313C212.715 72.4344 211.808 73.3458 211.812 74.467C211.815 75.5881 212.726 76.4944 213.847 76.4912Z" fill="#F4DD27"/>
<path d="M234.127 76.4912C235.249 76.4881 236.155 75.5767 236.152 74.4555C236.149 73.3344 235.237 72.4281 234.116 72.4313C232.995 72.4344 232.089 73.3458 232.092 74.467C232.095 75.5881 233.006 76.4944 234.127 76.4912Z" fill="#F4DD27"/>
<path d="M256.108 76.4913C257.229 76.4881 258.135 75.5767 258.132 74.4556C258.129 73.3344 257.217 72.4281 256.096 72.4313C254.975 72.4344 254.069 73.3459 254.072 74.467C254.075 75.5881 254.986 76.4944 256.108 76.4913Z" fill="#F4DD27"/>
<path d="M275.498 76.4913C276.619 76.4881 277.525 75.5767 277.522 74.4556C277.519 73.3344 276.607 72.4281 275.486 72.4313C274.365 72.4344 273.459 73.3459 273.462 74.467C273.465 75.5881 274.376 76.4944 275.498 76.4913Z" fill="#F4DD27"/>
<path d="M246.507 112.061C247.629 112.058 248.535 111.147 248.532 110.026C248.529 108.905 247.617 107.998 246.496 108.001C245.375 108.005 244.469 108.916 244.472 110.037C244.475 111.158 245.386 112.065 246.507 112.061Z" fill="#F4DD27"/>
<path d="M265.217 112.061C266.339 112.058 267.245 111.147 267.242 110.026C267.239 108.905 266.327 107.998 265.206 108.001C264.085 108.005 263.179 108.916 263.182 110.037C263.185 111.158 264.096 112.065 265.217 112.061Z" fill="#F4DD27"/>
<path d="M285.308 112.061C286.429 112.058 287.335 111.147 287.332 110.026C287.329 108.905 286.417 107.998 285.296 108.001C284.175 108.005 283.269 108.916 283.272 110.037C283.275 111.158 284.186 112.065 285.308 112.061Z" fill="#F4DD27"/>
<path fill-rule="evenodd" clip-rule="evenodd" d="M303.49 108.54C305.66 106.88 308.12 109.34 306.47 111.52C304.29 113.17 301.84 110.71 303.49 108.54Z" fill="#F4DD27"/>
<path fill-rule="evenodd" clip-rule="evenodd" d="M324.31 108.54C326.48 106.88 328.94 109.34 327.29 111.52C325.11 113.17 322.65 110.71 324.31 108.54Z" fill="#F4DD27"/>
<path fill-rule="evenodd" clip-rule="evenodd" d="M343.49 108.54C345.66 106.88 348.12 109.34 346.47 111.52C344.29 113.17 341.84 110.71 343.49 108.54Z" fill="#F4DD27"/>
</svg>
