<svg width="28" height="21" viewBox="0 0 28 21" fill="none" xmlns="http://www.w3.org/2000/svg">
<path d="M21.4 10.7001C21.4 11.2901 20.48 11.8001 20.38 12.3701C20.28 12.9501 20.97 13.7401 20.77 14.2801C20.57 14.8301 19.53 14.9901 19.24 15.4901C18.95 16.0001 19.33 16.9801 18.95 17.4201C18.57 17.8701 17.54 17.6601 17.1 18.0401C16.65 18.4101 16.68 19.4701 16.17 19.7601C15.67 20.0501 14.77 19.5101 14.22 19.7101C13.68 19.9101 13.34 20.9001 12.76 21.0001C12.19 21.1001 11.54 20.2801 10.94 20.2801C10.35 20.2801 9.69 21.1001 9.12 21.0001C8.54 20.9001 8.2 19.9001 7.66 19.7101C7.11 19.5101 6.21 20.0501 5.71 19.7601C5.2 19.4701 5.23 18.4201 4.78 18.0401C4.33 17.6601 3.3 17.8701 2.93 17.4201C2.56 16.9701 2.93 15.9901 2.64 15.4901C2.35 14.9901 1.31 14.8301 1.11 14.2801C0.910001 13.7401 1.6 12.9501 1.5 12.3701C1.4 11.8001 0.48 11.3001 0.48 10.7001C0.48 10.1101 1.4 9.60006 1.5 9.03006C1.6 8.45006 0.910001 7.66006 1.11 7.12006C1.31 6.57006 2.35 6.41007 2.64 5.91007C2.93 5.40007 2.55 4.42007 2.93 3.98007C3.31 3.53007 4.34 3.74005 4.78 3.36005C5.23 2.99005 5.2 1.93008 5.71 1.64008C6.21 1.35008 7.11 1.89007 7.66 1.69007C8.2 1.49007 8.54 0.500057 9.12 0.400057C9.69 0.300057 10.34 1.12006 10.94 1.12006C11.53 1.12006 12.19 0.300057 12.76 0.400057C13.34 0.500057 13.68 1.50007 14.22 1.69007C14.77 1.89007 15.67 1.35008 16.17 1.64008C16.68 1.93008 16.65 2.98005 17.1 3.36005C17.55 3.74005 18.58 3.53007 18.95 3.98007C19.32 4.43007 18.95 5.41007 19.24 5.91007C19.53 6.41007 20.57 6.57006 20.77 7.12006C20.97 7.66006 20.28 8.45006 20.38 9.03006C20.48 9.60006 21.4 10.1001 21.4 10.7001Z" fill="#D81718"/>
<path d="M8.33 16.3605C7.79 15.8705 7.38 15.0805 7.38 13.3005V13.2705H9.44V13.3005C9.44 14.3105 9.44 15.1605 10.39 15.1605C11.39 15.1605 11.39 14.2305 11.39 12.9805V12.3905C11.39 11.1905 11.39 10.2805 10.48 10.2805C10.04 10.2805 9.64 10.4805 9.33 11.0205H7.64L7.81 4.77051H13.2V6.66052H9.57L9.5 8.94052C10.02 8.57052 10.62 8.38052 11.21 8.38052C11.8 8.38052 12.31 8.57052 12.71 8.94052C13.32 9.50052 13.54 10.4805 13.54 12.3905V12.9805C13.54 14.9405 13.13 15.8005 12.54 16.3205C12.03 16.7805 11.32 17.0505 10.41 17.0505C9.5 17.0505 8.8 16.7805 8.33 16.3605Z" fill="#FFF100"/>
<path d="M21.13 17.9696C20.6 17.9696 20.17 17.5596 20.13 17.0396C19.72 17.2796 19.29 17.5096 18.82 17.7196C18.69 17.7796 18.55 17.8096 18.41 17.8096C18.05 17.8096 17.71 17.6196 17.53 17.2896L16.9 16.1196C16.76 15.8596 16.74 15.5396 16.85 15.2696C16.9 15.1596 16.96 15.0596 17.04 14.9696C16.98 14.8396 16.94 14.6896 16.94 14.5396V13.4396C16.94 13.2596 16.98 13.0996 17.06 12.9596L16.89 12.3496C16.81 12.0496 16.86 11.7296 17.04 11.4896C17.07 11.4496 17.1 11.4196 17.13 11.3796L16.94 10.8796C16.84 10.6096 16.86 10.2996 17 10.0396C17.14 9.77958 17.39 9.59956 17.68 9.54956C19.14 9.25956 19.46 8.92956 19.78 8.60956C19.97 8.41956 20.23 8.30957 20.49 8.30957C20.5 8.30957 22.09 8.36957 22.09 8.36957C22.38 8.37957 22.65 8.51957 22.83 8.74957H24.5C25.05 8.74957 25.5 9.19957 25.5 9.74957V10.7896C25.5 10.8896 25.49 10.9896 25.46 11.0796C25.52 11.0796 25.57 11.0796 25.62 11.0796C25.94 11.0796 26.23 11.2396 26.42 11.4996C26.6 11.7596 26.66 12.0896 26.56 12.3896L26.37 12.9596C26.45 13.0996 26.49 13.2696 26.49 13.4396V14.5396C26.49 14.7196 26.45 14.8796 26.37 15.0196C26.43 15.0996 26.48 15.1796 26.52 15.2696C26.64 15.5496 26.62 15.8696 26.47 16.1296L25.83 17.3096C25.65 17.6396 25.31 17.8296 24.95 17.8296C24.81 17.8296 24.66 17.7996 24.53 17.7396C24.07 17.5296 23.66 17.3096 23.29 17.0896C23.24 17.5896 22.81 17.9896 22.29 17.9896H21.13V17.9696Z" fill="#FFF100"/>
<path d="M20.51 9.2998L22.07 9.3598C21.97 9.4998 21.95 9.53981 21.79 9.73981H24.52V10.7798C24.38 10.9598 24.06 11.3798 23.27 11.8598C24.23 12.0498 25.08 12.0698 25.62 12.0798L25.24 13.2598C24.06 13.1598 22.89 12.9598 21.79 12.5398C20.3 12.9998 19.17 13.1598 18.21 13.2698L17.87 12.0698C18.4 12.0498 19.26 12.0198 20.4 11.7898C20.02 11.5098 19.82 11.3198 19.69 11.1798C19.05 11.4398 18.59 11.5798 18.33 11.6498L17.91 10.5098C19.47 10.1998 20 9.8098 20.51 9.2998ZM22.86 10.7798H20.71C20.89 10.9298 21.19 11.1598 21.73 11.4098C22.32 11.1798 22.59 10.9798 22.86 10.7798ZM22.32 12.8198V13.4298H25.51V14.5298H23.3C24.24 15.2298 25.1 15.4998 25.62 15.6498L24.98 16.8298C23.78 16.2698 22.95 15.7098 22.33 15.0198V16.9898H21.14V15.0398C20.12 16.0598 18.85 16.6298 18.42 16.8198L17.79 15.6498C18.23 15.5098 19.37 15.1498 20.15 14.5398H17.96V13.4398H21.14V12.8298H22.32M20.51 7.2998C19.98 7.2998 19.46 7.50981 19.08 7.89981C18.85 8.12981 18.66 8.32981 17.5 8.55981C16.92 8.66981 16.43 9.0298 16.14 9.5498C15.85 10.0598 15.81 10.6698 16.01 11.2198L16.02 11.2598C15.83 11.6898 15.79 12.1698 15.93 12.6198L16.01 12.9098C15.96 13.0798 15.94 13.2598 15.94 13.4398V14.5398C15.94 14.6298 15.95 14.7198 15.96 14.8098C15.95 14.8398 15.93 14.8698 15.92 14.8998C15.69 15.4498 15.73 16.0798 16.01 16.6098L16.64 17.7798C17 18.4398 17.69 18.8298 18.4 18.8298C18.67 18.8298 18.95 18.7698 19.21 18.6598C19.38 18.5798 19.55 18.5098 19.71 18.4298C20.07 18.7898 20.57 19.0098 21.11 19.0098H22.3C22.83 19.0098 23.32 18.7998 23.68 18.4598C23.82 18.5298 23.96 18.5998 24.11 18.6698C24.38 18.7998 24.67 18.8598 24.95 18.8598C25.66 18.8598 26.35 18.4798 26.71 17.8198L27.35 16.6398C27.63 16.1198 27.67 15.4998 27.45 14.9498C27.47 14.8298 27.49 14.6998 27.49 14.5698V13.4698C27.49 13.2998 27.47 13.1298 27.43 12.9698L27.51 12.7298C27.71 12.1298 27.6 11.4598 27.23 10.9498C27.04 10.6798 26.79 10.4698 26.5 10.3298V9.77982C26.5 8.67982 25.6 7.77982 24.5 7.77982H23.2C22.89 7.55982 22.52 7.41982 22.13 7.40982L20.57 7.34982C20.56 7.29982 20.53 7.2998 20.51 7.2998Z" fill="#D81718"/>
</svg>
