<svg width="28" height="22" viewBox="0 0 28 22" fill="none" xmlns="http://www.w3.org/2000/svg">
<path d="M21.4 11.12C21.4 11.71 20.48 12.22 20.38 12.79C20.28 13.37 20.97 14.16 20.77 14.7C20.57 15.25 19.53 15.41 19.24 15.91C18.95 16.42 19.33 17.4 18.95 17.84C18.57 18.29 17.54 18.08 17.1 18.46C16.65 18.83 16.68 19.89 16.17 20.18C15.67 20.47 14.77 19.93 14.22 20.13C13.68 20.33 13.34 21.32 12.76 21.42C12.19 21.52 11.54 20.7 10.94 20.7C10.35 20.7 9.69 21.52 9.12 21.42C8.54 21.32 8.2 20.32 7.66 20.13C7.11 19.93 6.21 20.47 5.71 20.18C5.2 19.89 5.23 18.84 4.78 18.46C4.33 18.08 3.3 18.29 2.93 17.84C2.56 17.39 2.93 16.41 2.64 15.91C2.35 15.41 1.31 15.25 1.11 14.7C0.910001 14.16 1.6 13.37 1.5 12.79C1.4 12.22 0.48 11.72 0.48 11.12C0.48 10.53 1.4 10.02 1.5 9.44997C1.6 8.86997 0.910001 8.07997 1.11 7.53997C1.31 6.98997 2.35 6.82997 2.64 6.32997C2.93 5.81997 2.55 4.83997 2.93 4.39997C3.31 3.94997 4.34 4.15997 4.78 3.77997C5.23 3.40997 5.2 2.34997 5.71 2.05997C6.21 1.76997 7.11 2.30997 7.66 2.10997C8.2 1.90997 8.54 0.919979 9.12 0.819979C9.69 0.719979 10.34 1.53997 10.94 1.53997C11.53 1.53997 12.19 0.719979 12.76 0.819979C13.34 0.919979 13.68 1.91997 14.22 2.10997C14.77 2.30997 15.67 1.76997 16.17 2.05997C16.68 2.34997 16.65 3.39997 17.1 3.77997C17.55 4.15997 18.58 3.94997 18.95 4.39997C19.32 4.84997 18.95 5.82997 19.24 6.32997C19.53 6.82997 20.57 6.98997 20.77 7.53997C20.97 8.07997 20.28 8.86997 20.38 9.44997C20.48 10.02 21.4 10.53 21.4 11.12Z" fill="#D81718"/>
<path d="M10.6 16.0404V14.6204H6.99V12.5404L10.42 5.19043H12.68L12.66 6.42043V12.7904H13.93V14.6104H12.66V16.0304L12.68 17.2604H10.59L10.6 16.0404ZM10.6 12.8004V10.3704C10.6 9.81042 10.65 8.93042 10.7 8.51042H10.63C10.51 8.90042 10.34 9.34042 10.14 9.79042L8.74 12.8004H10.6Z" fill="#FFF100"/>
<path d="M21.13 18.3992C20.6 18.3992 20.17 17.9893 20.13 17.4693C19.72 17.7093 19.29 17.9392 18.82 18.1492C18.69 18.2092 18.55 18.2393 18.41 18.2393C18.05 18.2393 17.71 18.0493 17.53 17.7193L16.9 16.5493C16.76 16.2893 16.74 15.9692 16.85 15.6992C16.9 15.5892 16.96 15.4892 17.04 15.3992C16.98 15.2692 16.94 15.1193 16.94 14.9693V13.8692C16.94 13.6892 16.98 13.5293 17.06 13.3893L16.89 12.7793C16.81 12.4793 16.86 12.1593 17.04 11.9193C17.07 11.8793 17.1 11.8492 17.13 11.8092L16.94 11.3092C16.84 11.0392 16.86 10.7293 17 10.4693C17.14 10.2093 17.39 10.0292 17.68 9.97925C19.14 9.68925 19.46 9.35925 19.78 9.03925C19.97 8.84925 20.23 8.73926 20.49 8.73926C20.5 8.73926 22.09 8.79926 22.09 8.79926C22.38 8.80926 22.65 8.94924 22.83 9.17924H24.5C25.05 9.17924 25.5 9.62924 25.5 10.1792V11.2193C25.5 11.3193 25.49 11.4192 25.46 11.5092C25.52 11.5092 25.57 11.5092 25.62 11.5092C25.94 11.5092 26.23 11.6692 26.42 11.9292C26.6 12.1892 26.66 12.5193 26.56 12.8193L26.37 13.3893C26.45 13.5293 26.49 13.6992 26.49 13.8692V14.9693C26.49 15.1493 26.45 15.3092 26.37 15.4492C26.43 15.5292 26.48 15.6092 26.52 15.6992C26.64 15.9792 26.62 16.2992 26.47 16.5592L25.83 17.7393C25.65 18.0693 25.31 18.2592 24.95 18.2592C24.81 18.2592 24.66 18.2293 24.53 18.1693C24.07 17.9593 23.66 17.7393 23.29 17.5193C23.24 18.0193 22.81 18.4193 22.29 18.4193H21.13V18.3992Z" fill="#FFF100"/>
<path d="M20.51 9.71973L22.07 9.77972C21.97 9.91972 21.95 9.95973 21.79 10.1597H24.52V11.1997C24.38 11.3797 24.06 11.7997 23.27 12.2797C24.23 12.4697 25.08 12.4897 25.62 12.4997L25.24 13.6797C24.06 13.5797 22.89 13.3797 21.79 12.9597C20.3 13.4197 19.17 13.5797 18.21 13.6897L17.87 12.4897C18.4 12.4697 19.26 12.4397 20.4 12.2097C20.02 11.9297 19.82 11.7397 19.69 11.5997C19.05 11.8597 18.59 11.9997 18.33 12.0697L17.91 10.9297C19.47 10.6197 20 10.2297 20.51 9.71973ZM22.86 11.1997H20.71C20.89 11.3497 21.19 11.5797 21.73 11.8297C22.32 11.5997 22.59 11.3997 22.86 11.1997ZM22.32 13.2497V13.8597H25.51V14.9597H23.3C24.24 15.6597 25.1 15.9297 25.62 16.0797L24.98 17.2597C23.78 16.6997 22.95 16.1397 22.33 15.4497V17.4197H21.14V15.4697C20.12 16.4897 18.85 17.0597 18.42 17.2497L17.79 16.0797C18.23 15.9397 19.37 15.5797 20.15 14.9697H17.96V13.8697H21.14V13.2597H22.32M20.51 7.71973C19.98 7.71973 19.46 7.92973 19.08 8.31973C18.85 8.54973 18.66 8.74972 17.5 8.97972C16.92 9.08972 16.43 9.44973 16.14 9.96973C15.85 10.4797 15.81 11.0897 16.01 11.6397L16.02 11.6797C15.83 12.1097 15.79 12.5897 15.93 13.0397L16.01 13.3297C15.96 13.4997 15.94 13.6797 15.94 13.8597V14.9597C15.94 15.0497 15.95 15.1397 15.96 15.2297C15.95 15.2597 15.93 15.2897 15.92 15.3197C15.69 15.8697 15.73 16.4997 16.01 17.0297L16.64 18.1997C17 18.8597 17.69 19.2497 18.4 19.2497C18.67 19.2497 18.95 19.1897 19.21 19.0797C19.38 18.9997 19.55 18.9297 19.71 18.8497C20.07 19.2097 20.57 19.4297 21.11 19.4297H22.3C22.83 19.4297 23.32 19.2197 23.68 18.8797C23.82 18.9497 23.96 19.0197 24.11 19.0897C24.38 19.2197 24.67 19.2797 24.95 19.2797C25.66 19.2797 26.35 18.8997 26.71 18.2397L27.35 17.0597C27.63 16.5397 27.67 15.9197 27.45 15.3697C27.47 15.2497 27.49 15.1197 27.49 14.9897V13.8897C27.49 13.7197 27.47 13.5497 27.43 13.3897L27.51 13.1497C27.71 12.5497 27.6 11.8797 27.23 11.3697C27.04 11.0997 26.79 10.8897 26.5 10.7497V10.1997C26.5 9.09972 25.6 8.19972 24.5 8.19972H23.2C22.89 7.97972 22.52 7.83973 22.13 7.82973L20.57 7.76973C20.56 7.71973 20.53 7.71973 20.51 7.71973Z" fill="#D81718"/>
</svg>
