<svg width="28" height="21" viewBox="0 0 28 21" fill="none" xmlns="http://www.w3.org/2000/svg">
<path d="M21.4 10.5399C21.4 11.1299 20.48 11.6399 20.38 12.2099C20.28 12.7899 20.97 13.5799 20.77 14.1199C20.57 14.6699 19.53 14.8299 19.24 15.3299C18.95 15.8399 19.33 16.8199 18.95 17.2599C18.57 17.7099 17.54 17.4999 17.1 17.8799C16.65 18.2499 16.68 19.3099 16.17 19.5999C15.67 19.8899 14.77 19.3499 14.22 19.5499C13.68 19.7499 13.34 20.7399 12.76 20.8399C12.19 20.9399 11.54 20.1199 10.94 20.1199C10.35 20.1199 9.69 20.9399 9.12 20.8399C8.54 20.7399 8.2 19.7399 7.66 19.5499C7.11 19.3499 6.21 19.8899 5.71 19.5999C5.2 19.3099 5.23 18.2599 4.78 17.8799C4.33 17.4999 3.3 17.7099 2.93 17.2599C2.56 16.8099 2.93 15.8299 2.64 15.3299C2.35 14.8299 1.31 14.6699 1.11 14.1199C0.910001 13.5799 1.6 12.7899 1.5 12.2099C1.4 11.6399 0.48 11.1399 0.48 10.5399C0.48 9.93989 1.4 9.43989 1.5 8.86989C1.6 8.28989 0.910001 7.4999 1.11 6.9599C1.31 6.4099 2.35 6.2499 2.64 5.7499C2.93 5.2399 2.55 4.2599 2.93 3.8199C3.31 3.3699 4.34 3.57989 4.78 3.19989C5.23 2.82989 5.2 1.76989 5.71 1.47989C6.21 1.18989 7.11 1.72989 7.66 1.52989C8.2 1.32989 8.54 0.339901 9.12 0.239901C9.69 0.139901 10.34 0.959902 10.94 0.959902C11.53 0.959902 12.19 0.139901 12.76 0.239901C13.34 0.339901 13.68 1.33989 14.22 1.52989C14.77 1.72989 15.67 1.18989 16.17 1.47989C16.68 1.76989 16.65 2.81989 17.1 3.19989C17.55 3.57989 18.58 3.3699 18.95 3.8199C19.32 4.2699 18.95 5.2499 19.24 5.7499C19.53 6.2499 20.57 6.4099 20.77 6.9599C20.97 7.4999 20.28 8.28989 20.38 8.86989C20.48 9.43989 21.4 9.94989 21.4 10.5399Z" fill="#D81718"/>
<path d="M9.39 13.1102V13.1402C9.39 14.0902 9.39 15.0002 10.37 15.0002C11.33 15.0002 11.38 14.1402 11.38 13.3102C11.38 11.7702 10.97 11.3502 9.86 11.3502H9.47V9.42015H9.86C10.91 9.42015 11.23 9.10015 11.23 7.65015C11.23 7.08015 11.18 6.30016 10.37 6.30016C9.46 6.30016 9.46 7.26016 9.46 7.99016V8.02016H7.43V8.00015C7.43 6.29015 7.97 5.53015 8.48 5.09015C9.02 4.62015 9.65 4.41016 10.39 4.41016C11.23 4.41016 11.91 4.68015 12.4 5.12015C12.94 5.61015 13.29 6.32015 13.31 7.65015C13.31 9.25015 12.82 9.83016 11.92 10.2702V10.3502C12.98 10.7402 13.46 11.6302 13.49 13.1702C13.49 14.7902 13.07 15.6402 12.49 16.1602C11.98 16.6202 11.26 16.8902 10.36 16.8902C9.45 16.8902 8.74 16.6201 8.27 16.2001C7.73 15.7101 7.32 14.9202 7.32 13.1402V13.1102H9.39Z" fill="#FFF100"/>
<path d="M21.13 17.8192C20.6 17.8192 20.17 17.4092 20.13 16.8892C19.72 17.1292 19.29 17.3592 18.82 17.5692C18.69 17.6292 18.55 17.6592 18.41 17.6592C18.05 17.6592 17.71 17.4692 17.53 17.1392L16.9 15.9692C16.76 15.7092 16.74 15.3892 16.85 15.1192C16.9 15.0092 16.96 14.9092 17.04 14.8192C16.98 14.6892 16.94 14.5392 16.94 14.3892V13.2892C16.94 13.1092 16.98 12.9492 17.06 12.8092L16.89 12.1992C16.81 11.8992 16.86 11.5792 17.04 11.3392C17.07 11.2992 17.1 11.2692 17.13 11.2292L16.94 10.7292C16.84 10.4592 16.86 10.1492 17 9.88918C17.14 9.62918 17.39 9.44917 17.68 9.39917C19.14 9.10917 19.46 8.77918 19.78 8.45918C19.97 8.26918 20.23 8.15918 20.49 8.15918C20.5 8.15918 22.09 8.21918 22.09 8.21918C22.38 8.22918 22.65 8.36918 22.83 8.59918H24.5C25.05 8.59918 25.5 9.04918 25.5 9.59918V10.6392C25.5 10.7392 25.49 10.8392 25.46 10.9292C25.52 10.9292 25.57 10.9292 25.62 10.9292C25.94 10.9292 26.23 11.0892 26.42 11.3492C26.6 11.6092 26.66 11.9392 26.56 12.2392L26.37 12.8092C26.45 12.9492 26.49 13.1192 26.49 13.2892V14.3892C26.49 14.5692 26.45 14.7292 26.37 14.8692C26.43 14.9492 26.48 15.0292 26.52 15.1192C26.64 15.3992 26.62 15.7192 26.47 15.9792L25.83 17.1592C25.65 17.4892 25.31 17.6792 24.95 17.6792C24.81 17.6792 24.66 17.6492 24.53 17.5892C24.07 17.3792 23.66 17.1592 23.29 16.9392C23.24 17.4392 22.81 17.8392 22.29 17.8392H21.13V17.8192Z" fill="#FFF100"/>
<path d="M20.51 9.13965L22.07 9.19965C21.97 9.33965 21.95 9.37965 21.79 9.57965H24.52V10.6196C24.38 10.7996 24.06 11.2196 23.27 11.6996C24.23 11.8896 25.08 11.9096 25.62 11.9196L25.24 13.0997C24.06 12.9997 22.89 12.7997 21.79 12.3797C20.3 12.8397 19.17 12.9996 18.21 13.1096L17.87 11.9097C18.4 11.8897 19.26 11.8597 20.4 11.6297C20.02 11.3497 19.82 11.1597 19.69 11.0197C19.05 11.2797 18.59 11.4197 18.33 11.4897L17.91 10.3497C19.47 10.0497 20 9.64965 20.51 9.13965ZM22.86 10.6196H20.71C20.89 10.7696 21.19 10.9996 21.73 11.2496C22.32 11.0196 22.59 10.8196 22.86 10.6196ZM22.32 12.6696V13.2796H25.51V14.3797H23.3C24.24 15.0797 25.1 15.3496 25.62 15.4996L24.98 16.6796C23.78 16.1196 22.95 15.5596 22.33 14.8696V16.8396H21.14V14.8896C20.12 15.9096 18.85 16.4796 18.42 16.6696L17.79 15.4996C18.23 15.3596 19.37 14.9996 20.15 14.3896H17.96V13.2896H21.14V12.6796H22.32M20.51 7.13965C19.98 7.13965 19.46 7.34965 19.08 7.73965C18.85 7.96965 18.66 8.16964 17.5 8.39964C16.92 8.50964 16.43 8.86965 16.14 9.38965C15.85 9.89965 15.81 10.5096 16.01 11.0596L16.02 11.0997C15.83 11.5297 15.79 12.0097 15.93 12.4597L16.01 12.7496C15.96 12.9196 15.94 13.0996 15.94 13.2796V14.3797C15.94 14.4697 15.95 14.5596 15.96 14.6496C15.95 14.6796 15.93 14.7097 15.92 14.7397C15.69 15.2897 15.73 15.9196 16.01 16.4496L16.64 17.6196C17 18.2796 17.69 18.6696 18.4 18.6696C18.67 18.6696 18.95 18.6096 19.21 18.4996C19.38 18.4196 19.55 18.3497 19.71 18.2697C20.07 18.6297 20.57 18.8497 21.11 18.8497H22.3C22.83 18.8497 23.32 18.6397 23.68 18.2997C23.82 18.3697 23.96 18.4396 24.11 18.5096C24.38 18.6396 24.67 18.6996 24.95 18.6996C25.66 18.6996 26.35 18.3197 26.71 17.6597L27.35 16.4796C27.63 15.9596 27.67 15.3396 27.45 14.7896C27.47 14.6696 27.49 14.5397 27.49 14.4097V13.3096C27.49 13.1396 27.47 12.9696 27.43 12.8096L27.51 12.5697C27.71 11.9697 27.6 11.2996 27.23 10.7896C27.04 10.5196 26.79 10.3096 26.5 10.1696V9.61964C26.5 8.51964 25.6 7.61964 24.5 7.61964H23.2C22.89 7.39964 22.52 7.25965 22.13 7.24965L20.57 7.18965C20.56 7.13965 20.53 7.13965 20.51 7.13965Z" fill="#D81718"/>
</svg>
