<svg width="28" height="22" viewBox="0 0 28 22" fill="none" xmlns="http://www.w3.org/2000/svg">
<path d="M21.4 10.9998C21.4 11.5898 20.48 12.0999 20.38 12.6699C20.28 13.2499 20.97 14.0398 20.77 14.5798C20.57 15.1298 19.53 15.2899 19.24 15.7899C18.95 16.2999 19.33 17.2799 18.95 17.7199C18.57 18.1699 17.54 17.9598 17.1 18.3398C16.65 18.7098 16.68 19.7698 16.17 20.0598C15.67 20.3498 14.77 19.8099 14.22 20.0099C13.68 20.2099 13.34 21.1998 12.76 21.2998C12.19 21.3998 11.54 20.5798 10.94 20.5798C10.35 20.5798 9.69 21.3998 9.12 21.2998C8.54 21.1998 8.2 20.1999 7.66 20.0099C7.11 19.8099 6.21 20.3498 5.71 20.0598C5.2 19.7698 5.23 18.7198 4.78 18.3398C4.33 17.9598 3.3 18.1699 2.93 17.7199C2.56 17.2699 2.93 16.2899 2.64 15.7899C2.35 15.2899 1.31 15.1298 1.11 14.5798C0.910001 14.0398 1.6 13.2499 1.5 12.6699C1.4 12.0999 0.48 11.5998 0.48 10.9998C0.48 10.3998 1.4 9.89984 1.5 9.32984C1.6 8.74984 0.910001 7.95986 1.11 7.41986C1.31 6.86986 2.35 6.70984 2.64 6.20984C2.93 5.69984 2.55 4.71985 2.93 4.27985C3.31 3.82985 4.34 4.03985 4.78 3.65985C5.23 3.28985 5.2 2.22985 5.71 1.93985C6.21 1.64985 7.11 2.18984 7.66 1.98984C8.2 1.78984 8.54 0.799862 9.12 0.699862C9.69 0.599862 10.34 1.41986 10.94 1.41986C11.53 1.41986 12.19 0.599862 12.76 0.699862C13.34 0.799862 13.68 1.79984 14.22 1.98984C14.77 2.18984 15.67 1.64985 16.17 1.93985C16.68 2.22985 16.65 3.27985 17.1 3.65985C17.55 4.03985 18.58 3.82985 18.95 4.27985C19.32 4.72985 18.95 5.70984 19.24 6.20984C19.53 6.70984 20.57 6.86986 20.77 7.41986C20.97 7.95986 20.28 8.74984 20.38 9.32984C20.48 9.89984 21.4 10.4098 21.4 10.9998Z" fill="#D81718"/>
<path d="M11.32 13.2199V11.8999C10.76 12.3399 10.17 12.5799 9.51 12.5799C8.97 12.5799 8.48 12.4299 8.04 12.0199C7.48 11.4999 7.18 10.7999 7.16 8.90988C7.16 7.55988 7.31 6.30989 8.17 5.56989C8.68 5.12989 9.44 4.87988 10.32 4.87988C11.28 4.87988 11.98 5.17989 12.43 5.56989C13.07 6.12989 13.48 6.96988 13.48 9.46988V12.7599C13.48 15.1099 13.14 16.0999 12.43 16.6999C11.91 17.1399 11.23 17.3599 10.4 17.3599C9.49 17.3599 8.8 17.0899 8.32 16.6699C7.78 16.1799 7.37 15.3899 7.37 13.7799V13.7499H9.43V13.7799C9.43 14.4699 9.43 15.4699 10.38 15.4699C11.32 15.4699 11.32 14.4699 11.32 13.2199ZM11.32 10.1599V9.00989C11.32 7.78989 11.32 6.75989 10.27 6.75989C9.31 6.75989 9.31 7.63988 9.31 8.90988C9.31 10.0399 9.36 10.6799 10.26 10.6799C10.63 10.6899 11.03 10.5499 11.32 10.1599Z" fill="#FFF100"/>
<path d="M21.13 18.2791C20.6 18.2791 20.17 17.8692 20.13 17.3492C19.72 17.5892 19.29 17.8191 18.82 18.0291C18.69 18.0891 18.55 18.1191 18.41 18.1191C18.05 18.1191 17.71 17.9292 17.53 17.5992L16.9 16.4291C16.76 16.1691 16.74 15.8491 16.85 15.5791C16.9 15.4691 16.96 15.3691 17.04 15.2791C16.98 15.1491 16.94 14.9992 16.94 14.8492V13.7491C16.94 13.5691 16.98 13.4091 17.06 13.2691L16.89 12.6591C16.81 12.3591 16.86 12.0391 17.04 11.7991C17.07 11.7591 17.1 11.7291 17.13 11.6891L16.94 11.1891C16.84 10.9191 16.86 10.6092 17 10.3492C17.14 10.0892 17.39 9.90913 17.68 9.85913C19.14 9.56913 19.46 9.23916 19.78 8.91916C19.97 8.72916 20.23 8.61914 20.49 8.61914C20.5 8.61914 22.09 8.67914 22.09 8.67914C22.38 8.68914 22.65 8.82914 22.83 9.05914H24.5C25.05 9.05914 25.5 9.50914 25.5 10.0591V11.0992C25.5 11.1992 25.49 11.2992 25.46 11.3892C25.52 11.3892 25.57 11.3892 25.62 11.3892C25.94 11.3892 26.23 11.5491 26.42 11.8091C26.6 12.0691 26.66 12.3992 26.56 12.6992L26.37 13.2691C26.45 13.4091 26.49 13.5791 26.49 13.7491V14.8492C26.49 15.0292 26.45 15.1891 26.37 15.3291C26.43 15.4091 26.48 15.4891 26.52 15.5791C26.64 15.8591 26.62 16.1791 26.47 16.4391L25.83 17.6191C25.65 17.9491 25.31 18.1392 24.95 18.1392C24.81 18.1392 24.66 18.1091 24.53 18.0491C24.07 17.8391 23.66 17.6191 23.29 17.3991C23.24 17.8991 22.81 18.2991 22.29 18.2991H21.13V18.2791Z" fill="#FFF100"/>
<path d="M20.51 9.59961L22.07 9.65961C21.97 9.79961 21.95 9.83961 21.79 10.0396H24.52V11.0796C24.38 11.2596 24.06 11.6796 23.27 12.1596C24.23 12.3496 25.08 12.3696 25.62 12.3796L25.24 13.5596C24.06 13.4596 22.89 13.2596 21.79 12.8396C20.3 13.2996 19.17 13.4596 18.21 13.5696L17.87 12.3696C18.4 12.3496 19.26 12.3196 20.4 12.0896C20.02 11.8096 19.82 11.6196 19.69 11.4796C19.05 11.7396 18.59 11.8796 18.33 11.9496L17.91 10.8096C19.47 10.5096 20 10.1196 20.51 9.59961ZM22.86 11.0796H20.71C20.89 11.2296 21.19 11.4596 21.73 11.7096C22.32 11.4796 22.59 11.2796 22.86 11.0796ZM22.32 13.1296V13.7396H25.51V14.8396H23.3C24.24 15.5396 25.1 15.8096 25.62 15.9596L24.98 17.1396C23.78 16.5796 22.95 16.0196 22.33 15.3296V17.2996H21.14V15.3496C20.12 16.3696 18.85 16.9396 18.42 17.1296L17.79 15.9596C18.23 15.8196 19.37 15.4596 20.15 14.8496H17.96V13.7496H21.14V13.1396H22.32M20.51 7.59961C19.98 7.59961 19.46 7.80962 19.08 8.19962C18.85 8.42962 18.66 8.62959 17.5 8.85959C16.92 8.96959 16.43 9.32961 16.14 9.84961C15.85 10.3596 15.81 10.9696 16.01 11.5196L16.02 11.5596C15.83 11.9896 15.79 12.4696 15.93 12.9196L16.01 13.2096C15.96 13.3796 15.94 13.5596 15.94 13.7396V14.8396C15.94 14.9296 15.95 15.0196 15.96 15.1096C15.95 15.1396 15.93 15.1696 15.92 15.1996C15.69 15.7496 15.73 16.3796 16.01 16.9096L16.64 18.0796C17 18.7396 17.69 19.1296 18.4 19.1296C18.67 19.1296 18.95 19.0696 19.21 18.9596C19.38 18.8796 19.55 18.8096 19.71 18.7296C20.07 19.0896 20.57 19.3096 21.11 19.3096H22.3C22.83 19.3096 23.32 19.0996 23.68 18.7596C23.82 18.8296 23.96 18.8996 24.11 18.9696C24.38 19.0996 24.67 19.1596 24.95 19.1596C25.66 19.1596 26.35 18.7796 26.71 18.1196L27.35 16.9396C27.63 16.4196 27.67 15.7996 27.45 15.2496C27.47 15.1296 27.49 14.9996 27.49 14.8696V13.7696C27.49 13.5996 27.47 13.4296 27.43 13.2696L27.51 13.0296C27.71 12.4296 27.6 11.7596 27.23 11.2496C27.04 10.9796 26.79 10.7696 26.5 10.6296V10.0796C26.5 8.97959 25.6 8.07959 24.5 8.07959H23.2C22.89 7.85959 22.52 7.71959 22.13 7.70959L20.57 7.6496C20.56 7.6096 20.53 7.59961 20.51 7.59961Z" fill="#D81718"/>
</svg>
