<svg width="28" height="22" viewBox="0 0 28 22" fill="none" xmlns="http://www.w3.org/2000/svg">
<path d="M21.4 10.8505C21.4 11.4405 20.48 11.9504 20.38 12.5204C20.28 13.1004 20.97 13.8905 20.77 14.4305C20.57 14.9805 19.53 15.1405 19.24 15.6405C18.95 16.1505 19.33 17.1305 18.95 17.5705C18.57 18.0205 17.54 17.8105 17.1 18.1905C16.65 18.5605 16.68 19.6205 16.17 19.9105C15.67 20.2005 14.77 19.6604 14.22 19.8604C13.68 20.0604 13.34 21.0505 12.76 21.1505C12.19 21.2505 11.54 20.4305 10.94 20.4305C10.35 20.4305 9.69 21.2505 9.12 21.1505C8.54 21.0505 8.2 20.0504 7.66 19.8604C7.11 19.6604 6.21 20.2005 5.71 19.9105C5.2 19.6205 5.23 18.5705 4.78 18.1905C4.33 17.8105 3.3 18.0205 2.93 17.5705C2.56 17.1205 2.93 16.1405 2.64 15.6405C2.35 15.1405 1.31 14.9805 1.11 14.4305C0.910001 13.8905 1.6 13.1004 1.5 12.5204C1.4 11.9504 0.48 11.4505 0.48 10.8505C0.48 10.2505 1.4 9.75045 1.5 9.18045C1.6 8.60045 0.910001 7.81045 1.11 7.27045C1.31 6.72045 2.35 6.56046 2.64 6.06046C2.93 5.55046 2.55 4.57046 2.93 4.13046C3.31 3.68046 4.34 3.89047 4.78 3.51047C5.23 3.14047 5.2 2.08047 5.71 1.79047C6.21 1.50047 7.11 2.04046 7.66 1.84046C8.2 1.64046 8.54 0.650448 9.12 0.550448C9.69 0.450448 10.34 1.27045 10.94 1.27045C11.53 1.27045 12.19 0.450448 12.76 0.550448C13.34 0.650448 13.68 1.65046 14.22 1.84046C14.77 2.04046 15.67 1.50047 16.17 1.79047C16.68 2.08047 16.65 3.13047 17.1 3.51047C17.55 3.89047 18.58 3.68046 18.95 4.13046C19.32 4.58046 18.95 5.56046 19.24 6.06046C19.53 6.56046 20.57 6.72045 20.77 7.27045C20.97 7.81045 20.28 8.60045 20.38 9.18045C20.48 9.75045 21.4 10.2605 21.4 10.8505Z" fill="#D81718"/>
<path d="M8.56 17.0009L10.99 6.81088H7.43V4.9209H13.16V6.32089L10.69 17.0009H8.56Z" fill="#FFF100"/>
<path d="M21.13 18.1297C20.6 18.1297 20.17 17.7197 20.13 17.1997C19.72 17.4397 19.29 17.6697 18.82 17.8797C18.69 17.9397 18.55 17.9697 18.41 17.9697C18.05 17.9697 17.71 17.7797 17.53 17.4497L16.9 16.2797C16.76 16.0197 16.74 15.6997 16.85 15.4297C16.9 15.3197 16.96 15.2197 17.04 15.1297C16.98 14.9997 16.94 14.8497 16.94 14.6997V13.5997C16.94 13.4197 16.98 13.2597 17.06 13.1197L16.89 12.5097C16.81 12.2097 16.86 11.8897 17.04 11.6497C17.07 11.6097 17.1 11.5797 17.13 11.5397L16.94 11.0397C16.84 10.7697 16.86 10.4597 17 10.1997C17.14 9.93974 17.39 9.75972 17.68 9.70972C19.14 9.41972 19.46 9.08971 19.78 8.76971C19.97 8.57971 20.23 8.46973 20.49 8.46973C20.5 8.46973 22.09 8.52972 22.09 8.52972C22.38 8.53972 22.65 8.67973 22.83 8.90973H24.5C25.05 8.90973 25.5 9.35973 25.5 9.90973V10.9497C25.5 11.0497 25.49 11.1497 25.46 11.2397C25.52 11.2397 25.57 11.2397 25.62 11.2397C25.94 11.2397 26.23 11.3997 26.42 11.6597C26.6 11.9197 26.66 12.2497 26.56 12.5497L26.37 13.1197C26.45 13.2597 26.49 13.4297 26.49 13.5997V14.6997C26.49 14.8797 26.45 15.0397 26.37 15.1797C26.43 15.2597 26.48 15.3397 26.52 15.4297C26.64 15.7097 26.62 16.0297 26.47 16.2897L25.83 17.4697C25.65 17.7997 25.31 17.9897 24.95 17.9897C24.81 17.9897 24.66 17.9597 24.53 17.8997C24.07 17.6897 23.66 17.4697 23.29 17.2497C23.24 17.7497 22.81 18.1497 22.29 18.1497H21.13V18.1297Z" fill="#FFF100"/>
<path d="M20.51 9.4502L22.07 9.51019C21.97 9.65019 21.95 9.6902 21.79 9.8902H24.52V10.9302C24.38 11.1102 24.06 11.5302 23.27 12.0102C24.23 12.2002 25.08 12.2202 25.62 12.2302L25.24 13.4102C24.06 13.3102 22.89 13.1102 21.79 12.6902C20.3 13.1502 19.17 13.3102 18.21 13.4202L17.87 12.2202C18.4 12.2002 19.26 12.1702 20.4 11.9402C20.02 11.6602 19.82 11.4702 19.69 11.3302C19.05 11.5902 18.59 11.7302 18.33 11.8002L17.91 10.6602C19.47 10.3502 20 9.9602 20.51 9.4502ZM22.86 10.9302H20.71C20.89 11.0802 21.19 11.3102 21.73 11.5602C22.32 11.3302 22.59 11.1302 22.86 10.9302ZM22.32 12.9802V13.5902H25.51V14.6902H23.3C24.24 15.3902 25.1 15.6602 25.62 15.8102L24.98 16.9902C23.78 16.4302 22.95 15.8702 22.33 15.1802V17.1502H21.14V15.2002C20.12 16.2202 18.85 16.7902 18.42 16.9802L17.79 15.8102C18.23 15.6702 19.37 15.3102 20.15 14.7002H17.96V13.6002H21.14V12.9902H22.32M20.51 7.4502C19.98 7.4502 19.46 7.66017 19.08 8.05017C18.85 8.28017 18.66 8.48017 17.5 8.71017C16.92 8.82017 16.43 9.1802 16.14 9.7002C15.85 10.2102 15.81 10.8202 16.01 11.3702L16.02 11.4102C15.83 11.8402 15.79 12.3202 15.93 12.7702L16.01 13.0602C15.96 13.2302 15.94 13.4102 15.94 13.5902V14.6902C15.94 14.7802 15.95 14.8702 15.96 14.9602C15.95 14.9902 15.93 15.0202 15.92 15.0502C15.69 15.6002 15.73 16.2302 16.01 16.7602L16.64 17.9302C17 18.5902 17.69 18.9802 18.4 18.9802C18.67 18.9802 18.95 18.9202 19.21 18.8102C19.38 18.7302 19.55 18.6602 19.71 18.5802C20.07 18.9402 20.57 19.1602 21.11 19.1602H22.3C22.83 19.1602 23.32 18.9502 23.68 18.6102C23.82 18.6802 23.96 18.7502 24.11 18.8202C24.38 18.9502 24.67 19.0102 24.95 19.0102C25.66 19.0102 26.35 18.6302 26.71 17.9702L27.35 16.7902C27.63 16.2702 27.67 15.6502 27.45 15.1002C27.47 14.9802 27.49 14.8502 27.49 14.7202V13.6202C27.49 13.4502 27.47 13.2802 27.43 13.1202L27.51 12.8802C27.71 12.2802 27.6 11.6102 27.23 11.1002C27.04 10.8302 26.79 10.6202 26.5 10.4802V9.93018C26.5 8.83018 25.6 7.93018 24.5 7.93018H23.2C22.89 7.71018 22.52 7.57018 22.13 7.56018L20.57 7.50018C20.56 7.45018 20.53 7.4502 20.51 7.4502Z" fill="#D81718"/>
</svg>
